SplineFontDB: 3.0
FontName: Problemiste
FullName: Problemiste
FamilyName: Problemiste
Weight: Light
Copyright: Copyright (c) 1995-2000 Matthieu LESCHEMELLE
Version: 1.00
ItalicAngle: 0
UnderlinePosition: -125
UnderlineWidth: 50
Ascent: 800
Descent: 200
InvalidEm: 0
sfntRevision: 0x00010000
LayerCount: 2
Layer: 0 1 "Back" 1
Layer: 1 1 "Fore" 0
XUID: [1021 481 301859855 13054416]
StyleMap: 0x0040
FSType: 0
OS2Version: 0
OS2_WeightWidthSlopeOnly: 0
OS2_UseTypoMetrics: 0
CreationTime: -2082844800
ModificationTime: 1565592874
PfmFamily: 81
TTFWeight: 300
TTFWidth: 5
LineGap: 0
VLineGap: 0
Panose: 0 0 4 0 0 0 0 0 0 0
OS2TypoAscent: 718
OS2TypoAOffset: 0
OS2TypoDescent: -207
OS2TypoDOffset: 0
OS2TypoLinegap: 0
OS2WinAscent: 880
OS2WinAOffset: 0
OS2WinDescent: 225
OS2WinDOffset: 0
HheadAscent: 718
HheadAOffset: 0
HheadDescent: -207
HheadDOffset: 0
OS2SubXSize: 500
OS2SubYSize: 500
OS2SubXOff: 0
OS2SubYOff: -500
OS2SupXSize: 500
OS2SupYSize: 500
OS2SupXOff: 0
OS2SupYOff: 250
OS2StrikeYSize: 50
OS2StrikeYPos: 250
OS2Vendor: 'DTPS'
OS2UnicodeRanges: 00000000.00000000.00000000.00000000
Lookup: 258 0 0 "'kern' Horizontal Kerning lookup 0" { "'kern' Horizontal Kerning lookup 0 subtable"  } ['kern' () ]
DEI: 91125
TtTable: prep
PUSHW_2
 511
 512
SCANTYPE
SCANCTRL
SVTCA[y-axis]
EndTTInstrs
TtTable: fpgm
PUSHB_5
 4
 3
 2
 1
 0
FDEF
DUP
GC[cur]
DUP
ROUND[Grey]
SUB
ABS
PUSHB_1
 3
CINDEX
GC[cur]
DUP
ROUND[Grey]
SUB
ABS
GT
IF
SWAP
DUP
PUSHB_1
 0
SWAP
WS
MDAP[rnd]
MDRP[rp0,min,rnd,grey]
SLOOP
ALIGNRP
PUSHB_1
 3
LOOPCALL
PUSHB_1
 0
RS
MDAP[rnd]
SLOOP
ALIGNRP
PUSHB_1
 3
LOOPCALL
ELSE
MDAP[rnd]
PUSHB_1
 0
SWAP
WS
SLOOP
ALIGNRP
PUSHB_1
 3
LOOPCALL
PUSHB_1
 0
RS
MDRP[rp0,min,rnd,grey]
SLOOP
ALIGNRP
PUSHB_1
 3
LOOPCALL
EIF
ENDF
FDEF
MDRP[min,rnd,grey]
ENDF
FDEF
SRP1
SRP2
SLOOP
IP
ENDF
FDEF
MPPEM
PUSHB_1
 65
LT
IF
ALIGNRP
ELSE
POP
EIF
ENDF
FDEF
PUSHB_5
 0
 0
 0
 0
 6
MINDEX
PUSHB_1
 6
MINDEX
PUSHB_1
 0
CALL
ENDF
SVTCA[y-axis]
SVTCA[y-axis]
EndTTInstrs
ShortTable: cvt  12
  0
  718
  523
  688

StartChar: .notdef
Encoding: 254 731 0
AltUni2: 0002dc.ffffffff.0 00e01e.ffffffff.0 0000ca.ffffffff.0 0000c2.ffffffff.0 00fb02.ffffffff.0 00fb01.ffffffff.0 00203a.ffffffff.0 002039.ffffffff.0 0020ac.ffffffff.0 002044.ffffffff.0 000178.ffffffff.0 0000ff.ffffffff.0 0025ca.ffffffff.0 0000f7.ffffffff.0 002019.ffffffff.0 002018.ffffffff.0 00201d.ffffffff.0 00201c.ffffffff.0 002014.ffffffff.0 002013.ffffffff.0 000153.ffffffff.0 000152.ffffffff.0 0000d5.ffffffff.0 0000c3.ffffffff.0 0000f8.ffffffff.0 0000e6.ffffffff.0 0000b5.ffffffff.0 0000b1.ffffffff.0 0000d8.ffffffff.0 0000c6.ffffffff.0 002260.ffffffff.0 0000a8.ffffffff.0 0000ae.ffffffff.0 0000b6.ffffffff.0 002022.ffffffff.0 0000a3.ffffffff.0 0000a2.ffffffff.0 0000b0.ffffffff.0 002020.ffffffff.0 0000fc.ffffffff.0 0000fb.ffffffff.0 0000f9.ffffffff.0 0000fa.ffffffff.0 0000f5.ffffffff.0 0000f6.ffffffff.0 0000f4.ffffffff.0 0000f2.ffffffff.0 0000f3.ffffffff.0 0000f1.ffffffff.0 0000ef.ffffffff.0 0000ee.ffffffff.0 0000ec.ffffffff.0 0000ed.ffffffff.0 0000eb.ffffffff.0 0000ea.ffffffff.0 0000e8.ffffffff.0 0000e9.ffffffff.0 0000e7.ffffffff.0 0000e5.ffffffff.0 0000e3.ffffffff.0 0000e4.ffffffff.0 0000e2.ffffffff.0 0000e0.ffffffff.0 0000e1.ffffffff.0 0000dc.ffffffff.0 0000d6.ffffffff.0 0000d1.ffffffff.0 0000c9.ffffffff.0 0000c7.ffffffff.0 0000c5.ffffffff.0 0000c4.ffffffff.0 00007f.ffffffff.0 00001f.ffffffff.0 00001e.ffffffff.0 00001d.ffffffff.0 00001c.ffffffff.0 00001b.ffffffff.0 00001a.ffffffff.0 000019.ffffffff.0 000018.ffffffff.0 000017.ffffffff.0 000016.ffffffff.0 000015.ffffffff.0 000014.ffffffff.0 000013.ffffffff.0 000012.ffffffff.0 000011.ffffffff.0 000010.ffffffff.0 00000f.ffffffff.0 00000e.ffffffff.0 00000d.ffffffff.0 00000c.ffffffff.0 00000b.ffffffff.0 00000a.ffffffff.0 000009.ffffffff.0 000008.ffffffff.0 000007.ffffffff.0 000006.ffffffff.0 000005.ffffffff.0 000004.ffffffff.0 000003.ffffffff.0 000002.ffffffff.0 000001.ffffffff.0 000000.ffffffff.0
Width: 502
Flags: W
LayerCount: 2
Fore
SplineSet
-1 0 m 1,0,-1
 499 0 l 1,1,-1
 499 500 l 1,2,-1
 -1 500 l 1,3,-1
 -1 0 l 1,0,-1
9 10 m 1,4,-1
 9 490 l 1,5,-1
 489 490 l 1,6,-1
 489 10 l 1,7,-1
 9 10 l 1,4,-1
EndSplineSet
Validated: 9
EndChar

StartChar: exclam
Encoding: 33 33 2
Width: 278
Flags: W
LayerCount: 2
Fore
SplineSet
187 102 m 1,0,-1
 90 102 l 1,1,-1
 90 0 l 1,2,-1
 187 0 l 1,3,-1
 187 102 l 1,0,-1
163 171 m 1,4,-1
 187 481 l 1,5,-1
 187 718 l 1,6,-1
 90 718 l 1,7,-1
 90 481 l 1,8,-1
 114 171 l 1,9,-1
 163 171 l 1,4,-1
EndSplineSet
Validated: 9
EndChar

StartChar: quotedbl
Encoding: 34 34 3
Width: 355
Flags: W
LayerCount: 2
Fore
SplineSet
70 463 m 1,0,-1
 143 463 l 1,1,-1
 143 718 l 1,2,-1
 70 718 l 1,3,-1
 70 463 l 1,0,-1
212 463 m 1,4,-1
 285 463 l 1,5,-1
 285 718 l 1,6,-1
 212 718 l 1,7,-1
 212 463 l 1,4,-1
EndSplineSet
Validated: 9
EndChar

StartChar: numbersign
Encoding: 35 35 4
Width: 707
Flags: W
LayerCount: 2
Fore
SplineSet
96 161 m 1,0,-1
 340 161 l 1,1,-1
 305 -8 l 1,2,-1
 365 -8 l 1,3,-1
 400 161 l 1,4,-1
 696 161 l 1,5,-1
 696 219 l 1,6,-1
 411 219 l 1,7,-1
 441 362 l 1,8,-1
 696 362 l 1,9,-1
 696 421 l 1,10,-1
 452 421 l 1,11,-1
 488 592 l 1,12,-1
 428 592 l 1,13,-1
 392 421 l 1,14,-1
 96 421 l 1,15,-1
 96 362 l 1,16,-1
 382 362 l 1,17,-1
 351 219 l 1,18,-1
 96 219 l 1,19,-1
 96 161 l 1,0,-1
EndSplineSet
Validated: 9
EndChar

StartChar: dollar
Encoding: 36 36 5
Width: 556
Flags: W
LayerCount: 2
Fore
SplineSet
253 409 m 1,0,1
 202 418 202 418 168 445.5 c 128,-1,2
 134 473 134 473 134 522 c 0,3,4
 134 570 134 570 166 604 c 128,-1,5
 198 638 198 638 253 638 c 1,6,-1
 253 409 l 1,0,1
300 308 m 1,7,-1
 354 291 l 2,8,9
 387 281 387 281 409.5 250.5 c 128,-1,10
 432 220 432 220 432 180 c 0,11,12
 432 127 432 127 397.5 90.5 c 128,-1,13
 363 54 363 54 300 54 c 1,14,-1
 300 308 l 1,7,-1
503 521 m 1,15,16
 501 578 501 578 479.5 615 c 128,-1,17
 458 652 458 652 426.5 672 c 128,-1,18
 395 692 395 692 363.5 700 c 128,-1,19
 332 708 332 708 300 711 c 1,20,-1
 300 775 l 1,21,-1
 253 775 l 1,22,-1
 253 711 l 1,23,24
 209 711 209 711 171 696 c 128,-1,25
 133 681 133 681 105 654 c 128,-1,26
 77 627 77 627 61.5 591.5 c 128,-1,27
 46 556 46 556 46 516 c 0,28,29
 46 467 46 467 63 432.5 c 128,-1,30
 80 398 80 398 109 376.5 c 128,-1,31
 138 355 138 355 172.5 342.5 c 128,-1,32
 207 330 207 330 253 319 c 1,33,-1
 253 54 l 1,34,35
 215 60 215 60 190.5 71 c 128,-1,36
 166 82 166 82 151.5 99.5 c 128,-1,37
 137 117 137 117 129.5 144.5 c 128,-1,38
 122 172 122 172 120 213 c 1,39,-1
 32 213 l 1,40,41
 32 150 32 150 48.5 106.5 c 128,-1,42
 65 63 65 63 95 36 c 128,-1,43
 125 9 125 9 164 -3.5 c 128,-1,44
 203 -16 203 -16 253 -19 c 1,45,-1
 253 -115 l 1,46,-1
 300 -115 l 1,47,-1
 300 -19 l 1,48,49
 335 -19 335 -19 372.5 -8.5 c 128,-1,50
 410 2 410 2 443.5 26.5 c 128,-1,51
 477 51 477 51 498.5 93.5 c 128,-1,52
 520 136 520 136 520 196 c 0,53,54
 520 247 520 247 505.5 280 c 128,-1,55
 491 313 491 313 463.5 333.5 c 128,-1,56
 436 354 436 354 400.5 367 c 128,-1,57
 365 380 365 380 301 399 c 1,58,-1
 300 399 l 1,59,-1
 300 638 l 1,60,61
 363 626 363 626 387.5 597 c 128,-1,62
 412 568 412 568 418 521 c 1,63,-1
 503 521 l 1,15,16
EndSplineSet
Validated: 9
EndChar

StartChar: percent
Encoding: 37 37 6
Width: 889
Flags: W
LayerCount: 2
Fore
SplineSet
39 526 m 256,0,1
 39 491 39 491 52.5 459.5 c 128,-1,2
 66 428 66 428 89.5 404.5 c 128,-1,3
 113 381 113 381 144 368 c 128,-1,4
 175 355 175 355 210 355 c 256,5,6
 245 355 245 355 276 368.5 c 128,-1,7
 307 382 307 382 330.5 405.5 c 128,-1,8
 354 429 354 429 367 460 c 128,-1,9
 380 491 380 491 380 526 c 256,10,11
 380 561 380 561 366.5 592 c 128,-1,12
 353 623 353 623 329.5 646 c 128,-1,13
 306 669 306 669 275 682 c 128,-1,14
 244 695 244 695 210 695 c 0,15,16
 175 695 175 695 144 682 c 128,-1,17
 113 669 113 669 89.5 646 c 128,-1,18
 66 623 66 623 52.5 592 c 128,-1,19
 39 561 39 561 39 526 c 256,0,1
109 526 m 0,20,21
 109 567 109 567 138.5 596 c 128,-1,22
 168 625 168 625 210 625 c 256,23,24
 252 625 252 625 281 596.5 c 128,-1,25
 310 568 310 568 310 526 c 256,26,27
 310 484 310 484 281 454.5 c 128,-1,28
 252 425 252 425 209 425 c 0,29,30
 168 425 168 425 138.5 453 c 128,-1,31
 109 481 109 481 109 526 c 0,20,21
509 164 m 256,32,33
 509 129 509 129 522.5 97.5 c 128,-1,34
 536 66 536 66 559.5 42.5 c 128,-1,35
 583 19 583 19 614 6 c 128,-1,36
 645 -7 645 -7 680 -7 c 256,37,38
 715 -7 715 -7 746 6.5 c 128,-1,39
 777 20 777 20 800.5 43.5 c 128,-1,40
 824 67 824 67 837 98 c 128,-1,41
 850 129 850 129 850 164 c 256,42,43
 850 199 850 199 836.5 230 c 128,-1,44
 823 261 823 261 799.5 284 c 128,-1,45
 776 307 776 307 745 320 c 128,-1,46
 714 333 714 333 680 333 c 0,47,48
 645 333 645 333 614 320 c 128,-1,49
 583 307 583 307 559.5 284 c 128,-1,50
 536 261 536 261 522.5 230 c 128,-1,51
 509 199 509 199 509 164 c 256,32,33
579 164 m 0,52,53
 579 205 579 205 608.5 234 c 128,-1,54
 638 263 638 263 680 263 c 256,55,56
 722 263 722 263 751 234.5 c 128,-1,57
 780 206 780 206 780 164 c 256,58,59
 780 122 780 122 751 92.5 c 128,-1,60
 722 63 722 63 679 63 c 0,61,62
 638 63 638 63 608.5 91 c 128,-1,63
 579 119 579 119 579 164 c 0,52,53
669 703 m 1,64,-1
 614 703 l 1,65,-1
 219 -19 l 1,66,-1
 273 -19 l 1,67,-1
 669 703 l 1,64,-1
EndSplineSet
Validated: 9
EndChar

StartChar: ampersand
Encoding: 38 38 7
Width: 667
Flags: W
LayerCount: 2
Fore
SplineSet
417 141 m 1,0,1
 359 61 359 61 261 61 c 0,2,3
 245 61 245 61 223 67.5 c 128,-1,4
 201 74 201 74 180 88 c 128,-1,5
 159 102 159 102 145.5 125 c 128,-1,6
 132 148 132 148 132 180 c 0,7,8
 132 233 132 233 160 264.5 c 128,-1,9
 188 296 188 296 255 339 c 1,10,-1
 417 141 l 1,0,1
286 439 m 1,11,12
 258 467 258 467 236.5 500 c 128,-1,13
 215 533 215 533 215 564 c 0,14,15
 215 576 215 576 218 588.5 c 128,-1,16
 221 601 221 601 230 613.5 c 128,-1,17
 239 626 239 626 256 634 c 128,-1,18
 273 642 273 642 299 642 c 0,19,20
 328 642 328 642 352 624 c 128,-1,21
 376 606 376 606 376 563 c 0,22,23
 376 523 376 523 351 495 c 128,-1,24
 326 467 326 467 286 439 c 1,11,12
517 155 m 1,25,26
 543 203 543 203 557.5 250.5 c 128,-1,27
 572 298 572 298 575 338 c 1,28,-1
 492 338 l 1,29,30
 485 299 485 299 480 279 c 128,-1,31
 475 259 475 259 463 226 c 1,32,-1
 332 382 l 1,33,-1
 333 383 l 1,34,35
 362 403 362 403 381 417.5 c 128,-1,36
 400 432 400 432 419 454 c 128,-1,37
 438 476 438 476 449.5 505 c 128,-1,38
 461 534 461 534 461 570 c 0,39,40
 461 630 461 630 420 674 c 128,-1,41
 379 718 379 718 300 718 c 256,42,43
 221 718 221 718 175.5 671 c 128,-1,44
 130 624 130 624 130 558 c 0,45,46
 130 515 130 515 146 484 c 128,-1,47
 162 453 162 453 206 399 c 1,48,49
 156 371 156 371 124.5 346 c 128,-1,50
 93 321 93 321 75.5 295.5 c 128,-1,51
 58 270 58 270 51 241 c 128,-1,52
 44 212 44 212 44 173 c 0,53,54
 44 148 44 148 53 117 c 128,-1,55
 62 86 62 86 85 55.5 c 128,-1,56
 108 25 108 25 150.5 5 c 128,-1,57
 193 -15 193 -15 255 -15 c 0,58,59
 328 -15 328 -15 375 10 c 128,-1,60
 422 35 422 35 464 82 c 1,61,-1
 531 0 l 1,62,-1
 645 0 l 1,63,-1
 517 155 l 1,25,26
EndSplineSet
Validated: 9
EndChar

StartChar: quoteright
Encoding: 39 39 8
Width: 222
Flags: W
LayerCount: 2
Fore
SplineSet
53 612 m 1,0,-1
 106 612 l 1,1,2
 106 595 106 595 104.5 579.5 c 128,-1,3
 103 564 103 564 98 549.5 c 128,-1,4
 93 535 93 535 82 524 c 128,-1,5
 71 513 71 513 53 510 c 1,6,-1
 53 463 l 1,7,8
 110 476 110 476 133.5 516.5 c 128,-1,9
 157 557 157 557 157 620 c 2,10,-1
 157 718 l 1,11,-1
 53 718 l 1,12,-1
 53 612 l 1,0,-1
EndSplineSet
Validated: 9
EndChar

StartChar: parenleft
Encoding: 40 40 9
Width: 333
Flags: W
LayerCount: 2
Fore
SplineSet
237 733 m 1,0,1
 152 612 152 612 110 500 c 128,-1,2
 68 388 68 388 68 261 c 0,3,4
 68 193 68 193 80 133 c 128,-1,5
 92 73 92 73 114 18 c 128,-1,6
 136 -37 136 -37 166 -89 c 128,-1,7
 196 -141 196 -141 240 -207 c 1,8,-1
 299 -207 l 1,9,10
 264 -139 264 -139 240.5 -88 c 128,-1,11
 217 -37 217 -37 199 15.5 c 128,-1,12
 181 68 181 68 171.5 122.5 c 128,-1,13
 162 177 162 177 162 237 c 0,14,15
 162 324 162 324 171 391 c 128,-1,16
 180 458 180 458 197 511.5 c 128,-1,17
 214 565 214 565 236 611.5 c 128,-1,18
 258 658 258 658 298 733 c 1,19,-1
 237 733 l 1,0,1
EndSplineSet
Validated: 9
EndChar

StartChar: parenright
Encoding: 41 41 10
Width: 333
Flags: W
LayerCount: 2
Fore
SplineSet
96 -207 m 1,0,1
 181 -86 181 -86 223 26 c 128,-1,2
 265 138 265 138 265 265 c 0,3,4
 265 333 265 333 253 393 c 128,-1,5
 241 453 241 453 219 508 c 128,-1,6
 197 563 197 563 167 615 c 128,-1,7
 137 667 137 667 93 733 c 1,8,-1
 34 733 l 1,9,10
 69 665 69 665 92.5 614 c 128,-1,11
 116 563 116 563 134 510.5 c 128,-1,12
 152 458 152 458 161.5 403.5 c 128,-1,13
 171 349 171 349 171 289 c 0,14,15
 171 202 171 202 162 135 c 128,-1,16
 153 68 153 68 136 14.5 c 128,-1,17
 119 -39 119 -39 97 -85.5 c 128,-1,18
 75 -132 75 -132 35 -207 c 1,19,-1
 96 -207 l 1,0,1
EndSplineSet
Validated: 9
EndChar

StartChar: asterisk
Encoding: 42 42 11
Width: 389
Flags: W
LayerCount: 2
Fore
SplineSet
39 591 m 1,0,-1
 147 557 l 1,1,-1
 80 465 l 1,2,-1
 129 431 l 1,3,-1
 194 525 l 1,4,-1
 259 431 l 1,5,-1
 308 465 l 1,6,-1
 241 557 l 1,7,-1
 349 591 l 1,8,-1
 329 646 l 1,9,-1
 224 608 l 1,10,-1
 224 718 l 1,11,-1
 164 718 l 1,12,-1
 164 608 l 1,13,-1
 59 646 l 1,14,-1
 39 591 l 1,0,-1
EndSplineSet
Validated: 9
EndChar

StartChar: plus
Encoding: 43 43 12
Width: 643
Flags: W
LayerCount: 2
Fore
SplineSet
283 334 m 1,0,-1
 30 334 l 1,1,-1
 30 249 l 1,2,-1
 283 249 l 1,3,-1
 283 -1 l 1,4,-1
 368 -1 l 1,5,-1
 368 249 l 1,6,-1
 620 249 l 1,7,-1
 620 334 l 1,8,-1
 368 334 l 1,9,-1
 368 584 l 1,10,-1
 283 584 l 1,11,-1
 283 334 l 1,0,-1
EndSplineSet
Validated: 9
EndChar

StartChar: comma
Encoding: 44 44 13
Width: 278
Flags: W
LayerCount: 2
Fore
SplineSet
87 0 m 1,0,-1
 140 0 l 1,1,2
 140 -41 140 -41 128 -69.5 c 128,-1,3
 116 -98 116 -98 87 -101 c 1,4,-1
 87 -147 l 1,5,6
 100 -145 100 -145 115.5 -139.5 c 128,-1,7
 131 -134 131 -134 149 -117.5 c 128,-1,8
 167 -101 167 -101 179 -70 c 128,-1,9
 191 -39 191 -39 191 8 c 2,10,-1
 191 106 l 1,11,-1
 87 106 l 1,12,-1
 87 0 l 1,0,-1
EndSplineSet
Validated: 9
EndChar

StartChar: hyphen
Encoding: 45 45 14
Width: 333
Flags: W
LayerCount: 2
Fore
SplineSet
289 322 m 1,0,-1
 44 322 l 1,1,-1
 44 232 l 1,2,-1
 289 232 l 1,3,-1
 289 322 l 1,0,-1
EndSplineSet
Validated: 9
EndChar

StartChar: period
Encoding: 46 46 15
Width: 278
Flags: W
LayerCount: 2
Fore
SplineSet
191 106 m 1,0,-1
 87 106 l 1,1,-1
 87 0 l 1,2,-1
 191 0 l 1,3,-1
 191 106 l 1,0,-1
EndSplineSet
Validated: 9
EndChar

StartChar: slash
Encoding: 47 47 16
Width: 278
Flags: W
LayerCount: 2
Fore
SplineSet
295 737 m 1,0,-1
 229 737 l 1,1,-1
 -17 -19 l 1,2,-1
 50 -19 l 1,3,-1
 295 737 l 1,0,-1
EndSplineSet
Validated: 9
EndChar

StartChar: zero
Encoding: 48 48 17
Width: 556
Flags: W
LayerCount: 2
Fore
SplineSet
425 342 m 256,0,1
 425 207 425 207 388.5 133.5 c 128,-1,2
 352 60 352 60 278 60 c 256,3,4
 204 60 204 60 167.5 133.5 c 128,-1,5
 131 207 131 207 131 342 c 256,6,7
 131 477 131 477 167.5 550.5 c 128,-1,8
 204 624 204 624 278 624 c 256,9,10
 352 624 352 624 388.5 550.5 c 128,-1,11
 425 477 425 477 425 342 c 256,0,1
519 342 m 256,12,13
 519 404 519 404 509 465.5 c 128,-1,14
 499 527 499 527 472.5 581 c 128,-1,15
 446 635 446 635 398 669 c 128,-1,16
 350 703 350 703 278 703 c 256,17,18
 206 703 206 703 158 669 c 128,-1,19
 110 635 110 635 84 581 c 128,-1,20
 58 527 58 527 47.5 465.5 c 128,-1,21
 37 404 37 404 37 342 c 256,22,23
 37 280 37 280 47.5 218.5 c 128,-1,24
 58 157 58 157 84 103 c 128,-1,25
 110 49 110 49 158 15 c 128,-1,26
 206 -19 206 -19 278 -19 c 256,27,28
 350 -19 350 -19 398 15 c 128,-1,29
 446 49 446 49 472.5 103 c 128,-1,30
 499 157 499 157 509 218.5 c 128,-1,31
 519 280 519 280 519 342 c 256,12,13
EndSplineSet
Validated: 9
EndChar

StartChar: one
Encoding: 49 49 18
Width: 556
Flags: W
LayerCount: 2
Fore
SplineSet
359 703 m 1,0,-1
 290 703 l 1,1,2
 280 660 280 660 265 635 c 128,-1,3
 250 610 250 610 229 597 c 128,-1,4
 208 584 208 584 179 578 c 128,-1,5
 150 572 150 572 101 569 c 1,6,-1
 101 499 l 1,7,-1
 265 499 l 1,8,-1
 265 0 l 1,9,-1
 359 0 l 1,10,-1
 359 703 l 1,0,-1
EndSplineSet
Validated: 9
EndChar

StartChar: two
Encoding: 50 50 19
Width: 556
Flags: W
LayerCount: 2
Fore
SplineSet
132 451 m 1,0,-1
 132 453 l 2,1,2
 134 482 134 482 138.5 507.5 c 128,-1,3
 143 533 143 533 156.5 560.5 c 128,-1,4
 170 588 170 588 199 606 c 128,-1,5
 228 624 228 624 274 624 c 0,6,7
 311 624 311 624 338 612.5 c 128,-1,8
 365 601 365 601 381.5 582.5 c 128,-1,9
 398 564 398 564 405.5 542 c 128,-1,10
 413 520 413 520 413 497 c 0,11,12
 413 464 413 464 404 440.5 c 128,-1,13
 395 417 395 417 379 399.5 c 128,-1,14
 363 382 363 382 343 368.5 c 128,-1,15
 323 355 323 355 289 336 c 2,16,-1
 284 333 l 1,17,-1
 191 279 l 2,18,19
 114 234 114 234 72 168.5 c 128,-1,20
 30 103 30 103 26 0 c 1,21,-1
 507 0 l 1,22,-1
 507 83 l 1,23,-1
 125 83 l 1,24,25
 129 112 129 112 156 147.5 c 128,-1,26
 183 183 183 183 246 218 c 2,27,-1
 319 258 l 2,28,29
 367 283 367 283 398 304 c 128,-1,30
 429 325 429 325 454 351.5 c 128,-1,31
 479 378 479 378 493 413 c 128,-1,32
 507 448 507 448 507 493 c 0,33,34
 507 589 507 589 443 647 c 0,35,36
 413 674 413 674 373 688.5 c 128,-1,37
 333 703 333 703 287 703 c 0,38,39
 250 703 250 703 210.5 694.5 c 128,-1,40
 171 686 171 686 133 660 c 128,-1,41
 95 634 95 634 69.5 582.5 c 128,-1,42
 44 531 44 531 44 451 c 1,43,-1
 132 451 l 1,0,-1
EndSplineSet
Validated: 9
EndChar

StartChar: three
Encoding: 51 51 20
Width: 556
Flags: W
LayerCount: 2
Fore
SplineSet
224 324 m 2,0,1
 227 324 227 324 244 325 c 0,2,3
 261 325 261 325 264 325 c 0,4,5
 293 325 293 325 319.5 321 c 128,-1,6
 346 317 346 317 371 304 c 128,-1,7
 396 291 396 291 412 264.5 c 128,-1,8
 428 238 428 238 428 196 c 0,9,10
 428 136 428 136 385.5 98 c 128,-1,11
 343 60 343 60 275 60 c 0,12,13
 229 60 229 60 199 74 c 128,-1,14
 169 88 169 88 153.5 110.5 c 128,-1,15
 138 133 138 133 132.5 158.5 c 128,-1,16
 127 184 127 184 125 215 c 1,17,-1
 34 215 l 1,18,19
 39 144 39 144 62 92 c 128,-1,20
 85 40 85 40 139 12 c 0,21,22
 198 -19 198 -19 269 -19 c 0,23,24
 334 -19 334 -19 382.5 -0.5 c 128,-1,25
 431 18 431 18 461.5 50 c 128,-1,26
 492 82 492 82 507 122.5 c 128,-1,27
 522 163 522 163 522 207 c 0,28,29
 522 274 522 274 491 313.5 c 128,-1,30
 460 353 460 353 405 371 c 1,31,-1
 405 373 l 1,32,33
 440 384 440 384 467.5 420.5 c 128,-1,34
 495 457 495 457 495 518 c 0,35,36
 495 600 495 600 436.5 651.5 c 128,-1,37
 378 703 378 703 278 703 c 0,38,39
 212 703 212 703 167 682.5 c 128,-1,40
 122 662 122 662 96.5 628.5 c 128,-1,41
 71 595 71 595 61 555.5 c 128,-1,42
 51 516 51 516 51 473 c 1,43,-1
 137 473 l 1,44,-1
 137 473 l 1,45,46
 139 502 139 502 143.5 524 c 128,-1,47
 148 546 148 546 161.5 569.5 c 128,-1,48
 175 593 175 593 202.5 608.5 c 128,-1,49
 230 624 230 624 274 624 c 0,50,51
 311 624 311 624 337 613.5 c 128,-1,52
 363 603 363 603 377.5 586 c 128,-1,53
 392 569 392 569 398 550 c 128,-1,54
 404 531 404 531 404 513 c 0,55,56
 404 452 404 452 366 425 c 128,-1,57
 328 398 328 398 270 398 c 0,58,59
 254 398 254 398 224 400 c 1,60,-1
 224 324 l 2,0,1
EndSplineSet
Validated: 5
EndChar

StartChar: four
Encoding: 52 52 21
Width: 556
Flags: W
LayerCount: 2
Fore
SplineSet
523 171 m 1,0,-1
 523 247 l 1,1,-1
 420 247 l 1,2,-1
 420 703 l 1,3,-1
 347 703 l 1,4,-1
 25 257 l 1,5,-1
 25 171 l 1,6,-1
 332 171 l 1,7,-1
 332 0 l 1,8,-1
 420 0 l 1,9,-1
 420 171 l 1,10,-1
 523 171 l 1,0,-1
330 566 m 1,11,-1
 332 566 l 1,12,-1
 332 247 l 1,13,-1
 106 247 l 1,14,-1
 330 566 l 1,11,-1
EndSplineSet
Validated: 9
EndChar

StartChar: five
Encoding: 53 53 22
Width: 556
Flags: W
LayerCount: 2
Fore
SplineSet
177 602 m 1,0,-1
 475 602 l 1,1,-1
 475 688 l 1,2,-1
 111 688 l 1,3,-1
 58 311 l 1,4,-1
 134 307 l 1,5,6
 159 339 159 339 192.5 356.5 c 128,-1,7
 226 374 226 374 264 374 c 0,8,9
 332 374 332 374 376 332.5 c 128,-1,10
 420 291 420 291 420 218 c 0,11,12
 420 150 420 150 379.5 103.5 c 128,-1,13
 339 57 339 57 272 57 c 0,14,15
 210 57 210 57 170 86.5 c 128,-1,16
 130 116 130 116 123 175 c 1,17,-1
 32 175 l 1,18,19
 38 119 38 119 60.5 80.5 c 128,-1,20
 83 42 83 42 115.5 20.5 c 128,-1,21
 148 -1 148 -1 184.5 -10 c 128,-1,22
 221 -19 221 -19 259 -19 c 0,23,24
 336 -19 336 -19 387.5 6.5 c 128,-1,25
 439 32 439 32 466.5 71.5 c 128,-1,26
 494 111 494 111 504 151.5 c 128,-1,27
 514 192 514 192 514 228 c 0,28,29
 514 281 514 281 494.5 323 c 128,-1,30
 475 365 475 365 442 394 c 128,-1,31
 409 423 409 423 367.5 438 c 128,-1,32
 326 453 326 453 283 453 c 256,33,34
 240 453 240 453 206.5 441 c 128,-1,35
 173 429 173 429 147 409 c 1,36,-1
 177 602 l 1,0,-1
EndSplineSet
Validated: 9
EndChar

StartChar: six
Encoding: 54 54 23
Width: 556
Flags: W
LayerCount: 2
Fore
SplineSet
503 516 m 1,0,1
 500 567 500 567 480 603.5 c 128,-1,2
 460 640 460 640 429.5 662 c 128,-1,3
 399 684 399 684 365 693.5 c 128,-1,4
 331 703 331 703 298 703 c 0,5,6
 223 703 223 703 172 668 c 128,-1,7
 121 633 121 633 91.5 577 c 128,-1,8
 62 521 62 521 50 456.5 c 128,-1,9
 38 392 38 392 38 327 c 0,10,11
 38 252 38 252 50 191 c 128,-1,12
 62 130 62 130 92 83 c 0,13,14
 126 30 126 30 175.5 5.5 c 128,-1,15
 225 -19 225 -19 273 -19 c 0,16,17
 342 -19 342 -19 381 -2 c 128,-1,18
 420 15 420 15 451 49 c 0,19,20
 487 88 487 88 502.5 129.5 c 128,-1,21
 518 171 518 171 518 225 c 0,22,23
 518 285 518 285 497 328 c 128,-1,24
 476 371 476 371 442.5 397.5 c 128,-1,25
 409 424 409 424 371 436 c 128,-1,26
 333 448 333 448 298 448 c 0,27,28
 233 448 233 448 192 422.5 c 128,-1,29
 151 397 151 397 131 362 c 1,30,-1
 129 364 l 1,31,32
 129 398 129 398 136.5 441 c 128,-1,33
 144 484 144 484 162.5 526 c 128,-1,34
 181 568 181 568 214.5 596 c 128,-1,35
 248 624 248 624 296 624 c 0,36,37
 350 624 350 624 379 595 c 128,-1,38
 408 566 408 566 417 516 c 1,39,-1
 503 516 l 1,0,1
141 216 m 0,40,41
 141 282 141 282 178.5 325.5 c 128,-1,42
 216 369 216 369 285 369 c 0,43,44
 324 369 324 369 351.5 355.5 c 128,-1,45
 379 342 379 342 396 319.5 c 128,-1,46
 413 297 413 297 420 272 c 128,-1,47
 427 247 427 247 427 221 c 0,48,49
 427 149 427 149 389.5 104.5 c 128,-1,50
 352 60 352 60 289 60 c 0,51,52
 217 60 217 60 179 106.5 c 128,-1,53
 141 153 141 153 141 216 c 0,40,41
EndSplineSet
Validated: 9
EndChar

StartChar: seven
Encoding: 55 55 24
Width: 556
Flags: W
LayerCount: 2
Fore
SplineSet
37 602 m 1,0,-1
 424 602 l 1,1,2
 374 544 374 544 326 470 c 128,-1,3
 278 396 278 396 238.5 314 c 128,-1,4
 199 232 199 232 172.5 151.5 c 128,-1,5
 146 71 146 71 137 0 c 1,6,-1
 234 0 l 1,7,8
 252 110 252 110 288 209.5 c 128,-1,9
 324 309 324 309 367 387.5 c 128,-1,10
 410 466 410 466 450.5 521.5 c 128,-1,11
 491 577 491 577 523 611 c 1,12,-1
 523 688 l 1,13,-1
 37 688 l 1,14,-1
 37 602 l 1,0,-1
EndSplineSet
Validated: 9
EndChar

StartChar: eight
Encoding: 56 56 25
Width: 556
Flags: W
LayerCount: 2
Fore
SplineSet
492 522 m 0,0,1
 492 554 492 554 479.5 586 c 128,-1,2
 467 618 467 618 440.5 644.5 c 128,-1,3
 414 671 414 671 372.5 687 c 128,-1,4
 331 703 331 703 275 703 c 0,5,6
 216 703 216 703 174 684.5 c 128,-1,7
 132 666 132 666 107.5 636 c 128,-1,8
 83 606 83 606 72.5 573.5 c 128,-1,9
 62 541 62 541 62 510 c 0,10,11
 62 461 62 461 87 425.5 c 128,-1,12
 112 390 112 390 157 373 c 1,13,14
 100 350 100 350 69 307.5 c 128,-1,15
 38 265 38 265 38 202 c 0,16,17
 38 182 38 182 39.5 164.5 c 128,-1,18
 41 147 41 147 47.5 124.5 c 128,-1,19
 54 102 54 102 69.5 78.5 c 128,-1,20
 85 55 85 55 110 35 c 0,21,22
 148 6 148 6 194.5 -6.5 c 128,-1,23
 241 -19 241 -19 279 -19 c 0,24,25
 339 -19 339 -19 384.5 -1 c 128,-1,26
 430 17 430 17 459.5 48.5 c 128,-1,27
 489 80 489 80 503 119.5 c 128,-1,28
 517 159 517 159 517 203 c 0,29,30
 517 226 517 226 512 249 c 128,-1,31
 507 272 507 272 494.5 295 c 128,-1,32
 482 318 482 318 459 339 c 128,-1,33
 436 360 436 360 402 374 c 1,34,35
 419 383 419 383 432.5 392 c 128,-1,36
 446 401 446 401 460 418 c 128,-1,37
 474 435 474 435 483 461 c 128,-1,38
 492 487 492 487 492 522 c 0,0,1
277 330 m 0,39,40
 341 330 341 330 382 295.5 c 128,-1,41
 423 261 423 261 423 193 c 0,42,43
 423 154 423 154 410.5 127.5 c 128,-1,44
 398 101 398 101 378 86.5 c 128,-1,45
 358 72 358 72 333.5 66 c 128,-1,46
 309 60 309 60 282 60 c 0,47,48
 239 60 239 60 209 73 c 128,-1,49
 179 86 179 86 162.5 107.5 c 128,-1,50
 146 129 146 129 139 153 c 128,-1,51
 132 177 132 177 132 200 c 0,52,53
 132 253 132 253 169.5 291.5 c 128,-1,54
 207 330 207 330 277 330 c 0,39,40
276 406 m 0,55,56
 226 406 226 406 189.5 436 c 128,-1,57
 153 466 153 466 153 514 c 0,58,59
 153 533 153 533 158.5 552 c 128,-1,60
 164 571 164 571 177 587.5 c 128,-1,61
 190 604 190 604 213.5 614 c 128,-1,62
 237 624 237 624 270 624 c 0,63,64
 307 624 307 624 332.5 614 c 128,-1,65
 358 604 358 604 373 588.5 c 128,-1,66
 388 573 388 573 394.5 555 c 128,-1,67
 401 537 401 537 401 519 c 0,68,69
 401 470 401 470 366.5 438 c 128,-1,70
 332 406 332 406 276 406 c 0,55,56
EndSplineSet
Validated: 9
EndChar

StartChar: nine
Encoding: 57 57 26
Width: 556
Flags: W
LayerCount: 2
Fore
SplineSet
263 235 m 0,0,1
 314 235 314 235 359.5 257.5 c 128,-1,2
 405 280 405 280 424 319 c 1,3,-1
 426 317 l 1,4,5
 410 180 410 180 369.5 117 c 128,-1,6
 329 54 329 54 257 54 c 0,7,8
 204 54 204 54 173 84.5 c 128,-1,9
 142 115 142 115 138 169 c 1,10,-1
 50 169 l 1,11,12
 50 140 50 140 60.5 108.5 c 128,-1,13
 71 77 71 77 95 47.5 c 128,-1,14
 119 18 119 18 160 -0.5 c 128,-1,15
 201 -19 201 -19 259 -19 c 0,16,17
 343 -19 343 -19 396 28 c 128,-1,18
 449 75 449 75 474 142.5 c 128,-1,19
 499 210 499 210 506.5 270.5 c 128,-1,20
 514 331 514 331 514 377 c 0,21,22
 514 432 514 432 506 485 c 128,-1,23
 498 538 498 538 473 588 c 128,-1,24
 448 638 448 638 397.5 670.5 c 128,-1,25
 347 703 347 703 268 703 c 0,26,27
 214 703 214 703 171.5 684 c 128,-1,28
 129 665 129 665 100 631.5 c 128,-1,29
 71 598 71 598 56.5 554 c 128,-1,30
 42 510 42 510 42 462 c 0,31,32
 42 358 42 358 103.5 296.5 c 128,-1,33
 165 235 165 235 263 235 c 0,0,1
276 314 m 0,34,35
 250 314 250 314 226 319.5 c 128,-1,36
 202 325 202 325 180.5 341 c 128,-1,37
 159 357 159 357 146 387.5 c 128,-1,38
 133 418 133 418 133 466 c 0,39,40
 133 537 133 537 170.5 580.5 c 128,-1,41
 208 624 208 624 269 624 c 0,42,43
 340 624 340 624 375.5 581.5 c 128,-1,44
 411 539 411 539 411 474 c 0,45,46
 411 425 411 425 397.5 393 c 128,-1,47
 384 361 384 361 363 344 c 128,-1,48
 342 327 342 327 319.5 320.5 c 128,-1,49
 297 314 297 314 276 314 c 0,34,35
EndSplineSet
Validated: 9
EndChar

StartChar: colon
Encoding: 58 58 27
Width: 278
Flags: W
LayerCount: 2
Fore
SplineSet
191 106 m 1,0,-1
 87 106 l 1,1,-1
 87 0 l 1,2,-1
 191 0 l 1,3,-1
 191 106 l 1,0,-1
191 516 m 1,4,-1
 87 516 l 1,5,-1
 87 410 l 1,6,-1
 191 410 l 1,7,-1
 191 516 l 1,4,-1
EndSplineSet
Validated: 9
EndChar

StartChar: semicolon
Encoding: 59 59 28
Width: 278
Flags: W
LayerCount: 2
Fore
SplineSet
87 0 m 1,0,-1
 140 0 l 1,1,2
 140 -41 140 -41 128 -69.5 c 128,-1,3
 116 -98 116 -98 87 -101 c 1,4,-1
 87 -147 l 1,5,6
 100 -145 100 -145 115.5 -139.5 c 128,-1,7
 131 -134 131 -134 149 -117.5 c 128,-1,8
 167 -101 167 -101 179 -70 c 128,-1,9
 191 -39 191 -39 191 8 c 2,10,-1
 191 106 l 1,11,-1
 87 106 l 1,12,-1
 87 0 l 1,0,-1
191 410 m 1,13,-1
 191 516 l 1,14,-1
 87 516 l 1,15,-1
 87 410 l 1,16,-1
 191 410 l 1,13,-1
EndSplineSet
Validated: 9
EndChar

StartChar: less
Encoding: 60 60 29
Width: 584
Flags: W
LayerCount: 2
Fore
SplineSet
536 91 m 1,0,-1
 146 253 l 1,1,-1
 536 415 l 1,2,-1
 536 495 l 1,3,-1
 48 288 l 1,4,-1
 48 218 l 1,5,-1
 536 11 l 1,6,-1
 536 91 l 1,0,-1
EndSplineSet
Validated: 9
EndChar

StartChar: equal
Encoding: 61 61 30
Width: 584
Flags: W
LayerCount: 2
Fore
SplineSet
545 390 m 1,0,-1
 39 390 l 1,1,-1
 39 317 l 1,2,-1
 545 317 l 1,3,-1
 545 390 l 1,0,-1
545 188 m 1,4,-1
 39 188 l 1,5,-1
 39 115 l 1,6,-1
 545 115 l 1,7,-1
 545 188 l 1,4,-1
EndSplineSet
Validated: 9
EndChar

StartChar: greater
Encoding: 62 62 31
Width: 584
Flags: W
LayerCount: 2
Fore
SplineSet
48 415 m 1,0,-1
 438 253 l 1,1,-1
 48 91 l 1,2,-1
 48 11 l 1,3,-1
 536 218 l 1,4,-1
 536 288 l 1,5,-1
 48 495 l 1,6,-1
 48 415 l 1,0,-1
EndSplineSet
Validated: 9
EndChar

StartChar: question
Encoding: 63 63 32
Width: 556
Flags: W
LayerCount: 2
Fore
SplineSet
144 493 m 1,0,1
 144 517 144 517 147.5 541.5 c 128,-1,2
 151 566 151 566 164 591.5 c 128,-1,3
 177 617 177 617 204.5 634 c 128,-1,4
 232 651 232 651 277 651 c 0,5,6
 311 651 311 651 335 640 c 128,-1,7
 359 629 359 629 372.5 611.5 c 128,-1,8
 386 594 386 594 392 574.5 c 128,-1,9
 398 555 398 555 398 537 c 0,10,11
 398 515 398 515 394.5 500.5 c 128,-1,12
 391 486 391 486 383.5 473 c 128,-1,13
 376 460 376 460 362.5 445 c 128,-1,14
 349 430 349 430 320 400 c 2,15,-1
 318 398 l 2,16,17
 288 367 288 367 271 347 c 128,-1,18
 254 327 254 327 243.5 305 c 128,-1,19
 233 283 233 283 228 254 c 128,-1,20
 223 225 223 225 223 183 c 1,21,-1
 311 183 l 1,22,23
 311 220 311 220 316 244.5 c 128,-1,24
 321 269 321 269 330.5 287.5 c 128,-1,25
 340 306 340 306 354 321.5 c 128,-1,26
 368 337 368 337 395 363 c 2,27,-1
 398 366 l 2,28,29
 452 418 452 418 472 451 c 128,-1,30
 492 484 492 484 492 531 c 0,31,32
 492 623 492 623 430.5 675 c 128,-1,33
 369 727 369 727 280 727 c 0,34,35
 194 727 194 727 135 681 c 0,36,37
 86 643 86 643 72.5 601.5 c 128,-1,38
 59 560 59 560 56 493 c 1,39,-1
 144 493 l 1,0,1
318 102 m 1,40,-1
 221 102 l 1,41,-1
 221 0 l 1,42,-1
 318 0 l 1,43,-1
 318 102 l 1,40,-1
EndSplineSet
Validated: 9
EndChar

StartChar: at
Encoding: 64 64 33
Width: 1015
Flags: W
LayerCount: 2
Fore
SplineSet
611 408 m 0,0,1
 611 378 611 378 599.5 343 c 128,-1,2
 588 308 588 308 567.5 277 c 128,-1,3
 547 246 547 246 519.5 227 c 128,-1,4
 492 208 492 208 462 208 c 0,5,6
 425 208 425 208 401.5 235 c 128,-1,7
 378 262 378 262 378 305 c 0,8,9
 378 336 378 336 389 370.5 c 128,-1,10
 400 405 400 405 420.5 434.5 c 128,-1,11
 441 464 441 464 469 482 c 128,-1,12
 497 500 497 500 529 500 c 0,13,14
 562 500 562 500 586.5 472.5 c 128,-1,15
 611 445 611 445 611 408 c 0,0,1
642 494 m 1,16,17
 623 535 623 535 594 553.5 c 128,-1,18
 565 572 565 572 527 572 c 0,19,20
 477 572 477 572 434 548.5 c 128,-1,21
 391 525 391 525 360 485.5 c 128,-1,22
 329 446 329 446 312.5 396.5 c 128,-1,23
 296 347 296 347 296 296 c 0,24,25
 296 230 296 230 338 183 c 128,-1,26
 380 136 380 136 443 136 c 0,27,28
 476 136 476 136 507 153.5 c 128,-1,29
 538 171 538 171 563 198 c 1,30,-1
 565 199 l 1,31,32
 566 168 566 168 584 152 c 128,-1,33
 602 136 602 136 629 136 c 0,34,35
 663 136 663 136 704.5 156 c 128,-1,36
 746 176 746 176 783.5 214.5 c 128,-1,37
 821 253 821 253 844.5 307 c 128,-1,38
 868 361 868 361 868 425 c 0,39,40
 868 492 868 492 841 549.5 c 128,-1,41
 814 607 814 607 766 649 c 128,-1,42
 718 691 718 691 655.5 714 c 128,-1,43
 593 737 593 737 524 737 c 0,44,45
 448 737 448 737 379.5 708 c 128,-1,46
 311 679 311 679 258.5 627 c 128,-1,47
 206 575 206 575 176.5 506.5 c 128,-1,48
 147 438 147 438 147 361 c 0,49,50
 147 283 147 283 176 213 c 128,-1,51
 205 143 205 143 257.5 91 c 128,-1,52
 310 39 310 39 380 10 c 128,-1,53
 450 -19 450 -19 529 -19 c 0,54,55
 625 -19 625 -19 708.5 28 c 128,-1,56
 792 75 792 75 841 157 c 1,57,-1
 774 157 l 1,58,59
 731 105 731 105 666 74 c 128,-1,60
 601 43 601 43 531 43 c 0,61,62
 466 43 466 43 409.5 66.5 c 128,-1,63
 353 90 353 90 310 132.5 c 128,-1,64
 267 175 267 175 243.5 232.5 c 128,-1,65
 220 290 220 290 220 355 c 0,66,67
 220 421 220 421 242 479 c 128,-1,68
 264 537 264 537 305 581.5 c 128,-1,69
 346 626 346 626 402 650.5 c 128,-1,70
 458 675 458 675 524 675 c 0,71,72
 581 675 581 675 631.5 657 c 128,-1,73
 682 639 682 639 720.5 605.5 c 128,-1,74
 759 572 759 572 781 524 c 128,-1,75
 803 476 803 476 803 417 c 0,76,77
 803 378 803 378 791 339.5 c 128,-1,78
 779 301 779 301 758 269.5 c 128,-1,79
 737 238 737 238 711.5 219.5 c 128,-1,80
 686 201 686 201 661 201 c 0,81,82
 640 201 640 201 640 230 c 0,83,84
 640 241 640 241 651.5 282.5 c 128,-1,85
 663 324 663 324 683 392 c 0,86,87
 700 449 700 449 709.5 481.5 c 128,-1,88
 719 514 719 514 730 556 c 1,89,-1
 662 556 l 1,90,-1
 642 494 l 1,16,17
EndSplineSet
Validated: 9
EndChar

StartChar: A
Encoding: 65 65 34
Width: 667
Flags: W
LayerCount: 2
Fore
SplineSet
477 209 m 1,0,-1
 548 0 l 1,1,-1
 654 0 l 1,2,-1
 394 718 l 1,3,-1
 284 718 l 1,4,-1
 14 0 l 1,5,-1
 114 0 l 1,6,-1
 189 209 l 1,7,-1
 477 209 l 1,0,-1
219 295 m 1,8,-1
 334 611 l 1,9,-1
 336 611 l 1,10,-1
 442 295 l 1,11,-1
 219 295 l 1,8,-1
EndSplineSet
Validated: 9
EndChar

StartChar: B
Encoding: 66 66 35
Width: 667
Flags: W
LayerCount: 2
Fore
SplineSet
171 635 m 1,0,-1
 347 635 l 2,1,2
 426 635 426 635 461 608.5 c 128,-1,3
 496 582 496 582 496 530 c 0,4,5
 496 467 496 467 458 440.5 c 128,-1,6
 420 414 420 414 346 414 c 2,7,-1
 171 414 l 1,8,-1
 171 635 l 1,0,-1
74 0 m 1,9,-1
 383 0 l 2,10,11
 498 0 498 0 562.5 61 c 128,-1,12
 627 122 627 122 627 212 c 0,13,14
 627 255 627 255 614.5 286 c 128,-1,15
 602 317 602 317 582.5 336 c 128,-1,16
 563 355 563 355 543.5 365.5 c 128,-1,17
 524 376 524 376 498 387 c 1,18,-1
 497 387 l 1,19,20
 551 412 551 412 572 452.5 c 128,-1,21
 593 493 593 493 593 537 c 0,22,23
 593 615 593 615 539.5 666.5 c 128,-1,24
 486 718 486 718 390 718 c 2,25,-1
 74 718 l 1,26,-1
 74 0 l 1,9,-1
171 335 m 1,27,-1
 362 335 l 2,28,29
 396 335 396 335 424.5 330 c 128,-1,30
 453 325 453 325 477 311.5 c 128,-1,31
 501 298 501 298 515.5 274 c 128,-1,32
 530 250 530 250 530 214 c 0,33,34
 530 153 530 153 491 118 c 128,-1,35
 452 83 452 83 378 83 c 2,36,-1
 171 83 l 1,37,-1
 171 335 l 1,27,-1
EndSplineSet
Validated: 9
EndChar

StartChar: C
Encoding: 67 67 36
Width: 722
Flags: W
LayerCount: 2
Fore
SplineSet
674 502 m 1,0,1
 669 548 669 548 647.5 590.5 c 128,-1,2
 626 633 626 633 589 666 c 128,-1,3
 552 699 552 699 499 718 c 128,-1,4
 446 737 446 737 379 737 c 0,5,6
 302 737 302 737 239.5 710 c 128,-1,7
 177 683 177 683 133.5 633.5 c 128,-1,8
 90 584 90 584 67 515 c 128,-1,9
 44 446 44 446 44 363 c 0,10,11
 44 263 44 263 70.5 189.5 c 128,-1,12
 97 116 97 116 142.5 70.5 c 128,-1,13
 188 25 188 25 245.5 3 c 128,-1,14
 303 -19 303 -19 367 -19 c 0,15,16
 401 -19 401 -19 443.5 -11 c 128,-1,17
 486 -3 486 -3 536 24.5 c 128,-1,18
 586 52 586 52 626.5 111 c 128,-1,19
 667 170 667 170 681 264 c 1,20,-1
 587 264 l 1,21,22
 576 205 576 205 552 165.5 c 128,-1,23
 528 126 528 126 498.5 104.5 c 128,-1,24
 469 83 469 83 439.5 75 c 128,-1,25
 410 67 410 67 382 67 c 0,26,27
 317 67 317 67 271 89.5 c 128,-1,28
 225 112 225 112 197 152 c 128,-1,29
 169 192 169 192 156.5 246 c 128,-1,30
 144 300 144 300 144 366 c 0,31,32
 144 502 144 502 210.5 576.5 c 128,-1,33
 277 651 277 651 379 651 c 0,34,35
 409 651 409 651 439 645 c 128,-1,36
 469 639 469 639 497.5 622.5 c 128,-1,37
 526 606 526 606 548 576.5 c 128,-1,38
 570 547 570 547 580 502 c 1,39,-1
 674 502 l 1,0,1
EndSplineSet
Validated: 9
EndChar

StartChar: D
Encoding: 68 68 37
Width: 722
Flags: W
LayerCount: 2
Fore
SplineSet
81 0 m 1,0,-1
 368 0 l 2,1,2
 452 0 452 0 512 33 c 128,-1,3
 572 66 572 66 607.5 120.5 c 128,-1,4
 643 175 643 175 658.5 239.5 c 128,-1,5
 674 304 674 304 674 369 c 0,6,7
 674 446 674 446 653 510.5 c 128,-1,8
 632 575 632 575 593 621.5 c 128,-1,9
 554 668 554 668 497.5 693 c 128,-1,10
 441 718 441 718 372 718 c 2,11,-1
 81 718 l 1,12,-1
 81 0 l 1,0,-1
178 635 m 1,13,-1
 359 635 l 2,14,15
 460 635 460 635 517 565.5 c 128,-1,16
 574 496 574 496 574 363 c 256,17,18
 574 230 574 230 518 156.5 c 128,-1,19
 462 83 462 83 366 83 c 2,20,-1
 178 83 l 1,21,-1
 178 635 l 1,13,-1
EndSplineSet
Validated: 9
EndChar

StartChar: E
Encoding: 69 69 38
Width: 667
Flags: W
LayerCount: 2
Fore
SplineSet
616 86 m 1,0,-1
 183 86 l 1,1,-1
 183 326 l 1,2,-1
 576 326 l 1,3,-1
 576 412 l 1,4,-1
 183 412 l 1,5,-1
 183 632 l 1,6,-1
 609 632 l 1,7,-1
 609 718 l 1,8,-1
 86 718 l 1,9,-1
 86 0 l 1,10,-1
 616 0 l 1,11,-1
 616 86 l 1,0,-1
EndSplineSet
Validated: 9
EndChar

StartChar: F
Encoding: 70 70 39
Width: 611
Flags: W
LayerCount: 2
Fore
SplineSet
183 326 m 1,0,-1
 535 326 l 1,1,-1
 535 412 l 1,2,-1
 183 412 l 1,3,-1
 183 632 l 1,4,-1
 583 632 l 1,5,-1
 583 718 l 1,6,-1
 86 718 l 1,7,-1
 86 0 l 1,8,-1
 183 0 l 1,9,-1
 183 326 l 1,0,-1
EndSplineSet
Validated: 9
EndChar

StartChar: G
Encoding: 71 71 40
Width: 778
Flags: W
LayerCount: 2
Fore
SplineSet
389 301 m 1,0,-1
 613 301 l 1,1,2
 613 238 613 238 595.5 191.5 c 128,-1,3
 578 145 578 145 534 110 c 0,4,5
 499 82 499 82 461.5 73 c 128,-1,6
 424 64 424 64 387 64 c 0,7,8
 319 64 319 64 271.5 88.5 c 128,-1,9
 224 113 224 113 197.5 155 c 128,-1,10
 171 197 171 197 159.5 249 c 128,-1,11
 148 301 148 301 148 360 c 0,12,13
 148 429 148 429 166 483.5 c 128,-1,14
 184 538 184 538 216.5 575.5 c 128,-1,15
 249 613 249 613 291.5 632 c 128,-1,16
 334 651 334 651 383 651 c 0,17,18
 416 651 416 651 448.5 644.5 c 128,-1,19
 481 638 481 638 511 621.5 c 128,-1,20
 541 605 541 605 564 575 c 128,-1,21
 587 545 587 545 598 500 c 1,22,-1
 692 500 l 1,23,24
 685 558 685 558 656 603 c 128,-1,25
 627 648 627 648 584 678 c 128,-1,26
 541 708 541 708 490 722.5 c 128,-1,27
 439 737 439 737 388 737 c 0,28,29
 304 737 304 737 239 705 c 128,-1,30
 174 673 174 673 132 619 c 128,-1,31
 90 565 90 565 69 499 c 128,-1,32
 48 433 48 433 48 365 c 0,33,34
 48 326 48 326 51 292.5 c 128,-1,35
 54 259 54 259 64.5 220 c 128,-1,36
 75 181 75 181 98.5 140 c 128,-1,37
 122 99 122 99 161 62 c 0,38,39
 197 27 197 27 248 4 c 128,-1,40
 299 -19 299 -19 381 -19 c 0,41,42
 454 -19 454 -19 517.5 11.5 c 128,-1,43
 581 42 581 42 618 93 c 1,44,-1
 641 0 l 1,45,-1
 704 0 l 1,46,-1
 704 384 l 1,47,-1
 389 384 l 1,48,-1
 389 301 l 1,0,-1
EndSplineSet
Validated: 9
EndChar

StartChar: H
Encoding: 72 72 41
Width: 722
Flags: W
LayerCount: 2
Fore
SplineSet
549 421 m 1,0,-1
 174 421 l 1,1,-1
 174 718 l 1,2,-1
 77 718 l 1,3,-1
 77 0 l 1,4,-1
 174 0 l 1,5,-1
 174 335 l 1,6,-1
 549 335 l 1,7,-1
 549 0 l 1,8,-1
 646 0 l 1,9,-1
 646 718 l 1,10,-1
 549 718 l 1,11,-1
 549 421 l 1,0,-1
EndSplineSet
Validated: 9
EndChar

StartChar: I
Encoding: 73 73 42
Width: 278
Flags: W
LayerCount: 2
Fore
SplineSet
188 718 m 1,0,-1
 91 718 l 1,1,-1
 91 0 l 1,2,-1
 188 0 l 1,3,-1
 188 718 l 1,0,-1
EndSplineSet
Validated: 9
EndChar

StartChar: J
Encoding: 74 74 43
Width: 500
Flags: W
LayerCount: 2
Fore
SplineSet
17 231 m 1,0,-1
 17 160 l 2,1,2
 17 131 17 131 26.5 100.5 c 128,-1,3
 36 70 36 70 58.5 43 c 128,-1,4
 81 16 81 16 121.5 -1.5 c 128,-1,5
 162 -19 162 -19 221 -19 c 0,6,7
 260 -19 260 -19 296.5 -8.5 c 128,-1,8
 333 2 333 2 362.5 26 c 128,-1,9
 392 50 392 50 410 92 c 128,-1,10
 428 134 428 134 428 194 c 2,11,-1
 428 718 l 1,12,-1
 331 718 l 1,13,-1
 331 188 l 2,14,15
 331 130 331 130 305 97 c 128,-1,16
 279 64 279 64 216 64 c 0,17,18
 163 64 163 64 135.5 91.5 c 128,-1,19
 108 119 108 119 108 181 c 2,20,-1
 108 231 l 1,21,-1
 17 231 l 1,0,-1
EndSplineSet
Validated: 9
EndChar

StartChar: K
Encoding: 75 75 44
Width: 667
Flags: W
LayerCount: 2
Fore
SplineSet
173 252 m 1,0,-1
 286 360 l 1,1,-1
 537 0 l 1,2,-1
 663 0 l 1,3,-1
 356 428 l 1,4,-1
 655 718 l 1,5,-1
 521 718 l 1,6,-1
 173 370 l 1,7,-1
 173 718 l 1,8,-1
 76 718 l 1,9,-1
 76 0 l 1,10,-1
 173 0 l 1,11,-1
 173 252 l 1,0,-1
EndSplineSet
Validated: 9
EndChar

StartChar: L
Encoding: 76 76 45
Width: 556
Flags: W
LayerCount: 2
Fore
SplineSet
173 718 m 1,0,-1
 76 718 l 1,1,-1
 76 0 l 1,2,-1
 537 0 l 1,3,-1
 537 86 l 1,4,-1
 173 86 l 1,5,-1
 173 718 l 1,0,-1
EndSplineSet
Validated: 9
EndChar

StartChar: M
Encoding: 77 77 46
Width: 833
Flags: W
LayerCount: 2
Fore
SplineSet
761 0 m 1,0,-1
 761 718 l 1,1,-1
 623 718 l 1,2,-1
 419 111 l 1,3,-1
 417 111 l 1,4,-1
 212 718 l 1,5,-1
 73 718 l 1,6,-1
 73 0 l 1,7,-1
 167 0 l 1,8,-1
 167 424 l 2,9,10
 167 427 167 427 166 470 c 0,11,12
 165 558 165 558 165 602 c 1,13,-1
 167 602 l 1,14,-1
 369 0 l 1,15,-1
 465 0 l 1,16,-1
 667 603 l 1,17,-1
 669 603 l 1,18,19
 669 558 669 558 668 469 c 0,20,21
 667 427 667 427 667 424 c 2,22,-1
 667 0 l 1,23,-1
 761 0 l 1,0,-1
EndSplineSet
Validated: 9
EndChar

StartChar: N
Encoding: 78 78 47
Width: 722
Flags: W
LayerCount: 2
Fore
SplineSet
552 138 m 1,0,-1
 550 138 l 1,1,-1
 191 718 l 1,2,-1
 76 718 l 1,3,-1
 76 0 l 1,4,-1
 170 0 l 1,5,-1
 170 580 l 1,6,-1
 172 580 l 1,7,-1
 537 0 l 1,8,-1
 646 0 l 1,9,-1
 646 718 l 1,10,-1
 552 718 l 1,11,-1
 552 138 l 1,0,-1
EndSplineSet
Validated: 9
EndChar

StartChar: O
Encoding: 79 79 48
Width: 778
Flags: W
LayerCount: 2
Fore
SplineSet
639 359 m 0,0,1
 639 296 639 296 622 242.5 c 128,-1,2
 605 189 605 189 572.5 149.5 c 128,-1,3
 540 110 540 110 493.5 88.5 c 128,-1,4
 447 67 447 67 389 67 c 256,5,6
 331 67 331 67 284.5 88.5 c 128,-1,7
 238 110 238 110 205.5 149 c 128,-1,8
 173 188 173 188 156 242 c 128,-1,9
 139 296 139 296 139 359 c 0,10,11
 139 423 139 423 156 476 c 128,-1,12
 173 529 173 529 205.5 568.5 c 128,-1,13
 238 608 238 608 284.5 629.5 c 128,-1,14
 331 651 331 651 389 651 c 256,15,16
 447 651 447 651 493.5 629.5 c 128,-1,17
 540 608 540 608 572.5 569 c 128,-1,18
 605 530 605 530 622 476.5 c 128,-1,19
 639 423 639 423 639 359 c 0,0,1
739 359 m 256,20,21
 739 422 739 422 721 487.5 c 128,-1,22
 703 553 703 553 662 610 c 128,-1,23
 621 667 621 667 552.5 702 c 128,-1,24
 484 737 484 737 389 737 c 256,25,26
 294 737 294 737 225.5 702 c 128,-1,27
 157 667 157 667 116.5 610 c 128,-1,28
 76 553 76 553 57.5 487.5 c 128,-1,29
 39 422 39 422 39 359 c 256,30,31
 39 296 39 296 57 230.5 c 128,-1,32
 75 165 75 165 116 108 c 128,-1,33
 157 51 157 51 225.5 16 c 128,-1,34
 294 -19 294 -19 389 -19 c 256,35,36
 484 -19 484 -19 552.5 16 c 128,-1,37
 621 51 621 51 662 108 c 128,-1,38
 703 165 703 165 721 230.5 c 128,-1,39
 739 296 739 296 739 359 c 256,20,21
EndSplineSet
Validated: 9
EndChar

StartChar: P
Encoding: 80 80 49
Width: 667
Flags: W
LayerCount: 2
Fore
SplineSet
183 635 m 1,0,-1
 380 635 l 2,1,2
 446 635 446 635 484 607 c 128,-1,3
 522 579 522 579 522 515 c 0,4,5
 522 446 522 446 484 416 c 128,-1,6
 446 386 446 386 376 386 c 2,7,-1
 183 386 l 1,8,-1
 183 635 l 1,0,-1
183 303 m 1,9,-1
 409 303 l 2,10,11
 465 303 465 303 506 321.5 c 128,-1,12
 547 340 547 340 572.5 370.5 c 128,-1,13
 598 401 598 401 610 438.5 c 128,-1,14
 622 476 622 476 622 516 c 0,15,16
 622 605 622 605 564.5 661.5 c 128,-1,17
 507 718 507 718 409 718 c 2,18,-1
 86 718 l 1,19,-1
 86 0 l 1,20,-1
 183 0 l 1,21,-1
 183 303 l 1,9,-1
EndSplineSet
Validated: 9
EndChar

StartChar: Q
Encoding: 81 81 50
Width: 778
Flags: W
LayerCount: 2
Fore
SplineSet
420 148 m 1,0,-1
 495 90 l 1,1,2
 449 67 449 67 389 67 c 0,3,4
 331 67 331 67 284.5 88.5 c 128,-1,5
 238 110 238 110 205.5 149 c 128,-1,6
 173 188 173 188 156 242 c 128,-1,7
 139 296 139 296 139 359 c 0,8,9
 139 423 139 423 156 476 c 128,-1,10
 173 529 173 529 205.5 568.5 c 128,-1,11
 238 608 238 608 284.5 629.5 c 128,-1,12
 331 651 331 651 389 651 c 256,13,14
 447 651 447 651 493.5 629.5 c 128,-1,15
 540 608 540 608 572.5 569 c 128,-1,16
 605 530 605 530 622 476.5 c 128,-1,17
 639 423 639 423 639 359 c 0,18,19
 639 290 639 290 618.5 232.5 c 128,-1,20
 598 175 598 175 560 137 c 1,21,-1
 469 208 l 1,22,-1
 420 148 l 1,0,-1
733 2 m 1,23,-1
 635 78 l 1,24,25
 688 132 688 132 713.5 207.5 c 128,-1,26
 739 283 739 283 739 359 c 0,27,28
 739 422 739 422 721 487.5 c 128,-1,29
 703 553 703 553 662 610 c 128,-1,30
 621 667 621 667 552.5 702 c 128,-1,31
 484 737 484 737 389 737 c 256,32,33
 294 737 294 737 225.5 702 c 128,-1,34
 157 667 157 667 116.5 610 c 128,-1,35
 76 553 76 553 57.5 487.5 c 128,-1,36
 39 422 39 422 39 359 c 256,37,38
 39 296 39 296 57 230.5 c 128,-1,39
 75 165 75 165 116 108 c 128,-1,40
 157 51 157 51 225.5 16 c 128,-1,41
 294 -19 294 -19 389 -19 c 0,42,43
 499 -19 499 -19 574 29 c 1,44,-1
 684 -56 l 1,45,-1
 733 2 l 1,23,-1
EndSplineSet
Validated: 9
EndChar

StartChar: R
Encoding: 82 82 51
Width: 722
Flags: W
LayerCount: 2
Fore
SplineSet
185 308 m 1,0,-1
 420 308 l 2,1,2
 461 308 461 308 487 297 c 128,-1,3
 513 286 513 286 526.5 267.5 c 128,-1,4
 540 249 540 249 544 227.5 c 128,-1,5
 548 206 548 206 548 180 c 0,6,7
 548 167 548 167 549 142 c 128,-1,8
 550 117 550 117 551.5 91.5 c 128,-1,9
 553 66 553 66 556.5 40.5 c 128,-1,10
 560 15 560 15 565 0 c 1,11,-1
 684 0 l 1,12,-1
 684 16 l 1,13,14
 662 28 662 28 655.5 42.5 c 128,-1,15
 649 57 649 57 648 88 c 2,16,-1
 642 218 l 2,17,18
 641 254 641 254 633.5 277.5 c 128,-1,19
 626 301 626 301 614 315.5 c 128,-1,20
 602 330 602 330 589 337.5 c 128,-1,21
 576 345 576 345 556 353 c 1,22,23
 577 365 577 365 593.5 378.5 c 128,-1,24
 610 392 610 392 624.5 411.5 c 128,-1,25
 639 431 639 431 647.5 459 c 128,-1,26
 656 487 656 487 656 525 c 0,27,28
 656 580 656 580 636.5 617.5 c 128,-1,29
 617 655 617 655 584 677 c 128,-1,30
 551 699 551 699 509 708.5 c 128,-1,31
 467 718 467 718 420 718 c 2,32,-1
 88 718 l 1,33,-1
 88 0 l 1,34,-1
 185 0 l 1,35,-1
 185 308 l 1,0,-1
185 635 m 1,36,-1
 427 635 l 2,37,38
 450 635 450 635 471 631 c 128,-1,39
 492 627 492 627 511.5 615 c 128,-1,40
 531 603 531 603 543.5 578.5 c 128,-1,41
 556 554 556 554 556 515 c 0,42,43
 556 477 556 477 544 452 c 128,-1,44
 532 427 532 427 511 414 c 128,-1,45
 490 401 490 401 465 396 c 128,-1,46
 440 391 440 391 410 391 c 2,47,-1
 185 391 l 1,48,-1
 185 635 l 1,36,-1
EndSplineSet
Validated: 9
EndChar

StartChar: S
Encoding: 83 83 52
Width: 667
Flags: W
LayerCount: 2
Fore
SplineSet
600 508 m 1,0,1
 598 547 598 547 588 584 c 128,-1,2
 578 621 578 621 549.5 656 c 128,-1,3
 521 691 521 691 464.5 714 c 128,-1,4
 408 737 408 737 320 737 c 0,5,6
 257 737 257 737 209.5 719 c 128,-1,7
 162 701 162 701 132 669.5 c 128,-1,8
 102 638 102 638 87.5 598 c 128,-1,9
 73 558 73 558 73 515 c 0,10,11
 73 471 73 471 89 440 c 128,-1,12
 105 409 105 409 129 390 c 128,-1,13
 153 371 153 371 177.5 361.5 c 128,-1,14
 202 352 202 352 226 346 c 2,15,-1
 373 312 l 2,16,17
 420 301 420 301 448.5 290.5 c 128,-1,18
 477 280 477 280 494 266 c 128,-1,19
 511 252 511 252 518.5 233 c 128,-1,20
 526 214 526 214 526 185 c 0,21,22
 526 149 526 149 507.5 124.5 c 128,-1,23
 489 100 489 100 460.5 87 c 128,-1,24
 432 74 432 74 400.5 69 c 128,-1,25
 369 64 369 64 338 64 c 0,26,27
 301 64 301 64 266.5 72.5 c 128,-1,28
 232 81 232 81 203 100.5 c 128,-1,29
 174 120 174 120 157 153 c 128,-1,30
 140 186 140 186 140 232 c 1,31,-1
 49 232 l 1,32,33
 49 175 49 175 64 131.5 c 128,-1,34
 79 88 79 88 122 50 c 0,35,36
 138 36 138 36 154.5 25 c 128,-1,37
 171 14 171 14 195.5 4 c 128,-1,38
 220 -6 220 -6 256 -12.5 c 128,-1,39
 292 -19 292 -19 339 -19 c 0,40,41
 390 -19 390 -19 438.5 -8 c 128,-1,42
 487 3 487 3 528.5 27.5 c 128,-1,43
 570 52 570 52 595 95 c 128,-1,44
 620 138 620 138 620 198 c 0,45,46
 620 279 620 279 576 325.5 c 128,-1,47
 532 372 532 372 457 390 c 2,48,-1
 252 437 l 2,49,50
 214 446 214 446 190.5 466.5 c 128,-1,51
 167 487 167 487 167 528 c 0,52,53
 167 567 167 567 183 592 c 128,-1,54
 199 617 199 617 224 630.5 c 128,-1,55
 249 644 249 644 276 649 c 128,-1,56
 303 654 303 654 331 654 c 0,57,58
 363 654 363 654 393.5 646.5 c 128,-1,59
 424 639 424 639 449.5 622 c 128,-1,60
 475 605 475 605 491 576.5 c 128,-1,61
 507 548 507 548 509 508 c 1,62,-1
 600 508 l 1,0,1
EndSplineSet
Validated: 9
EndChar

StartChar: T
Encoding: 84 84 53
Width: 611
Flags: W
LayerCount: 2
Fore
SplineSet
14 632 m 1,0,-1
 257 632 l 1,1,-1
 257 0 l 1,2,-1
 354 0 l 1,3,-1
 354 632 l 1,4,-1
 597 632 l 1,5,-1
 597 718 l 1,6,-1
 14 718 l 1,7,-1
 14 632 l 1,0,-1
EndSplineSet
Validated: 9
EndChar

StartChar: U
Encoding: 85 85 54
Width: 722
Flags: W
LayerCount: 2
Fore
SplineSet
547 718 m 1,0,-1
 547 264 l 2,1,2
 547 208 547 208 531 169.5 c 128,-1,3
 515 131 515 131 488 108.5 c 128,-1,4
 461 86 461 86 428 76.5 c 128,-1,5
 395 67 395 67 358 67 c 0,6,7
 323 67 323 67 291 77 c 128,-1,8
 259 87 259 87 233 109.5 c 128,-1,9
 207 132 207 132 191.5 171 c 128,-1,10
 176 210 176 210 176 266 c 2,11,-1
 176 718 l 1,12,-1
 79 718 l 1,13,-1
 79 239 l 2,14,15
 79 187 79 187 95.5 141 c 128,-1,16
 112 95 112 95 146 58.5 c 128,-1,17
 180 22 180 22 232.5 1.5 c 128,-1,18
 285 -19 285 -19 355 -19 c 0,19,20
 427 -19 427 -19 481.5 2 c 128,-1,21
 536 23 536 23 572.5 60.5 c 128,-1,22
 609 98 609 98 626.5 147 c 128,-1,23
 644 196 644 196 644 252 c 2,24,-1
 644 718 l 1,25,-1
 547 718 l 1,0,-1
EndSplineSet
Validated: 9
EndChar

StartChar: V
Encoding: 86 86 55
Width: 667
Flags: W
LayerCount: 2
Fore
SplineSet
335 106 m 1,0,-1
 333 106 l 1,1,-1
 128 718 l 1,2,-1
 20 718 l 1,3,-1
 282 0 l 1,4,-1
 385 0 l 1,5,-1
 647 718 l 1,6,-1
 538 718 l 1,7,-1
 335 106 l 1,0,-1
EndSplineSet
Validated: 9
EndChar

StartChar: W
Encoding: 87 87 56
Width: 944
Flags: W
LayerCount: 2
Fore
SplineSet
471 595 m 1,0,-1
 473 595 l 1,1,-1
 637 0 l 1,2,-1
 739 0 l 1,3,-1
 928 718 l 1,4,-1
 821 718 l 1,5,-1
 687 134 l 1,6,-1
 685 134 l 1,7,-1
 524 718 l 1,8,-1
 418 718 l 1,9,-1
 257 134 l 1,10,-1
 255 134 l 1,11,-1
 121 718 l 1,12,-1
 16 718 l 1,13,-1
 203 0 l 1,14,-1
 305 0 l 1,15,-1
 471 595 l 1,0,-1
EndSplineSet
Validated: 9
EndChar

StartChar: X
Encoding: 88 88 57
Width: 667
Flags: W
LayerCount: 2
Fore
SplineSet
396 368 m 1,0,-1
 637 718 l 1,1,-1
 521 718 l 1,2,-1
 339 443 l 1,3,-1
 157 718 l 1,4,-1
 35 718 l 1,5,-1
 276 368 l 1,6,-1
 19 0 l 1,7,-1
 136 0 l 1,8,-1
 335 295 l 1,9,-1
 528 0 l 1,10,-1
 648 0 l 1,11,-1
 396 368 l 1,0,-1
EndSplineSet
Validated: 9
EndChar

StartChar: Y
Encoding: 89 89 58
Width: 667
Flags: W
LayerCount: 2
Fore
SplineSet
382 289 m 1,0,-1
 653 718 l 1,1,-1
 539 718 l 1,2,-1
 333 373 l 1,3,-1
 127 718 l 1,4,-1
 14 718 l 1,5,-1
 285 289 l 1,6,-1
 285 0 l 1,7,-1
 382 0 l 1,8,-1
 382 289 l 1,0,-1
EndSplineSet
Validated: 9
EndChar

StartChar: Z
Encoding: 90 90 59
Width: 611
Flags: W
LayerCount: 2
Fore
SplineSet
588 86 m 1,0,-1
 146 86 l 1,1,-1
 588 634 l 1,2,-1
 588 718 l 1,3,-1
 56 718 l 1,4,-1
 56 632 l 1,5,-1
 463 632 l 1,6,-1
 23 81 l 1,7,-1
 23 0 l 1,8,-1
 588 0 l 1,9,-1
 588 86 l 1,0,-1
EndSplineSet
Validated: 9
EndChar

StartChar: bracketleft
Encoding: 91 91 60
Width: 278
Flags: W
LayerCount: 2
Fore
SplineSet
142 651 m 1,0,-1
 250 651 l 1,1,-1
 250 722 l 1,2,-1
 63 722 l 1,3,-1
 63 -196 l 1,4,-1
 250 -196 l 1,5,-1
 250 -125 l 1,6,-1
 142 -125 l 1,7,-1
 142 651 l 1,0,-1
EndSplineSet
Validated: 9
EndChar

StartChar: backslash
Encoding: 92 92 61
Width: 278
Flags: W
LayerCount: 2
Fore
SplineSet
228 -19 m 1,0,-1
 295 -19 l 1,1,-1
 49 737 l 1,2,-1
 -17 737 l 1,3,-1
 228 -19 l 1,0,-1
EndSplineSet
Validated: 9
EndChar

StartChar: bracketright
Encoding: 93 93 62
Width: 278
Flags: W
LayerCount: 2
Fore
SplineSet
136 -125 m 1,0,-1
 28 -125 l 1,1,-1
 28 -196 l 1,2,-1
 215 -196 l 1,3,-1
 215 722 l 1,4,-1
 28 722 l 1,5,-1
 28 651 l 1,6,-1
 136 651 l 1,7,-1
 136 -125 l 1,0,-1
EndSplineSet
Validated: 9
EndChar

StartChar: asciicircum
Encoding: 94 94 63
Width: 469
Flags: W
LayerCount: 2
Fore
SplineSet
483 264 m 1,0,-1
 271 688 l 1,1,-1
 199 688 l 1,2,-1
 -14 264 l 1,3,-1
 64 264 l 1,4,-1
 235 608 l 1,5,-1
 406 264 l 1,6,-1
 483 264 l 1,0,-1
EndSplineSet
Validated: 9
EndChar

StartChar: underscore
Encoding: 95 95 64
Width: 556
Flags: W
LayerCount: 2
Fore
SplineSet
556 -125 m 1,0,-1
 556 -75 l 1,1,-1
 0 -75 l 1,2,-1
 0 -125 l 1,3,-1
 556 -125 l 1,0,-1
EndSplineSet
Validated: 9
EndChar

StartChar: quoteleft
Encoding: 96 96 65
Width: 222
Flags: W
LayerCount: 2
Fore
SplineSet
169 576 m 1,0,-1
 116 576 l 1,1,2
 116 593 116 593 117.5 608.5 c 128,-1,3
 119 624 119 624 124 638.5 c 128,-1,4
 129 653 129 653 140 664 c 128,-1,5
 151 675 151 675 169 678 c 1,6,-1
 169 725 l 1,7,8
 112 712 112 712 88.5 671.5 c 128,-1,9
 65 631 65 631 65 568 c 2,10,-1
 65 470 l 1,11,-1
 169 470 l 1,12,-1
 169 576 l 1,0,-1
EndSplineSet
Validated: 9
EndChar

StartChar: a
Encoding: 97 97 66
Width: 556
Flags: W
LayerCount: 2
Fore
SplineSet
143 364 m 1,0,1
 146 384 146 384 151.5 400 c 128,-1,2
 157 416 157 416 169.5 431 c 128,-1,3
 182 446 182 446 205 455.5 c 128,-1,4
 228 465 228 465 263 465 c 0,5,6
 386 465 386 465 386 380 c 0,7,8
 386 345 386 345 373.5 332.5 c 128,-1,9
 361 320 361 320 340 318 c 2,10,-1
 195 300 l 2,11,12
 144 294 144 294 111.5 274.5 c 128,-1,13
 79 255 79 255 62.5 230 c 128,-1,14
 46 205 46 205 41 181.5 c 128,-1,15
 36 158 36 158 36 136 c 0,16,17
 36 69 36 69 82 27 c 128,-1,18
 128 -15 128 -15 200 -15 c 0,19,20
 268 -15 268 -15 311.5 9 c 128,-1,21
 355 33 355 33 389 70 c 1,22,23
 392 33 392 33 410.5 11.5 c 128,-1,24
 429 -10 429 -10 482 -10 c 0,25,26
 497 -10 497 -10 519 -3 c 0,27,28
 526 -1 526 -1 530 0 c 1,29,-1
 530 64 l 1,30,31
 510 60 510 60 501 60 c 0,32,33
 472 60 472 60 472 91 c 2,34,-1
 472 392 l 2,35,36
 472 439 472 439 449.5 469 c 128,-1,37
 427 499 427 499 394.5 513.5 c 128,-1,38
 362 528 362 528 331.5 533 c 128,-1,39
 301 538 301 538 278 538 c 0,40,41
 177 538 177 538 121 496.5 c 128,-1,42
 65 455 65 455 62 364 c 1,43,-1
 143 364 l 1,0,1
384 181 m 2,44,45
 384 155 384 155 370.5 132.5 c 128,-1,46
 357 110 357 110 334 93.5 c 128,-1,47
 311 77 311 77 281.5 67.5 c 128,-1,48
 252 58 252 58 222 58 c 0,49,50
 174 58 174 58 150.5 81.5 c 128,-1,51
 127 105 127 105 127 149 c 0,52,53
 127 172 127 172 137.5 188 c 128,-1,54
 148 204 148 204 165 213 c 128,-1,55
 182 222 182 222 200.5 226.5 c 128,-1,56
 219 231 219 231 239 234 c 0,57,58
 315 244 315 244 343.5 251 c 128,-1,59
 372 258 372 258 384 267 c 1,60,-1
 384 181 l 2,44,45
EndSplineSet
Validated: 9
EndChar

StartChar: b
Encoding: 98 98 67
Width: 556
Flags: W
LayerCount: 2
Fore
SplineSet
141 0 m 1,0,-1
 141 65 l 1,1,-1
 143 65 l 1,2,3
 152 51 152 51 162.5 38 c 128,-1,4
 173 25 173 25 190 13 c 128,-1,5
 207 1 207 1 231.5 -7 c 128,-1,6
 256 -15 256 -15 287 -15 c 0,7,8
 351 -15 351 -15 396 11.5 c 128,-1,9
 441 38 441 38 467.5 81 c 128,-1,10
 494 124 494 124 505.5 175 c 128,-1,11
 517 226 517 226 517 277 c 0,12,13
 517 391 517 391 459 464.5 c 128,-1,14
 401 538 401 538 299 538 c 0,15,16
 203 536 203 536 148 457 c 1,17,-1
 146 457 l 1,18,-1
 146 718 l 1,19,-1
 58 718 l 1,20,-1
 58 0 l 1,21,-1
 141 0 l 1,0,-1
426 263 m 0,22,23
 426 172 426 172 390 116.5 c 128,-1,24
 354 61 354 61 285 61 c 0,25,26
 262 61 262 61 237.5 69.5 c 128,-1,27
 213 78 213 78 191 98.5 c 128,-1,28
 169 119 169 119 155.5 153.5 c 128,-1,29
 142 188 142 188 142 237 c 0,30,31
 142 276 142 276 147 312.5 c 128,-1,32
 152 349 152 349 166.5 383 c 128,-1,33
 181 417 181 417 209.5 438 c 128,-1,34
 238 459 238 459 283 459 c 0,35,36
 331 459 331 459 360.5 439.5 c 128,-1,37
 390 420 390 420 404 389.5 c 128,-1,38
 418 359 418 359 422 328 c 128,-1,39
 426 297 426 297 426 263 c 0,22,23
EndSplineSet
Validated: 9
EndChar

StartChar: c
Encoding: 99 99 68
Width: 500
Flags: W
LayerCount: 2
Fore
SplineSet
477 347 m 1,0,1
 474 383 474 383 462 417 c 128,-1,2
 450 451 450 451 426.5 478.5 c 128,-1,3
 403 506 403 506 366.5 522 c 128,-1,4
 330 538 330 538 281 538 c 0,5,6
 218 538 218 538 170.5 516 c 128,-1,7
 123 494 123 494 91.5 454 c 128,-1,8
 60 414 60 414 45 361.5 c 128,-1,9
 30 309 30 309 30 247 c 0,10,11
 30 131 30 131 93 58 c 128,-1,12
 156 -15 156 -15 264 -15 c 0,13,14
 319 -15 319 -15 358.5 3.5 c 128,-1,15
 398 22 398 22 423 52 c 128,-1,16
 448 82 448 82 460.5 116 c 128,-1,17
 473 150 473 150 477 185 c 1,18,-1
 392 185 l 1,19,20
 381 126 381 126 347 93.5 c 128,-1,21
 313 61 313 61 267 61 c 0,22,23
 224 61 224 61 195.5 78.5 c 128,-1,24
 167 96 167 96 151.5 125.5 c 128,-1,25
 136 155 136 155 130 189.5 c 128,-1,26
 124 224 124 224 124 262 c 0,27,28
 124 299 124 299 131.5 334 c 128,-1,29
 139 369 139 369 156 397 c 128,-1,30
 173 425 173 425 201 442 c 128,-1,31
 229 459 229 459 268 459 c 0,32,33
 322 459 322 459 353 430 c 128,-1,34
 384 401 384 401 392 347 c 1,35,-1
 477 347 l 1,0,1
EndSplineSet
Validated: 9
EndChar

StartChar: d
Encoding: 100 100 69
Width: 556
Flags: W
LayerCount: 2
Fore
SplineSet
499 718 m 1,0,-1
 411 718 l 1,1,-1
 411 456 l 1,2,-1
 409 449 l 1,3,-1
 408 450 l 1,4,5
 396 468 396 468 385 480.5 c 128,-1,6
 374 493 374 493 356 507 c 128,-1,7
 338 521 338 521 312 529.5 c 128,-1,8
 286 538 286 538 253 538 c 0,9,10
 152 538 152 538 93.5 464.5 c 128,-1,11
 35 391 35 391 35 277 c 0,12,13
 35 226 35 226 47 175 c 128,-1,14
 59 124 59 124 85.5 81 c 128,-1,15
 112 38 112 38 157 11.5 c 128,-1,16
 202 -15 202 -15 265 -15 c 0,17,18
 310 -15 310 -15 349 4.5 c 128,-1,19
 388 24 388 24 414 72 c 1,20,-1
 416 72 l 1,21,-1
 416 0 l 1,22,-1
 499 0 l 1,23,-1
 499 718 l 1,0,-1
126 263 m 0,24,25
 126 297 126 297 130 328 c 128,-1,26
 134 359 134 359 148 389.5 c 128,-1,27
 162 420 162 420 191.5 439.5 c 128,-1,28
 221 459 221 459 269 459 c 0,29,30
 314 459 314 459 342.5 438 c 128,-1,31
 371 417 371 417 385.5 383.5 c 128,-1,32
 400 350 400 350 405 313 c 128,-1,33
 410 276 410 276 410 237 c 0,34,35
 410 188 410 188 396.5 153 c 128,-1,36
 383 118 383 118 361.5 98 c 128,-1,37
 340 78 340 78 315 69.5 c 128,-1,38
 290 61 290 61 267 61 c 0,39,40
 198 61 198 61 162 116.5 c 128,-1,41
 126 172 126 172 126 263 c 0,24,25
EndSplineSet
Validated: 9
EndChar

StartChar: e
Encoding: 101 101 70
Width: 556
Flags: W
LayerCount: 2
Fore
SplineSet
421 164 m 1,0,1
 418 130 418 130 384 98 c 0,2,3
 365 81 365 81 340.5 71 c 128,-1,4
 316 61 316 61 286 61 c 0,5,6
 211 61 211 61 172.5 105.5 c 128,-1,7
 134 150 134 150 134 233 c 1,8,-1
 516 233 l 1,9,10
 516 376 516 376 459 457 c 128,-1,11
 402 538 402 538 291 538 c 0,12,13
 228 538 228 538 180.5 516 c 128,-1,14
 133 494 133 494 101.5 454 c 128,-1,15
 70 414 70 414 55 361.5 c 128,-1,16
 40 309 40 309 40 247 c 0,17,18
 40 131 40 131 103 58 c 128,-1,19
 166 -15 166 -15 274 -15 c 0,20,21
 330 -15 330 -15 360.5 -5 c 128,-1,22
 391 5 391 5 416 21 c 0,23,24
 439 36 439 36 456.5 56.5 c 128,-1,25
 474 77 474 77 486 100 c 0,26,27
 506 136 506 136 509 164 c 1,28,-1
 421 164 l 1,0,1
134 303 m 1,29,30
 134 333 134 333 145 361.5 c 128,-1,31
 156 390 156 390 176 412 c 128,-1,32
 196 434 196 434 223 446.5 c 128,-1,33
 250 459 250 459 279 459 c 0,34,35
 318 459 318 459 345.5 446.5 c 128,-1,36
 373 434 373 434 389.5 412.5 c 128,-1,37
 406 391 406 391 414.5 363.5 c 128,-1,38
 423 336 423 336 425 303 c 1,39,-1
 134 303 l 1,29,30
EndSplineSet
Validated: 9
EndChar

StartChar: f
Encoding: 102 102 71
Width: 278
Flags: W
LayerCount: 2
Fore
SplineSet
262 450 m 1,0,-1
 262 523 l 1,1,-1
 174 523 l 1,2,-1
 174 588 l 2,3,4
 174 620 174 620 186 634.5 c 128,-1,5
 198 649 198 649 226 649 c 0,6,7
 240 649 240 649 262 647 c 1,8,-1
 262 726 l 1,9,-1
 259 726 l 2,10,11
 233 728 233 728 222 728 c 0,12,13
 156 728 156 728 121 699.5 c 128,-1,14
 86 671 86 671 86 613 c 2,15,-1
 86 523 l 1,16,-1
 14 523 l 1,17,-1
 14 450 l 1,18,-1
 86 450 l 1,19,-1
 86 0 l 1,20,-1
 174 0 l 1,21,-1
 174 450 l 1,22,-1
 262 450 l 1,0,-1
EndSplineSet
Validated: 9
EndChar

StartChar: g
Encoding: 103 103 72
Width: 556
Flags: W
LayerCount: 2
Fore
SplineSet
131 263 m 0,0,1
 131 297 131 297 135 328 c 128,-1,2
 139 359 139 359 153 389.5 c 128,-1,3
 167 420 167 420 196.5 439.5 c 128,-1,4
 226 459 226 459 274 459 c 0,5,6
 319 459 319 459 347.5 438 c 128,-1,7
 376 417 376 417 390.5 383.5 c 128,-1,8
 405 350 405 350 410 313 c 128,-1,9
 415 276 415 276 415 237 c 0,10,11
 415 188 415 188 401.5 153 c 128,-1,12
 388 118 388 118 366.5 98 c 128,-1,13
 345 78 345 78 320 69.5 c 128,-1,14
 295 61 295 61 272 61 c 0,15,16
 203 61 203 61 167 116.5 c 128,-1,17
 131 172 131 172 131 263 c 0,0,1
499 523 m 1,18,-1
 416 523 l 1,19,-1
 416 449 l 1,20,-1
 414 449 l 1,21,-1
 413 450 l 1,22,23
 401 468 401 468 390 480.5 c 128,-1,24
 379 493 379 493 361 507 c 128,-1,25
 343 521 343 521 317 529.5 c 128,-1,26
 291 538 291 538 258 538 c 0,27,28
 157 538 157 538 98.5 464.5 c 128,-1,29
 40 391 40 391 40 277 c 0,30,31
 40 226 40 226 52 175 c 128,-1,32
 64 124 64 124 90.5 81 c 128,-1,33
 117 38 117 38 162 11.5 c 128,-1,34
 207 -15 207 -15 270 -15 c 0,35,36
 319 -15 319 -15 354.5 5 c 128,-1,37
 390 25 390 25 409 55 c 1,38,-1
 409 59 l 1,39,-1
 411 59 l 1,40,-1
 411 37 l 2,41,42
 411 0 411 0 407.5 -28.5 c 128,-1,43
 404 -57 404 -57 390 -84.5 c 128,-1,44
 376 -112 376 -112 345 -129.5 c 128,-1,45
 314 -147 314 -147 262 -147 c 0,46,47
 248 -147 248 -147 232.5 -145 c 128,-1,48
 217 -143 217 -143 198.5 -135.5 c 128,-1,49
 180 -128 180 -128 165 -110.5 c 128,-1,50
 150 -93 150 -93 144 -64 c 1,51,-1
 56 -64 l 1,52,53
 62 -113 62 -113 84 -144.5 c 128,-1,54
 106 -176 106 -176 136 -192.5 c 128,-1,55
 166 -209 166 -209 196.5 -214.5 c 128,-1,56
 227 -220 227 -220 256 -220 c 0,57,58
 341 -220 341 -220 392 -192 c 128,-1,59
 443 -164 443 -164 465.5 -122 c 128,-1,60
 488 -80 488 -80 493.5 -40.5 c 128,-1,61
 499 -1 499 -1 499 43 c 2,62,-1
 499 523 l 1,18,-1
EndSplineSet
Validated: 9
EndChar

StartChar: h
Encoding: 104 104 73
Width: 556
Flags: W
LayerCount: 2
Fore
SplineSet
491 356 m 2,0,1
 491 409 491 409 475 445 c 128,-1,2
 459 481 459 481 432 501.5 c 128,-1,3
 405 522 405 522 373.5 530 c 128,-1,4
 342 538 342 538 308 538 c 0,5,6
 253 538 253 538 217.5 513.5 c 128,-1,7
 182 489 182 489 155 453 c 1,8,-1
 153 453 l 1,9,-1
 153 718 l 1,10,-1
 65 718 l 1,11,-1
 65 0 l 1,12,-1
 153 0 l 1,13,-1
 153 285 l 2,14,15
 153 333 153 333 165 366.5 c 128,-1,16
 177 400 177 400 198 420.5 c 128,-1,17
 219 441 219 441 244.5 450 c 128,-1,18
 270 459 270 459 299 459 c 0,19,20
 358 459 358 459 380.5 429.5 c 128,-1,21
 403 400 403 400 403 342 c 2,22,-1
 403 0 l 1,23,-1
 491 0 l 1,24,-1
 491 356 l 2,0,1
EndSplineSet
Validated: 9
EndChar

StartChar: i
Encoding: 105 105 74
Width: 222
Flags: W
LayerCount: 2
Fore
SplineSet
155 523 m 1,0,-1
 67 523 l 1,1,-1
 67 0 l 1,2,-1
 155 0 l 1,3,-1
 155 523 l 1,0,-1
155 618 m 1,4,-1
 155 718 l 1,5,-1
 67 718 l 1,6,-1
 67 618 l 1,7,-1
 155 618 l 1,4,-1
EndSplineSet
Validated: 9
EndChar

StartChar: j
Encoding: 106 106 75
Width: 222
Flags: W
LayerCount: 2
Fore
SplineSet
155 523 m 1,0,-1
 67 523 l 1,1,-1
 67 -67 l 2,2,3
 67 -110 67 -110 55 -120.5 c 128,-1,4
 43 -131 43 -131 2 -131 c 2,5,-1
 -16 -131 l 1,6,-1
 -16 -207 l 1,7,8
 4 -210 4 -210 21 -210 c 0,9,10
 67 -210 67 -210 95 -196.5 c 128,-1,11
 123 -183 123 -183 135.5 -162.5 c 128,-1,12
 148 -142 148 -142 151.5 -121.5 c 128,-1,13
 155 -101 155 -101 155 -77 c 2,14,-1
 155 523 l 1,0,-1
155 718 m 1,15,-1
 67 718 l 1,16,-1
 67 618 l 1,17,-1
 155 618 l 1,18,-1
 155 718 l 1,15,-1
EndSplineSet
Validated: 9
EndChar

StartChar: k
Encoding: 107 107 76
Width: 500
Flags: W
LayerCount: 2
Fore
SplineSet
289 328 m 1,0,-1
 489 523 l 1,1,-1
 377 523 l 1,2,-1
 152 302 l 1,3,-1
 152 718 l 1,4,-1
 67 718 l 1,5,-1
 67 0 l 1,6,-1
 152 0 l 1,7,-1
 152 198 l 1,8,-1
 225 264 l 1,9,-1
 388 0 l 1,10,-1
 501 0 l 1,11,-1
 289 328 l 1,0,-1
EndSplineSet
Validated: 9
EndChar

StartChar: l
Encoding: 108 108 77
Width: 222
Flags: W
LayerCount: 2
Fore
SplineSet
155 718 m 1,0,-1
 67 718 l 1,1,-1
 67 0 l 1,2,-1
 155 0 l 1,3,-1
 155 718 l 1,0,-1
EndSplineSet
Validated: 9
EndChar

StartChar: m
Encoding: 109 109 78
Width: 833
Flags: W
LayerCount: 2
Fore
SplineSet
65 0 m 1,0,-1
 153 0 l 1,1,-1
 153 285 l 2,2,3
 153 335 153 335 166.5 369.5 c 128,-1,4
 180 404 180 404 201.5 423.5 c 128,-1,5
 223 443 223 443 246.5 451 c 128,-1,6
 270 459 270 459 291 459 c 0,7,8
 335 459 335 459 354 430.5 c 128,-1,9
 373 402 373 402 373 362 c 2,10,-1
 373 0 l 1,11,-1
 461 0 l 1,12,-1
 461 319 l 2,13,14
 461 374 461 374 496 416.5 c 128,-1,15
 531 459 531 459 584 459 c 256,16,17
 637 459 637 459 659 427.5 c 128,-1,18
 681 396 681 396 681 338 c 2,19,-1
 681 0 l 1,20,-1
 769 0 l 1,21,-1
 769 362 l 2,22,23
 769 414 769 414 753 449 c 128,-1,24
 737 484 737 484 711.5 503.5 c 128,-1,25
 686 523 686 523 659 530.5 c 128,-1,26
 632 538 632 538 607 538 c 0,27,28
 552 538 552 538 519.5 518 c 128,-1,29
 487 498 487 498 447 453 c 1,30,-1
 447 454 l 1,31,32
 439 469 439 469 429.5 482 c 128,-1,33
 420 495 420 495 404.5 508 c 128,-1,34
 389 521 389 521 365 529.5 c 128,-1,35
 341 538 341 538 308 538 c 256,36,37
 275 538 275 538 248.5 528.5 c 128,-1,38
 222 519 222 519 203 505.5 c 128,-1,39
 184 492 184 492 172.5 478 c 128,-1,40
 161 464 161 464 150 449 c 1,41,-1
 148 449 l 1,42,-1
 148 523 l 1,43,-1
 65 523 l 1,44,-1
 65 0 l 1,0,-1
EndSplineSet
Validated: 9
EndChar

StartChar: n
Encoding: 110 110 79
Width: 556
Flags: W
LayerCount: 2
Fore
SplineSet
491 356 m 2,0,1
 491 409 491 409 475 445 c 128,-1,2
 459 481 459 481 432 501.5 c 128,-1,3
 405 522 405 522 373.5 530 c 128,-1,4
 342 538 342 538 308 538 c 0,5,6
 276 538 276 538 250 528.5 c 128,-1,7
 224 519 224 519 204.5 505 c 128,-1,8
 185 491 185 491 172.5 477 c 128,-1,9
 160 463 160 463 150 449 c 1,10,-1
 148 449 l 1,11,-1
 148 523 l 1,12,-1
 65 523 l 1,13,-1
 65 0 l 1,14,-1
 153 0 l 1,15,-1
 153 285 l 2,16,17
 153 335 153 335 166.5 369.5 c 128,-1,18
 180 404 180 404 201.5 423.5 c 128,-1,19
 223 443 223 443 246.5 451 c 128,-1,20
 270 459 270 459 291 459 c 0,21,22
 353 459 353 459 378 426 c 128,-1,23
 403 393 403 393 403 322 c 2,24,-1
 403 0 l 1,25,-1
 491 0 l 1,26,-1
 491 356 l 2,0,1
EndSplineSet
Validated: 9
EndChar

StartChar: o
Encoding: 111 111 80
Width: 556
Flags: W
LayerCount: 2
Fore
SplineSet
35 262 m 256,0,1
 35 210 35 210 50 161 c 128,-1,2
 65 112 65 112 95 72 c 128,-1,3
 125 32 125 32 171.5 9 c 128,-1,4
 218 -14 218 -14 278 -14 c 256,5,6
 338 -14 338 -14 384.5 9 c 128,-1,7
 431 32 431 32 461 72 c 128,-1,8
 491 112 491 112 506 161 c 128,-1,9
 521 210 521 210 521 262 c 256,10,11
 521 314 521 314 506 363.5 c 128,-1,12
 491 413 491 413 461 452.5 c 128,-1,13
 431 492 431 492 384.5 515 c 128,-1,14
 338 538 338 538 278 538 c 256,15,16
 218 538 218 538 171.5 515 c 128,-1,17
 125 492 125 492 95 452 c 128,-1,18
 65 412 65 412 50 363 c 128,-1,19
 35 314 35 314 35 262 c 256,0,1
126 262 m 256,20,21
 126 292 126 292 133 326 c 128,-1,22
 140 360 140 360 156.5 391 c 128,-1,23
 173 422 173 422 203 442 c 128,-1,24
 233 462 233 462 278 462 c 256,25,26
 323 462 323 462 353 442 c 128,-1,27
 383 422 383 422 400 391 c 128,-1,28
 417 360 417 360 423.5 326 c 128,-1,29
 430 292 430 292 430 262 c 256,30,31
 430 232 430 232 423.5 198 c 128,-1,32
 417 164 417 164 400 133 c 128,-1,33
 383 102 383 102 353 82 c 128,-1,34
 323 62 323 62 278 62 c 256,35,36
 233 62 233 62 203 82 c 128,-1,37
 173 102 173 102 156.5 133 c 128,-1,38
 140 164 140 164 133 198 c 128,-1,39
 126 232 126 232 126 262 c 256,20,21
EndSplineSet
Validated: 9
EndChar

StartChar: p
Encoding: 112 112 81
Width: 556
Flags: W
LayerCount: 2
Fore
SplineSet
142 237 m 0,0,1
 142 276 142 276 147 312.5 c 128,-1,2
 152 349 152 349 166.5 383 c 128,-1,3
 181 417 181 417 209.5 438 c 128,-1,4
 238 459 238 459 283 459 c 0,5,6
 331 459 331 459 360.5 439.5 c 128,-1,7
 390 420 390 420 404 389.5 c 128,-1,8
 418 359 418 359 422 328 c 128,-1,9
 426 297 426 297 426 263 c 0,10,11
 426 172 426 172 390 116.5 c 128,-1,12
 354 61 354 61 285 61 c 0,13,14
 262 61 262 61 237.5 69.5 c 128,-1,15
 213 78 213 78 191 98.5 c 128,-1,16
 169 119 169 119 155.5 153.5 c 128,-1,17
 142 188 142 188 142 237 c 0,0,1
58 -207 m 1,18,-1
 146 -207 l 1,19,-1
 146 55 l 1,20,-1
 148 55 l 1,21,22
 167 25 167 25 202.5 5 c 128,-1,23
 238 -15 238 -15 287 -15 c 0,24,25
 351 -15 351 -15 396 11.5 c 128,-1,26
 441 38 441 38 467.5 81 c 128,-1,27
 494 124 494 124 505.5 175 c 128,-1,28
 517 226 517 226 517 277 c 0,29,30
 517 391 517 391 459 464.5 c 128,-1,31
 401 538 401 538 299 538 c 0,32,33
 266 538 266 538 240.5 529.5 c 128,-1,34
 215 521 215 521 196.5 507 c 128,-1,35
 178 493 178 493 166.5 479.5 c 128,-1,36
 155 466 155 466 144 450 c 2,37,-1
 143 449 l 1,38,-1
 141 449 l 1,39,-1
 141 523 l 1,40,-1
 58 523 l 1,41,-1
 58 -207 l 1,18,-1
EndSplineSet
Validated: 9
EndChar

StartChar: q
Encoding: 113 113 82
Width: 556
Flags: W
LayerCount: 2
Fore
SplineSet
494 523 m 1,0,-1
 411 523 l 1,1,-1
 411 449 l 1,2,-1
 409 449 l 1,3,-1
 408 450 l 1,4,5
 396 468 396 468 385 480.5 c 128,-1,6
 374 493 374 493 356 507 c 128,-1,7
 338 521 338 521 312 529.5 c 128,-1,8
 286 538 286 538 253 538 c 0,9,10
 152 538 152 538 93.5 464.5 c 128,-1,11
 35 391 35 391 35 277 c 0,12,13
 35 226 35 226 47 175 c 128,-1,14
 59 124 59 124 85.5 81 c 128,-1,15
 112 38 112 38 157 11.5 c 128,-1,16
 202 -15 202 -15 265 -15 c 0,17,18
 314 -15 314 -15 349.5 5 c 128,-1,19
 385 25 385 25 404 55 c 1,20,-1
 406 55 l 1,21,-1
 406 -207 l 1,22,-1
 494 -207 l 1,23,-1
 494 523 l 1,0,-1
410 237 m 0,24,25
 410 188 410 188 396.5 153 c 128,-1,26
 383 118 383 118 361.5 98 c 128,-1,27
 340 78 340 78 315 69.5 c 128,-1,28
 290 61 290 61 267 61 c 0,29,30
 198 61 198 61 162 116.5 c 128,-1,31
 126 172 126 172 126 263 c 0,32,33
 126 297 126 297 130 328 c 128,-1,34
 134 359 134 359 148 389.5 c 128,-1,35
 162 420 162 420 191.5 439.5 c 128,-1,36
 221 459 221 459 269 459 c 0,37,38
 314 459 314 459 342.5 438 c 128,-1,39
 371 417 371 417 385.5 383.5 c 128,-1,40
 400 350 400 350 405 313 c 128,-1,41
 410 276 410 276 410 237 c 0,24,25
EndSplineSet
Validated: 9
EndChar

StartChar: r
Encoding: 114 114 83
Width: 333
Flags: W
LayerCount: 2
Fore
SplineSet
165 304 m 2,0,1
 165 363 165 363 202 403.5 c 128,-1,2
 239 444 239 444 299 444 c 2,3,-1
 332 444 l 1,4,-1
 332 535 l 1,5,6
 322 538 322 538 309 538 c 0,7,8
 262 538 262 538 226 511.5 c 128,-1,9
 190 485 190 485 162 436 c 1,10,-1
 160 436 l 1,11,-1
 160 523 l 1,12,-1
 77 523 l 1,13,-1
 77 0 l 1,14,-1
 165 0 l 1,15,-1
 165 304 l 2,0,1
EndSplineSet
Validated: 9
EndChar

StartChar: s
Encoding: 115 115 84
Width: 500
Flags: W
LayerCount: 2
Fore
SplineSet
447 374 m 1,0,1
 447 391 447 391 440.5 416.5 c 128,-1,2
 434 442 434 442 414 470 c 128,-1,3
 394 498 394 498 353 518 c 128,-1,4
 312 538 312 538 247 538 c 0,5,6
 163 538 163 538 109 498 c 0,7,8
 81 476 81 476 65 444.5 c 128,-1,9
 49 413 49 413 49 371 c 0,10,11
 49 319 49 319 80.5 288.5 c 128,-1,12
 112 258 112 258 170 244 c 2,13,-1
 272 219 l 2,14,15
 331 204 331 204 353.5 189 c 128,-1,16
 376 174 376 174 376 144 c 0,17,18
 376 103 376 103 341.5 82 c 128,-1,19
 307 61 307 61 256 61 c 0,20,21
 213 61 213 61 185 71 c 128,-1,22
 157 81 157 81 142.5 97.5 c 128,-1,23
 128 114 128 114 123.5 130.5 c 128,-1,24
 119 147 119 147 117 168 c 1,25,-1
 32 168 l 1,26,27
 33 136 33 136 40.5 107 c 128,-1,28
 48 78 48 78 70.5 49.5 c 128,-1,29
 93 21 93 21 138.5 3 c 128,-1,30
 184 -15 184 -15 257 -15 c 0,31,32
 348 -15 348 -15 406 32 c 128,-1,33
 464 79 464 79 464 158 c 0,34,35
 464 212 464 212 431 244 c 128,-1,36
 398 276 398 276 317 296 c 2,37,-1
 229 318 l 2,38,39
 173 332 173 332 153.5 345 c 128,-1,40
 134 358 134 358 134 388 c 0,41,42
 134 411 134 411 145.5 426 c 128,-1,43
 157 441 157 441 174 449 c 128,-1,44
 191 457 191 457 208 459.5 c 128,-1,45
 225 462 225 462 238 462 c 0,46,47
 277 462 277 462 302.5 453.5 c 128,-1,48
 328 445 328 445 340.5 431.5 c 128,-1,49
 353 418 353 418 357 404 c 128,-1,50
 361 390 361 390 362 374 c 1,51,-1
 447 374 l 1,0,1
EndSplineSet
Validated: 9
EndChar

StartChar: t
Encoding: 116 116 85
Width: 278
Flags: W
LayerCount: 2
Fore
SplineSet
257 450 m 1,0,-1
 257 523 l 1,1,-1
 173 523 l 1,2,-1
 173 669 l 1,3,-1
 85 669 l 1,4,-1
 85 523 l 1,5,-1
 14 523 l 1,6,-1
 14 450 l 1,7,-1
 85 450 l 1,8,-1
 85 105 l 2,9,10
 85 52 85 52 108 22.5 c 128,-1,11
 131 -7 131 -7 191 -7 c 0,12,13
 196 -7 196 -7 217 -4 c 0,14,15
 246 -1 246 -1 257 0 c 1,16,-1
 257 69 l 1,17,-1
 226 69 l 2,18,19
 204 69 204 69 188.5 76 c 128,-1,20
 173 83 173 83 173 110 c 2,21,-1
 173 450 l 1,22,-1
 257 450 l 1,0,-1
EndSplineSet
Validated: 9
EndChar

StartChar: u
Encoding: 117 117 86
Width: 556
Flags: W
LayerCount: 2
Fore
SplineSet
489 0 m 1,0,-1
 489 523 l 1,1,-1
 401 523 l 1,2,-1
 401 235 l 2,3,4
 401 204 401 204 393.5 174 c 128,-1,5
 386 144 386 144 369.5 118 c 128,-1,6
 353 92 353 92 325 76.5 c 128,-1,7
 297 61 297 61 257 61 c 0,8,9
 210 61 210 61 183 88 c 128,-1,10
 156 115 156 115 156 176 c 2,11,-1
 156 523 l 1,12,-1
 68 523 l 1,13,-1
 68 147 l 2,14,15
 68 102 68 102 83 70.5 c 128,-1,16
 98 39 98 39 123 20 c 128,-1,17
 148 1 148 1 177.5 -7 c 128,-1,18
 207 -15 207 -15 238 -15 c 0,19,20
 299 -15 299 -15 337 7.5 c 128,-1,21
 375 30 375 30 404 78 c 1,22,-1
 406 76 l 1,23,-1
 406 0 l 1,24,-1
 489 0 l 1,0,-1
EndSplineSet
Validated: 9
EndChar

StartChar: v
Encoding: 118 118 87
Width: 500
Flags: W
LayerCount: 2
Fore
SplineSet
248 97 m 1,0,-1
 246 97 l 1,1,-1
 110 523 l 1,2,-1
 8 523 l 1,3,-1
 199 0 l 1,4,-1
 293 0 l 1,5,-1
 492 523 l 1,6,-1
 396 523 l 1,7,-1
 248 97 l 1,0,-1
EndSplineSet
Validated: 9
EndChar

StartChar: w
Encoding: 119 119 88
Width: 722
Flags: W
LayerCount: 2
Fore
SplineSet
358 405 m 1,0,-1
 360 405 l 1,1,-1
 466 0 l 1,2,-1
 557 0 l 1,3,-1
 709 523 l 1,4,-1
 621 523 l 1,5,-1
 515 112 l 1,6,-1
 513 112 l 1,7,-1
 411 523 l 1,8,-1
 313 523 l 1,9,-1
 212 112 l 1,10,-1
 210 112 l 1,11,-1
 110 523 l 1,12,-1
 14 523 l 1,13,-1
 165 0 l 1,14,-1
 256 0 l 1,15,-1
 358 405 l 1,0,-1
EndSplineSet
Validated: 9
EndChar

StartChar: x
Encoding: 120 120 89
Width: 500
Flags: W
LayerCount: 2
Fore
SplineSet
306 269 m 1,0,-1
 483 523 l 1,1,-1
 375 523 l 1,2,-1
 254 339 l 1,3,-1
 133 523 l 1,4,-1
 20 523 l 1,5,-1
 195 269 l 1,6,-1
 11 0 l 1,7,-1
 122 0 l 1,8,-1
 248 197 l 1,9,-1
 378 0 l 1,10,-1
 490 0 l 1,11,-1
 306 269 l 1,0,-1
EndSplineSet
Validated: 9
EndChar

StartChar: y
Encoding: 121 121 90
Width: 500
Flags: W
LayerCount: 2
Fore
SplineSet
252 97 m 1,0,-1
 250 97 l 1,1,-1
 111 523 l 1,2,-1
 11 523 l 1,3,-1
 205 -14 l 1,4,-1
 205 -14 l 1,5,6
 187 -61 187 -61 177.5 -82.5 c 128,-1,7
 168 -104 168 -104 159.5 -115.5 c 128,-1,8
 151 -127 151 -127 140.5 -131 c 128,-1,9
 130 -135 130 -135 112 -135 c 0,10,11
 84 -135 84 -135 59 -126 c 1,12,-1
 59 -206 l 1,13,14
 66 -208 66 -208 67 -208 c 0,15,16
 86 -214 86 -214 96 -214 c 0,17,18
 143 -214 143 -214 167 -208 c 128,-1,19
 191 -202 191 -202 209.5 -181.5 c 128,-1,20
 228 -161 228 -161 246.5 -121.5 c 128,-1,21
 265 -82 265 -82 301 10 c 0,22,23
 359 159 359 159 466 459 c 2,24,-1
 489 523 l 1,25,-1
 392 523 l 1,26,-1
 252 97 l 1,0,-1
EndSplineSet
Validated: 5
EndChar

StartChar: z
Encoding: 122 122 91
Width: 500
Flags: W
LayerCount: 2
Fore
SplineSet
460 451 m 1,0,-1
 460 523 l 1,1,-1
 55 523 l 1,2,-1
 55 450 l 1,3,-1
 346 450 l 1,4,-1
 31 69 l 1,5,-1
 31 0 l 1,6,-1
 469 0 l 1,7,-1
 469 73 l 1,8,-1
 148 73 l 1,9,-1
 460 451 l 1,0,-1
EndSplineSet
Validated: 9
EndChar

StartChar: braceleft
Encoding: 123 123 92
Width: 334
Flags: W
LayerCount: 2
Fore
SplineSet
42 234 m 1,0,1
 77 234 77 234 100 197 c 128,-1,2
 123 160 123 160 123 104 c 2,3,-1
 123 -67 l 2,4,5
 123 -126 123 -126 153.5 -161 c 128,-1,6
 184 -196 184 -196 225 -196 c 2,7,-1
 292 -196 l 1,8,-1
 292 -131 l 1,9,-1
 248 -131 l 2,10,11
 224 -131 224 -131 213 -108.5 c 128,-1,12
 202 -86 202 -86 202 -49 c 2,13,-1
 202 120 l 2,14,15
 200 156 200 156 189.5 183 c 128,-1,16
 179 210 179 210 165 226.5 c 128,-1,17
 151 243 151 243 137.5 251.5 c 128,-1,18
 124 260 124 260 114 263 c 1,19,-1
 114 265 l 1,20,21
 123 267 123 267 137 276 c 128,-1,22
 151 285 151 285 165 301.5 c 128,-1,23
 179 318 179 318 189.5 344.5 c 128,-1,24
 200 371 200 371 202 405 c 2,25,-1
 202 575 l 2,26,27
 202 612 202 612 212.5 634.5 c 128,-1,28
 223 657 223 657 248 657 c 2,29,-1
 292 657 l 1,30,-1
 292 722 l 1,31,-1
 225 722 l 2,32,33
 184 722 184 722 153.5 687 c 128,-1,34
 123 652 123 652 123 593 c 2,35,-1
 123 421 l 2,36,37
 123 366 123 366 100 330 c 128,-1,38
 77 294 77 294 42 294 c 1,39,-1
 42 234 l 1,0,1
EndSplineSet
Validated: 9
EndChar

StartChar: bar
Encoding: 124 124 93
Width: 260
Flags: W
LayerCount: 2
Fore
SplineSet
94 -19 m 1,0,-1
 167 -19 l 1,1,-1
 167 737 l 1,2,-1
 94 737 l 1,3,-1
 94 -19 l 1,0,-1
EndSplineSet
Validated: 9
EndChar

StartChar: braceright
Encoding: 125 125 94
Width: 334
Flags: W
LayerCount: 2
Fore
SplineSet
292 294 m 1,0,1
 257 294 257 294 234 330 c 128,-1,2
 211 366 211 366 211 421 c 2,3,-1
 211 593 l 2,4,5
 211 652 211 652 180.5 687 c 128,-1,6
 150 722 150 722 109 722 c 2,7,-1
 42 722 l 1,8,-1
 42 657 l 1,9,-1
 86 657 l 2,10,11
 111 657 111 657 121.5 634.5 c 128,-1,12
 132 612 132 612 132 575 c 2,13,-1
 132 405 l 2,14,15
 134 371 134 371 144.5 345 c 128,-1,16
 155 319 155 319 169.5 302 c 128,-1,17
 184 285 184 285 197.5 276.5 c 128,-1,18
 211 268 211 268 220 265 c 1,19,-1
 220 263 l 1,20,21
 210 260 210 260 196.5 251.5 c 128,-1,22
 183 243 183 243 169 226.5 c 128,-1,23
 155 210 155 210 144.5 183 c 128,-1,24
 134 156 134 156 132 120 c 2,25,-1
 132 -49 l 2,26,27
 132 -86 132 -86 121.5 -108.5 c 128,-1,28
 111 -131 111 -131 86 -131 c 2,29,-1
 42 -131 l 1,30,-1
 42 -196 l 1,31,-1
 109 -196 l 2,32,33
 150 -196 150 -196 180.5 -161 c 128,-1,34
 211 -126 211 -126 211 -67 c 2,35,-1
 211 104 l 2,36,37
 211 160 211 160 234 197 c 128,-1,38
 257 234 257 234 292 234 c 1,39,-1
 292 294 l 1,0,1
EndSplineSet
Validated: 9
EndChar

StartChar: asciitilde
Encoding: 126 126 95
Width: 734
Flags: W
LayerCount: 2
Fore
SplineSet
658 349 m 1,0,1
 622 296 622 296 594 269 c 128,-1,2
 566 242 566 242 526 242 c 0,3,4
 490 242 490 242 373 295 c 0,5,6
 324 317 324 317 283 330 c 128,-1,7
 242 343 242 343 206 343 c 0,8,9
 138 343 138 343 93 307.5 c 128,-1,10
 48 272 48 272 18 215 c 1,11,-1
 72 131 l 1,12,13
 94 179 94 179 124 209 c 128,-1,14
 154 239 154 239 199 239 c 0,15,16
 246 239 246 239 286.5 225 c 128,-1,17
 327 211 327 211 371 186 c 0,18,19
 417 162 417 162 452 149.5 c 128,-1,20
 487 137 487 137 524 137 c 0,21,22
 581 137 581 137 628 171.5 c 128,-1,23
 675 206 675 206 712 265 c 1,24,-1
 658 349 l 1,0,1
EndSplineSet
Validated: 9
EndChar

StartChar: fraction
Encoding: 164 167 96
Width: 167
Flags: W
LayerCount: 2
Fore
SplineSet
333 703 m 1,0,-1
 276 703 l 1,1,-1
 -166 -19 l 1,2,-1
 -109 -19 l 1,3,-1
 333 703 l 1,0,-1
EndSplineSet
Validated: 9
EndChar

StartChar: section
Encoding: 167 223 97
Width: 556
Flags: W
LayerCount: 2
Fore
SplineSet
460 554 m 1,0,1
 460 607 460 607 443.5 643 c 128,-1,2
 427 679 427 679 400 699.5 c 128,-1,3
 373 720 373 720 341 728.5 c 128,-1,4
 309 737 309 737 276 737 c 0,5,6
 229 737 229 737 194.5 721.5 c 128,-1,7
 160 706 160 706 138.5 681 c 128,-1,8
 117 656 117 656 106.5 626.5 c 128,-1,9
 96 597 96 597 96 567 c 0,10,11
 96 539 96 539 106.5 517.5 c 128,-1,12
 117 496 117 496 143 467 c 1,13,14
 94 438 94 438 68.5 403 c 128,-1,15
 43 368 43 368 43 309 c 0,16,17
 43 279 43 279 57.5 245 c 128,-1,18
 72 211 72 211 108 187 c 2,19,-1
 318 47 l 2,20,21
 346 29 346 29 359.5 10.5 c 128,-1,22
 373 -8 373 -8 373 -32 c 0,23,24
 373 -58 373 -58 362.5 -74.5 c 128,-1,25
 352 -91 352 -91 336 -99.5 c 128,-1,26
 320 -108 320 -108 302.5 -111.5 c 128,-1,27
 285 -115 285 -115 268 -115 c 0,28,29
 236 -115 236 -115 216.5 -103 c 128,-1,30
 197 -91 197 -91 187 -73.5 c 128,-1,31
 177 -56 177 -56 174 -38 c 128,-1,32
 171 -20 171 -20 171 -3 c 1,33,-1
 83 -3 l 1,34,35
 83 -98 83 -98 137 -144.5 c 128,-1,36
 191 -191 191 -191 280 -191 c 0,37,38
 313 -191 313 -191 345 -180 c 128,-1,39
 377 -169 377 -169 403.5 -148 c 128,-1,40
 430 -127 430 -127 445.5 -97 c 128,-1,41
 461 -67 461 -67 461 -30 c 0,42,43
 461 5 461 5 448 30.5 c 128,-1,44
 435 56 435 56 409 84 c 1,45,46
 456 114 456 114 484 150.5 c 128,-1,47
 512 187 512 187 512 244 c 256,48,49
 512 301 512 301 484 337 c 128,-1,50
 456 373 456 373 403 404 c 2,51,-1
 257 490 l 2,52,53
 220 512 220 512 202 533 c 128,-1,54
 184 554 184 554 184 580 c 0,55,56
 184 621 184 621 212.5 641 c 128,-1,57
 241 661 241 661 276 661 c 0,58,59
 308 661 308 661 328.5 650 c 128,-1,60
 349 639 349 639 358.5 622 c 128,-1,61
 368 605 368 605 371 589 c 128,-1,62
 374 573 374 573 375 555 c 2,63,-1
 375 554 l 1,64,-1
 460 554 l 1,0,1
367 321 m 2,65,66
 395 304 395 304 412 280 c 128,-1,67
 429 256 429 256 429 225 c 0,68,69
 429 190 429 190 412 168.5 c 128,-1,70
 395 147 395 147 360 124 c 1,71,-1
 171 246 l 2,72,73
 155 256 155 256 140.5 276.5 c 128,-1,74
 126 297 126 297 126 331 c 0,75,76
 126 364 126 364 144 388 c 128,-1,77
 162 412 162 412 193 428 c 1,78,-1
 367 321 l 2,65,66
EndSplineSet
Validated: 9
EndChar

StartChar: copyright
Encoding: 169 169 98
Width: 737
Flags: W
LayerCount: 2
Fore
SplineSet
370 -19 m 256,0,1
 447 -19 447 -19 516 9 c 128,-1,2
 585 37 585 37 638.5 88.5 c 128,-1,3
 692 140 692 140 722 210 c 128,-1,4
 752 280 752 280 752 360 c 256,5,6
 752 440 752 440 722 509 c 128,-1,7
 692 578 692 578 638.5 629.5 c 128,-1,8
 585 681 585 681 516 709 c 128,-1,9
 447 737 447 737 370 737 c 256,10,11
 293 737 293 737 223 709 c 128,-1,12
 153 681 153 681 100 630 c 128,-1,13
 47 579 47 579 16.5 509.5 c 128,-1,14
 -14 440 -14 440 -14 360 c 256,15,16
 -14 280 -14 280 16 210 c 128,-1,17
 46 140 46 140 99.5 88.5 c 128,-1,18
 153 37 153 37 223 9 c 128,-1,19
 293 -19 293 -19 370 -19 c 256,0,1
62 360 m 0,20,21
 62 426 62 426 85.5 483.5 c 128,-1,22
 109 541 109 541 151 584 c 128,-1,23
 193 627 193 627 249.5 650.5 c 128,-1,24
 306 674 306 674 370 674 c 0,25,26
 433 674 433 674 489 650.5 c 128,-1,27
 545 627 545 627 587 584 c 128,-1,28
 629 541 629 541 652.5 483.5 c 128,-1,29
 676 426 676 426 676 360 c 0,30,31
 676 293 676 293 652.5 235 c 128,-1,32
 629 177 629 177 587 134 c 128,-1,33
 545 91 545 91 489 67.5 c 128,-1,34
 433 44 433 44 370 44 c 0,35,36
 306 44 306 44 249.5 67.5 c 128,-1,37
 193 91 193 91 151 134 c 128,-1,38
 109 177 109 177 85.5 235 c 128,-1,39
 62 293 62 293 62 360 c 0,20,21
501 289 m 1,40,41
 494 247 494 247 462 220.5 c 128,-1,42
 430 194 430 194 383 194 c 0,43,44
 317 194 317 194 276.5 243 c 128,-1,45
 236 292 236 292 236 362 c 0,46,47
 236 434 236 434 274 480 c 128,-1,48
 312 526 312 526 380 526 c 0,49,50
 427 526 427 526 459.5 501.5 c 128,-1,51
 492 477 492 477 501 435 c 1,52,-1
 568 435 l 1,53,54
 558 509 558 509 505.5 550.5 c 128,-1,55
 453 592 453 592 379 592 c 0,56,57
 279 592 279 592 219.5 527.5 c 128,-1,58
 160 463 160 463 160 361 c 0,59,60
 160 312 160 312 175.5 269.5 c 128,-1,61
 191 227 191 227 220.5 195 c 128,-1,62
 250 163 250 163 291.5 145.5 c 128,-1,63
 333 128 333 128 383 128 c 0,64,65
 453 128 453 128 504 172 c 128,-1,66
 555 216 555 216 569 289 c 1,67,-1
 501 289 l 1,40,41
EndSplineSet
Validated: 9
EndChar

StartChar: quotedblleft
Encoding: 170 8482 99
Width: 333
Flags: W
LayerCount: 2
Fore
SplineSet
307 576 m 1,0,-1
 254 576 l 1,1,2
 254 593 254 593 255.5 608.5 c 128,-1,3
 257 624 257 624 262 638.5 c 128,-1,4
 267 653 267 653 278 664 c 128,-1,5
 289 675 289 675 307 678 c 1,6,-1
 307 725 l 1,7,8
 250 712 250 712 226.5 671.5 c 128,-1,9
 203 631 203 631 203 568 c 2,10,-1
 203 470 l 1,11,-1
 307 470 l 1,12,-1
 307 576 l 1,0,-1
142 576 m 1,13,-1
 89 576 l 1,14,15
 89 593 89 593 90.5 608.5 c 128,-1,16
 92 624 92 624 97 638.5 c 128,-1,17
 102 653 102 653 113 664 c 128,-1,18
 124 675 124 675 142 678 c 1,19,-1
 142 725 l 1,20,21
 85 712 85 712 61.5 671.5 c 128,-1,22
 38 631 38 631 38 568 c 2,23,-1
 38 470 l 1,24,-1
 142 470 l 1,25,-1
 142 576 l 1,13,-1
EndSplineSet
Validated: 9
EndChar

StartChar: guillemotleft
Encoding: 171 180 100
Width: 556
Flags: W
LayerCount: 2
Fore
SplineSet
254 196 m 1,0,-1
 149 277 l 1,1,-1
 254 358 l 1,2,-1
 254 446 l 1,3,-1
 97 323 l 1,4,-1
 97 231 l 1,5,-1
 254 108 l 1,6,-1
 254 196 l 1,0,-1
459 196 m 1,7,-1
 354 277 l 1,8,-1
 459 358 l 1,9,-1
 459 446 l 1,10,-1
 302 323 l 1,11,-1
 302 231 l 1,12,-1
 459 108 l 1,13,-1
 459 196 l 1,7,-1
EndSplineSet
Validated: 9
EndChar

StartChar: degree
Encoding: 176 8734 101
Width: 400
Flags: W
LayerCount: 2
Fore
SplineSet
200 660 m 256,0,1
 239 660 239 660 268.5 628.5 c 128,-1,2
 298 597 298 597 298 557 c 256,3,4
 298 517 298 517 268.5 485.5 c 128,-1,5
 239 454 239 454 200 454 c 256,6,7
 161 454 161 454 131.5 485.5 c 128,-1,8
 102 517 102 517 102 557 c 256,9,10
 102 597 102 597 131.5 628.5 c 128,-1,11
 161 660 161 660 200 660 c 256,0,1
346 557 m 256,12,13
 346 619 346 619 304 661 c 128,-1,14
 262 703 262 703 200 703 c 256,15,16
 138 703 138 703 96 661 c 128,-1,17
 54 619 54 619 54 557 c 256,18,19
 54 495 54 495 96 453 c 128,-1,20
 138 411 138 411 200 411 c 256,21,22
 262 411 262 411 304 453 c 128,-1,23
 346 495 346 495 346 557 c 256,12,13
EndSplineSet
Validated: 9
EndChar

StartChar: twosuperior
Encoding: 178 8804 102
Width: 333
Flags: W
LayerCount: 2
Fore
SplineSet
79 552 m 1,0,-1
 79 553 l 2,1,2
 80 569 80 569 83 582.5 c 128,-1,3
 86 596 86 596 95 610.5 c 128,-1,4
 104 625 104 625 122 635 c 128,-1,5
 140 645 140 645 169 645 c 0,6,7
 213 645 213 645 233 626.5 c 128,-1,8
 253 608 253 608 253 579 c 0,9,10
 253 543 253 543 236 525.5 c 128,-1,11
 219 508 219 508 175 485 c 2,12,-1
 168 481 l 1,13,-1
 108 448 l 2,14,15
 61 422 61 422 34 382.5 c 128,-1,16
 7 343 7 343 4 281 c 1,17,-1
 323 281 l 1,18,-1
 323 342 l 1,19,-1
 79 342 l 1,20,21
 91 362 91 362 109 378.5 c 128,-1,22
 127 395 127 395 159 412 c 2,23,-1
 204 435 l 2,24,25
 264 465 264 465 293.5 495 c 128,-1,26
 323 525 323 525 323 577 c 0,27,28
 323 634 323 634 281.5 668.5 c 128,-1,29
 240 703 240 703 177 703 c 0,30,31
 153 703 153 703 127.5 698 c 128,-1,32
 102 693 102 693 77 677.5 c 128,-1,33
 52 662 52 662 35.5 631 c 128,-1,34
 19 600 19 600 19 552 c 1,35,-1
 79 552 l 1,0,-1
EndSplineSet
Validated: 9
EndChar

StartChar: threesuperior
Encoding: 179 8805 103
Width: 333
Flags: W
LayerCount: 2
Fore
SplineSet
5 410 m 1,0,1
 9 368 9 368 24 337 c 128,-1,2
 39 306 39 306 74 289 c 0,3,4
 112 270 112 270 158 270 c 0,5,6
 242 270 242 270 283.5 309.5 c 128,-1,7
 325 349 325 349 325 406 c 0,8,9
 325 446 325 446 305 469.5 c 128,-1,10
 285 493 285 493 249 503 c 1,11,-1
 249 505 l 1,12,13
 272 511 272 511 290 533 c 128,-1,14
 308 555 308 555 308 592 c 0,15,16
 308 641 308 641 270 672 c 128,-1,17
 232 703 232 703 167 703 c 0,18,19
 124 703 124 703 94.5 691 c 128,-1,20
 65 679 65 679 47.5 658.5 c 128,-1,21
 30 638 30 638 23 614.5 c 128,-1,22
 16 591 16 591 16 565 c 1,23,-1
 77 565 l 1,24,25
 79 599 79 599 96 622 c 128,-1,26
 113 645 113 645 158 645 c 0,27,28
 204 645 204 645 221 628 c 128,-1,29
 238 611 238 611 238 589 c 0,30,31
 238 552 238 552 215.5 537 c 128,-1,32
 193 522 193 522 156 522 c 2,33,-1
 129 522 l 1,34,-1
 129 471 l 1,35,-1
 152 471 l 2,36,37
 172 471 172 471 188 469.5 c 128,-1,38
 204 468 204 468 219.5 461 c 128,-1,39
 235 454 235 454 245 439 c 128,-1,40
 255 424 255 424 255 399 c 0,41,42
 255 363 255 363 229.5 345.5 c 128,-1,43
 204 328 204 328 159 328 c 0,44,45
 132 328 132 328 115 335.5 c 128,-1,46
 98 343 98 343 89.5 355 c 128,-1,47
 81 367 81 367 77.5 380.5 c 128,-1,48
 74 394 74 394 73 410 c 1,49,-1
 5 410 l 1,0,1
EndSplineSet
Validated: 9
EndChar

StartChar: periodcentered
Encoding: 180 165 104
Width: 278
Flags: W
LayerCount: 2
Fore
SplineSet
140 315 m 0,0,1
 115 315 115 315 96 297 c 128,-1,2
 77 279 77 279 77 252 c 0,3,4
 77 227 77 227 95.5 208.5 c 128,-1,5
 114 190 114 190 139 190 c 0,6,7
 166 190 166 190 184 209 c 128,-1,8
 202 228 202 228 202 252 c 0,9,10
 202 278 202 278 183 296.5 c 128,-1,11
 164 315 164 315 140 315 c 0,0,1
EndSplineSet
Validated: 9
EndChar

StartChar: paragraph
Encoding: 182 8706 105
Width: 537
Flags: W
LayerCount: 2
Fore
SplineSet
232 -173 m 1,0,-1
 305 -173 l 1,1,-1
 305 658 l 1,2,-1
 424 658 l 1,3,-1
 424 -173 l 1,4,-1
 497 -173 l 1,5,-1
 497 718 l 1,6,-1
 249 718 l 2,7,8
 140 718 140 718 79 671 c 128,-1,9
 18 624 18 624 18 528 c 0,10,11
 18 489 18 489 33.5 455.5 c 128,-1,12
 49 422 49 422 77.5 397 c 128,-1,13
 106 372 106 372 145.5 358 c 128,-1,14
 185 344 185 344 232 344 c 1,15,-1
 232 -173 l 1,0,-1
EndSplineSet
Validated: 9
EndChar

StartChar: bullet
Encoding: 183 8721 106
Width: 350
Flags: W
LayerCount: 2
Fore
SplineSet
333 359 m 256,0,1
 333 391 333 391 321 420 c 128,-1,2
 309 449 309 449 287 471 c 128,-1,3
 265 493 265 493 236 505 c 128,-1,4
 207 517 207 517 175 517 c 256,5,6
 143 517 143 517 114 505 c 128,-1,7
 85 493 85 493 63.5 471 c 128,-1,8
 42 449 42 449 30 420 c 128,-1,9
 18 391 18 391 18 359 c 256,10,11
 18 327 18 327 30 298 c 128,-1,12
 42 269 42 269 64 248 c 0,13,14
 110 202 110 202 175 202 c 0,15,16
 207 202 207 202 236 214 c 128,-1,17
 265 226 265 226 287 248 c 128,-1,18
 309 270 309 270 321 298.5 c 128,-1,19
 333 327 333 327 333 359 c 256,0,1
EndSplineSet
Validated: 9
EndChar

StartChar: quotesinglbase
Encoding: 184 8719 107
Width: 222
Flags: W
LayerCount: 2
Fore
SplineSet
53 0 m 1,0,-1
 106 0 l 1,1,2
 106 -17 106 -17 104.5 -32.5 c 128,-1,3
 103 -48 103 -48 98 -62.5 c 128,-1,4
 93 -77 93 -77 82 -88 c 128,-1,5
 71 -99 71 -99 53 -102 c 1,6,-1
 53 -149 l 1,7,8
 110 -136 110 -136 133.5 -95.5 c 128,-1,9
 157 -55 157 -55 157 8 c 2,10,-1
 157 106 l 1,11,-1
 53 106 l 1,12,-1
 53 0 l 1,0,-1
EndSplineSet
Validated: 9
EndChar

StartChar: quotedblbase
Encoding: 185 960 108
Width: 333
Flags: W
LayerCount: 2
Fore
SplineSet
26 0 m 1,0,-1
 79 0 l 1,1,2
 79 -17 79 -17 77.5 -32.5 c 128,-1,3
 76 -48 76 -48 71 -62.5 c 128,-1,4
 66 -77 66 -77 55 -88 c 128,-1,5
 44 -99 44 -99 26 -102 c 1,6,-1
 26 -149 l 1,7,8
 83 -136 83 -136 106.5 -95.5 c 128,-1,9
 130 -55 130 -55 130 8 c 2,10,-1
 130 106 l 1,11,-1
 26 106 l 1,12,-1
 26 0 l 1,0,-1
191 0 m 1,13,-1
 244 0 l 1,14,15
 244 -17 244 -17 242.5 -32.5 c 128,-1,16
 241 -48 241 -48 236 -62.5 c 128,-1,17
 231 -77 231 -77 220 -88 c 128,-1,18
 209 -99 209 -99 191 -102 c 1,19,-1
 191 -149 l 1,20,21
 248 -136 248 -136 271.5 -95.5 c 128,-1,22
 295 -55 295 -55 295 8 c 2,23,-1
 295 106 l 1,24,-1
 191 106 l 1,25,-1
 191 0 l 1,13,-1
EndSplineSet
Validated: 9
EndChar

StartChar: quotedblright
Encoding: 186 8747 109
Width: 333
Flags: W
LayerCount: 2
Fore
SplineSet
26 612 m 1,0,-1
 79 612 l 1,1,2
 79 595 79 595 77.5 579.5 c 128,-1,3
 76 564 76 564 71 549.5 c 128,-1,4
 66 535 66 535 55 524 c 128,-1,5
 44 513 44 513 26 510 c 1,6,-1
 26 463 l 1,7,8
 83 476 83 476 106.5 516.5 c 128,-1,9
 130 557 130 557 130 620 c 2,10,-1
 130 718 l 1,11,-1
 26 718 l 1,12,-1
 26 612 l 1,0,-1
191 612 m 1,13,-1
 244 612 l 1,14,15
 244 595 244 595 242.5 579.5 c 128,-1,16
 241 564 241 564 236 549.5 c 128,-1,17
 231 535 231 535 220 524 c 128,-1,18
 209 513 209 513 191 510 c 1,19,-1
 191 463 l 1,20,21
 248 476 248 476 271.5 516.5 c 128,-1,22
 295 557 295 557 295 620 c 2,23,-1
 295 718 l 1,24,-1
 191 718 l 1,25,-1
 191 612 l 1,13,-1
EndSplineSet
Validated: 9
EndChar

StartChar: guillemotright
Encoding: 187 170 110
Width: 556
Flags: W
LayerCount: 2
Fore
SplineSet
254 231 m 1,0,-1
 254 323 l 1,1,-1
 97 446 l 1,2,-1
 97 358 l 1,3,-1
 202 277 l 1,4,-1
 97 196 l 1,5,-1
 97 108 l 1,6,-1
 254 231 l 1,0,-1
459 231 m 1,7,-1
 459 323 l 1,8,-1
 302 446 l 1,9,-1
 302 358 l 1,10,-1
 407 277 l 1,11,-1
 302 196 l 1,12,-1
 302 108 l 1,13,-1
 459 231 l 1,7,-1
EndSplineSet
Validated: 9
EndChar

StartChar: ellipsis
Encoding: 188 186 111
Width: 1000
Flags: W
LayerCount: 2
Fore
SplineSet
219 106 m 1,0,-1
 115 106 l 1,1,-1
 115 0 l 1,2,-1
 219 0 l 1,3,-1
 219 106 l 1,0,-1
552 106 m 1,4,-1
 448 106 l 1,5,-1
 448 0 l 1,6,-1
 552 0 l 1,7,-1
 552 106 l 1,4,-1
885 106 m 1,8,-1
 781 106 l 1,9,-1
 781 0 l 1,10,-1
 885 0 l 1,11,-1
 885 106 l 1,8,-1
EndSplineSet
Validated: 9
EndChar

StartChar: perthousand
Encoding: 189 937 112
Width: 1000
Flags: W
LayerCount: 2
Fore
SplineSet
7 539 m 256,0,1
 7 507 7 507 19 478.5 c 128,-1,2
 31 450 31 450 52.5 428.5 c 128,-1,3
 74 407 74 407 102.5 395 c 128,-1,4
 131 383 131 383 163 383 c 256,5,6
 195 383 195 383 223.5 395 c 128,-1,7
 252 407 252 407 273.5 428.5 c 128,-1,8
 295 450 295 450 307 479 c 128,-1,9
 319 508 319 508 319 539 c 0,10,11
 319 571 319 571 307 599.5 c 128,-1,12
 295 628 295 628 273.5 649.5 c 128,-1,13
 252 671 252 671 223.5 683 c 128,-1,14
 195 695 195 695 163 695 c 0,15,16
 132 695 132 695 103 683 c 128,-1,17
 74 671 74 671 52.5 649.5 c 128,-1,18
 31 628 31 628 19 599.5 c 128,-1,19
 7 571 7 571 7 539 c 256,0,1
70 539 m 256,20,21
 70 577 70 577 97 604.5 c 128,-1,22
 124 632 124 632 163 632 c 0,23,24
 201 632 201 632 228.5 605 c 128,-1,25
 256 578 256 578 256 539 c 0,26,27
 256 501 256 501 228.5 473.5 c 128,-1,28
 201 446 201 446 163 446 c 0,29,30
 124 446 124 446 97 473.5 c 128,-1,31
 70 501 70 501 70 539 c 256,20,21
319 149 m 256,32,33
 319 117 319 117 331 88.5 c 128,-1,34
 343 60 343 60 364.5 38.5 c 128,-1,35
 386 17 386 17 414.5 5 c 128,-1,36
 443 -7 443 -7 475 -7 c 256,37,38
 507 -7 507 -7 535.5 5 c 128,-1,39
 564 17 564 17 585.5 38.5 c 128,-1,40
 607 60 607 60 619 89 c 128,-1,41
 631 118 631 118 631 149 c 0,42,43
 631 181 631 181 619 209.5 c 128,-1,44
 607 238 607 238 585.5 259.5 c 128,-1,45
 564 281 564 281 535.5 293 c 128,-1,46
 507 305 507 305 475 305 c 0,47,48
 444 305 444 305 415 293 c 128,-1,49
 386 281 386 281 364.5 259.5 c 128,-1,50
 343 238 343 238 331 209.5 c 128,-1,51
 319 181 319 181 319 149 c 256,32,33
382 149 m 256,52,53
 382 187 382 187 409 214.5 c 128,-1,54
 436 242 436 242 475 242 c 0,55,56
 513 242 513 242 540.5 215 c 128,-1,57
 568 188 568 188 568 149 c 0,58,59
 568 111 568 111 540.5 83.5 c 128,-1,60
 513 56 513 56 475 56 c 0,61,62
 436 56 436 56 409 83.5 c 128,-1,63
 382 111 382 111 382 149 c 256,52,53
682 149 m 256,64,65
 682 117 682 117 694 88.5 c 128,-1,66
 706 60 706 60 727.5 38.5 c 128,-1,67
 749 17 749 17 777.5 5 c 128,-1,68
 806 -7 806 -7 838 -7 c 256,69,70
 870 -7 870 -7 898.5 5 c 128,-1,71
 927 17 927 17 948.5 38.5 c 128,-1,72
 970 60 970 60 982 89 c 128,-1,73
 994 118 994 118 994 149 c 0,74,75
 994 181 994 181 982 209.5 c 128,-1,76
 970 238 970 238 948.5 259.5 c 128,-1,77
 927 281 927 281 898.5 293 c 128,-1,78
 870 305 870 305 838 305 c 0,79,80
 807 305 807 305 778 293 c 128,-1,81
 749 281 749 281 727.5 259.5 c 128,-1,82
 706 238 706 238 694 209.5 c 128,-1,83
 682 181 682 181 682 149 c 256,64,65
745 149 m 256,84,85
 745 187 745 187 772 214.5 c 128,-1,86
 799 242 799 242 838 242 c 0,87,88
 876 242 876 242 903.5 215 c 128,-1,89
 931 188 931 188 931 149 c 0,90,91
 931 111 931 111 903.5 83.5 c 128,-1,92
 876 56 876 56 838 56 c 0,93,94
 799 56 799 56 772 83.5 c 128,-1,95
 745 111 745 111 745 149 c 256,84,85
544 703 m 1,96,-1
 489 703 l 1,97,-1
 92 -19 l 1,98,-1
 147 -19 l 1,99,-1
 544 703 l 1,96,-1
EndSplineSet
Validated: 9
EndChar

StartChar: RoiBlanc
Encoding: 192 191 113
Width: 855
Flags: W
LayerCount: 2
Fore
SplineSet
426 444 m 1,0,1
 445.74796748 472.211382114 445.74796748 472.211382114 473 571 c 1,2,3
 473 602 473 602 458.5 620 c 128,-1,4
 444 638 444 638 426 640 c 0,5,6
 408 638 408 638 393.5 620 c 128,-1,7
 379 602 379 602 379 571 c 1,8,9
 404.571428571 481.5 404.571428571 481.5 426 444 c 1,0,1
426 49 m 256,10,11
 502 49 502 49 555 55.5 c 128,-1,12
 608 62 608 62 608 73 c 0,13,14
 608 90 608 90 560 97 c 128,-1,15
 512 104 512 104 426 107 c 1,16,17
 340 104 340 104 292 97 c 128,-1,18
 244 90 244 90 244 73 c 0,19,20
 244 62 244 62 297 55.5 c 128,-1,21
 350 49 350 49 426 49 c 256,10,11
384 327 m 0,22,23
 384 387 384 387 360 429.5 c 128,-1,24
 336 472 336 472 302 496.5 c 0,25,26
 244.074074074 538.240740741 244.074074074 538.240740741 190 545 c 0,27,28
 166 544 166 544 147 540.5 c 0,29,30
 79.6157130658 528.087105038 79.6157130658 528.087105038 77 447 c 1,31,32
 105 372 105 372 138 336.5 c 128,-1,33
 171 301 171 301 197 301 c 2,34,-1
 248 301 l 2,35,36
 384 301 384 301 384 327 c 0,22,23
767 502.5 m 128,-1,38
 758 519 758 519 737.475062344 530.917705736 c 128,-1,39
 716.950124688 542.835411471 716.950124688 542.835411471 665 545 c 1,40,41
 612.018705036 538.766906475 612.018705036 538.766906475 552.5 496.5 c 0,42,43
 518 472 518 472 494 429 c 128,-1,44
 470 386 470 386 470 327 c 0,45,46
 470 311 470 311 507.5 305.5 c 128,-1,47
 545 300 545 300 651 296 c 0,48,49
 662 296 662 296 683 313 c 128,-1,50
 704 330 704 330 725.5 356.5 c 128,-1,51
 747 383 747 383 761.5 410.5 c 128,-1,52
 776 438 776 438 776 462 c 128,-1,37
 776 486 776 486 767 502.5 c 128,-1,38
666 618 m 0,53,54
 730.325581395 618 730.325581395 618 780 573.5 c 0,55,56
 804 552 804 552 818 522.5 c 128,-1,57
 832 493 832 493 832 456 c 128,-1,58
 832 419 832 419 819.5 393 c 128,-1,59
 807 367 807 367 784 337 c 128,-1,60
 761 307 761 307 748.5 286.5 c 0,61,62
 699 205.32 699 205.32 699 86 c 1,63,64
 695 38 695 38 628.5 16 c 128,-1,65
 562 -6 562 -6 426 -6 c 256,66,67
 290 -6 290 -6 224 16 c 128,-1,68
 158 38 158 38 154 84 c 1,69,70
 154 178.333333333 154 178.333333333 128 239 c 0,71,72
 116 267 116 267 104 286 c 128,-1,73
 92 305 92 305 68.5 336 c 128,-1,74
 45 367 45 367 32.5 393 c 128,-1,75
 20 419 20 419 20 457 c 0,76,77
 20 527.428571429 20 527.428571429 72.5 573.5 c 0,78,79
 97 595 97 595 126.5 606.5 c 128,-1,80
 156 618 156 618 194.5 617.5 c 128,-1,81
 233 617 233 617 263.5 602 c 128,-1,82
 294 587 294 587 318 566 c 1,83,84
 319 575 319 575 319.5 603.5 c 128,-1,85
 320 632 320 632 332 656 c 128,-1,86
 344 680 344 680 392 714 c 1,87,-1
 392 745 l 1,88,-1
 338 778 l 1,89,-1
 338 826 l 1,90,-1
 387 826 l 1,91,-1
 404 877 l 1,92,-1
 448 877 l 1,93,-1
 466 826 l 1,94,-1
 514 826 l 1,95,-1
 514 778 l 1,96,-1
 460 745 l 1,97,-1
 460 714 l 1,98,99
 506.253623188 681.97826087 506.253623188 681.97826087 523.5 648.5 c 0,100,101
 532 632 532 632 533 604.5 c 128,-1,102
 534 577 534 577 535 566 c 1,103,104
 590.431372549 616.392156863 590.431372549 616.392156863 666 618 c 0,53,54
639 216 m 2,105,106
 639 229 639 229 632.5 235.5 c 128,-1,107
 626 242 626 242 608 246 c 128,-1,108
 590 250 590 250 555 252.5 c 128,-1,109
 520 255 520 255 479.5 257.5 c 128,-1,110
 439 260 439 260 428 261 c 0,111,112
 417 260 417 260 345.846153846 255.854700855 c 128,-1,113
 274.692307692 251.709401709 274.692307692 251.709401709 249 246 c 0,114,115
 231 242 231 242 224.5 235.5 c 128,-1,116
 218 229 218 229 218 216 c 2,117,-1
 220 180 l 1,118,-1
 220 169 l 1,119,120
 219 162 219 162 219 159 c 0,121,122
 219 143 219 143 233 143 c 0,123,124
 242 143 242 143 259 149 c 1,125,126
 274 149 274 149 326.5 153.5 c 128,-1,127
 379 158 379 158 426.5 158 c 128,-1,128
 474 158 474 158 527 153.5 c 128,-1,129
 580 149 580 149 597 149 c 1,130,131
 614 143 614 143 624 143 c 0,132,133
 638 143 638 143 638 161 c 1,134,-1
 637 169 l 1,135,-1
 637 180 l 257,136,-1
 639 216 l 2,105,106
EndSplineSet
Validated: 524321
EndChar

StartChar: DameBlanche
Encoding: 193 161 114
Width: 986
Flags: W
LayerCount: 2
Fore
SplineSet
102 695 m 256,0,1
 89 695 89 695 79 685 c 128,-1,2
 69 675 69 675 69 662 c 0,3,4
 69 648 69 648 79 638 c 128,-1,5
 89 628 89 628 102 628 c 256,6,7
 115 628 115 628 124.5 638 c 128,-1,8
 134 648 134 648 134 662 c 0,9,10
 134 675 134 675 124.5 685 c 128,-1,11
 115 695 115 695 102 695 c 256,0,1
277 780 m 256,12,13
 264 780 264 780 254 770 c 128,-1,14
 244 760 244 760 244 747 c 0,15,16
 244 733 244 733 254 723 c 128,-1,17
 264 713 264 713 277 713 c 256,18,19
 290 713 290 713 299.5 723 c 128,-1,20
 309 733 309 733 309 747 c 0,21,22
 309 760 309 760 299.5 770 c 128,-1,23
 290 780 290 780 277 780 c 256,12,13
703 780 m 256,24,25
 690 780 690 780 680.5 770 c 128,-1,26
 671 760 671 760 671 747 c 0,27,28
 671 733 671 733 680.5 723 c 128,-1,29
 690 713 690 713 703 713 c 0,30,31
 717 713 717 713 726.5 723 c 128,-1,32
 736 733 736 733 736 747 c 0,33,34
 736 760 736 760 726 770 c 128,-1,35
 716 780 716 780 703 780 c 256,24,25
878 695 m 256,36,37
 865 695 865 695 855.5 685 c 128,-1,38
 846 675 846 675 846 662 c 0,39,40
 846 648 846 648 855.5 638 c 128,-1,41
 865 628 865 628 878 628 c 0,42,43
 892 628 892 628 901.5 638 c 128,-1,44
 911 648 911 648 911 662 c 0,45,46
 911 675 911 675 901 685 c 128,-1,47
 891 695 891 695 878 695 c 256,36,37
491 860 m 0,48,49
 520 860 520 860 542 838 c 128,-1,50
 564 816 564 816 564 785 c 0,51,52
 564 775 564 775 556 757 c 0,53,54
 546 737 546 737 540.5 715 c 128,-1,55
 535 693 535 693 535 656 c 0,56,57
 535 621 535 621 542 573.5 c 128,-1,58
 549 526 549 526 564 462 c 1,59,60
 605 547 605 547 620.5 602 c 128,-1,61
 636 657 636 657 636 691 c 0,62,63
 636 710 636 710 631 733 c 0,64,65
 628 744 628 744 628 749 c 0,66,67
 628 780 628 780 650 802 c 128,-1,68
 672 824 672 824 703 824 c 256,69,70
 734 824 734 824 756 802 c 128,-1,71
 778 780 778 780 778 749 c 0,72,73
 778 725 778 725 772.5 715 c 128,-1,74
 767 705 767 705 754 695 c 0,75,76
 736 681 736 681 726.5 658.5 c 128,-1,77
 717 636 717 636 717 577 c 0,78,79
 717 532 717 532 724 464 c 1,80,81
 773 513 773 513 791.5 548 c 128,-1,82
 810 583 810 583 810 610 c 0,83,84
 810 621 810 621 806 640 c 0,85,86
 803 655 803 655 803 662 c 0,87,88
 803 693 803 693 825 715 c 128,-1,89
 847 737 847 737 878 737 c 256,90,91
 909 737 909 737 931 715 c 128,-1,92
 953 693 953 693 953 662 c 0,93,94
 952 637 952 637 936.5 615.5 c 128,-1,95
 921 594 921 594 891 580 c 1,96,97
 889 535 889 535 880 491.5 c 128,-1,98
 871 448 871 448 853 376 c 0,99,100
 849 364 849 364 843 338 c 0,101,102
 842 324 842 324 831.5 310 c 128,-1,103
 821 296 821 296 801 274 c 0,104,105
 779 251 779 251 766.5 234.5 c 128,-1,106
 754 218 754 218 747 199 c 0,107,108
 745 191 745 191 745 184 c 0,109,110
 745 169 745 169 759 141 c 0,111,112
 769 121 769 121 774.5 105 c 128,-1,113
 780 89 780 89 780 69 c 0,114,115
 780 67 780 67 780 60 c 0,116,117
 779 54 779 54 779 50 c 0,118,119
 779 49 779 49 779 48 c 0,120,121
 780 46 780 46 780 46 c 1,122,123
 780 28 780 28 738.5 17 c 128,-1,124
 697 6 697 6 643.5 1 c 128,-1,125
 590 -4 590 -4 549 -5 c 128,-1,126
 508 -6 508 -6 490 -6 c 256,127,128
 472 -6 472 -6 432 -5 c 128,-1,129
 392 -4 392 -4 337 1 c 128,-1,130
 282 6 282 6 241.5 17 c 128,-1,131
 201 28 201 28 201 46 c 2,132,133
 201 46 201 46 201 48 c 0,134,135
 201 49 201 49 201 50 c 0,136,137
 201 54 201 54 200 60 c 0,138,139
 200 67 200 67 200 69 c 0,140,141
 200 89 200 89 205.5 104.5 c 128,-1,142
 211 120 211 120 221 141 c 0,143,144
 236 169 236 169 236 184 c 0,145,146
 236 191 236 191 233 199 c 0,147,148
 226 218 226 218 214 234 c 128,-1,149
 202 250 202 250 180 274 c 0,150,151
 159 296 159 296 148.5 310 c 128,-1,152
 138 324 138 324 137 338 c 0,153,154
 131 364 131 364 127 376 c 0,155,156
 109 448 109 448 100 492 c 128,-1,157
 91 536 91 536 89 580 c 1,158,159
 59 594 59 594 43.5 615.5 c 128,-1,160
 28 637 28 637 27 662 c 0,161,162
 27 693 27 693 49 715 c 128,-1,163
 71 737 71 737 102 737 c 256,164,165
 133 737 133 737 155 715 c 128,-1,166
 177 693 177 693 177 662 c 0,167,168
 177 655 177 655 174 640 c 0,169,170
 171 621 171 621 171 610 c 0,171,172
 171 583 171 583 189 548 c 128,-1,173
 207 513 207 513 256 464 c 1,174,175
 263 532 263 532 263 577 c 0,176,177
 263 637 263 637 253.5 659.5 c 128,-1,178
 244 682 244 682 226 696 c 0,179,180
 213 705 213 705 207.5 715 c 128,-1,181
 202 725 202 725 202 749 c 0,182,183
 202 780 202 780 224 802 c 128,-1,184
 246 824 246 824 277 824 c 256,185,186
 308 824 308 824 330 802 c 128,-1,187
 352 780 352 780 352 749 c 0,188,189
 352 744 352 744 349 733 c 0,190,191
 344 710 344 710 344 691 c 0,192,193
 344 657 344 657 360 602 c 128,-1,194
 376 547 376 547 416 462 c 1,195,196
 431 526 431 526 438 573.5 c 128,-1,197
 445 621 445 621 445 657 c 0,198,199
 445 694 445 694 439.5 715.5 c 128,-1,200
 434 737 434 737 424 758 c 0,201,202
 416 776 416 776 416 785 c 0,203,204
 416 816 416 816 438 838 c 128,-1,205
 460 860 460 860 491 860 c 0,48,49
491 821 m 256,206,207
 478 821 478 821 468 811 c 128,-1,208
 458 801 458 801 458 788 c 0,209,210
 458 774 458 774 468 764 c 128,-1,211
 478 754 478 754 491 754 c 256,212,213
 504 754 504 754 513.5 764 c 128,-1,214
 523 774 523 774 523 788 c 0,215,216
 523 801 523 801 513.5 811 c 128,-1,217
 504 821 504 821 491 821 c 256,206,207
391 403 m 1,218,219
 318 546 l 1,220,-1
 308 386 l 1,221,222
 337 393 337 393 391 403 c 1,218,219
261 374 m 1,223,-1
 165 470 l 1,224,-1
 198 355 l 1,225,226
 216 361 216 361 243 369 c 2,227,-1
 261 374 l 1,223,-1
523 408 m 1,228,-1
 491 562 l 1,229,-1
 460 408 l 1,230,-1
 491 408 l 1,231,-1
 523 408 l 1,228,-1
491 359 m 1,232,233
 396 352 396 352 327.5 336 c 128,-1,234
 259 320 259 320 259 307 c 1,235,236
 251 307 251 307 251 295 c 0,237,238
 251 287 251 287 258.5 281.5 c 128,-1,239
 266 276 266 276 282 276 c 256,240,241
 298 276 298 276 318 281 c 0,242,243
 342 284 342 284 362.5 286 c 128,-1,244
 383 288 383 288 405 289 c 0,245,246
 438 291 438 291 451.5 292.5 c 128,-1,247
 465 294 465 294 491 297 c 1,248,249
 514 294 514 294 533 292 c 128,-1,250
 552 290 552 290 577 289 c 0,251,252
 607 287 607 287 622 286 c 128,-1,253
 637 285 637 285 664 281 c 0,254,255
 685 276 685 276 700 276 c 0,256,257
 717 276 717 276 724.5 281.5 c 128,-1,258
 732 287 732 287 732 295 c 0,259,260
 732 307 732 307 723 307 c 1,261,262
 723 320 723 320 654 336 c 128,-1,263
 585 352 585 352 491 359 c 1,232,233
491 120 m 0,264,265
 440 119 440 119 405.5 118 c 128,-1,266
 371 117 371 117 340 113 c 128,-1,267
 309 109 309 109 291 101.5 c 128,-1,268
 273 94 273 94 273 82 c 0,269,270
 273 66 273 66 333.5 57.5 c 128,-1,271
 394 49 394 49 491 49 c 256,272,273
 588 49 588 49 648.5 57.5 c 128,-1,274
 709 66 709 66 709 82 c 0,275,276
 709 94 709 94 691 101.5 c 128,-1,277
 673 109 673 109 642 113 c 128,-1,278
 611 117 611 117 573.5 118.5 c 128,-1,279
 536 120 536 120 491 120 c 0,264,265
491 245 m 0,280,281
 465 244 465 244 420 242 c 0,282,283
 342 240 342 240 319.5 233 c 128,-1,284
 297 226 297 226 297 198 c 0,285,286
 297 196 297 196 297 190 c 0,287,288
 298 184 298 184 298 181 c 0,289,290
 298 180 298 180 297 178 c 0,291,292
 297 176 297 176 297 175 c 0,293,294
 297 160 297 160 339 160 c 0,295,296
 356 160 356 160 404 163 c 0,297,298
 459 167 459 167 491 168 c 0,299,300
 523 167 523 167 578 163 c 0,301,302
 626 160 626 160 643 160 c 0,303,304
 685 160 685 160 685 175 c 0,305,306
 685 176 685 176 685 178 c 0,307,308
 684 180 684 180 684 181 c 0,309,310
 684 184 684 184 685 190 c 0,311,312
 685 196 685 196 685 198 c 0,313,314
 685 226 685 226 662.5 233 c 128,-1,315
 640 240 640 240 562 242 c 0,316,317
 517 244 517 244 491 245 c 0,280,281
721 374 m 1,318,-1
 739 369 l 2,319,320
 766 361 766 361 784 355 c 1,321,-1
 817 470 l 1,322,-1
 721 374 l 1,318,-1
591 403 m 1,323,324
 645 393 645 393 674 386 c 1,325,-1
 664 546 l 1,326,-1
 591 403 l 1,323,324
EndSplineSet
Validated: 1
EndChar

StartChar: TourBlanche
Encoding: 194 172 115
Width: 753
Flags: W
LayerCount: 2
Fore
SplineSet
385 572 m 1,0,-1
 530 572 l 1,1,-1
 624 659 l 1,2,-1
 624 715 l 1,3,-1
 588 715 l 1,4,-1
 588 682 l 1,5,-1
 561 655 l 1,6,-1
 440 655 l 1,7,-1
 410 685 l 1,8,-1
 410 715 l 1,9,-1
 385 715 l 1,10,-1
 360 715 l 1,11,-1
 360 685 l 1,12,-1
 330 655 l 1,13,-1
 209 655 l 1,14,-1
 182 682 l 1,15,-1
 182 715 l 1,16,-1
 146 715 l 1,17,-1
 146 659 l 1,18,-1
 240 572 l 1,19,-1
 385 572 l 1,0,-1
385 284 m 1,20,-1
 517 284 l 1,21,-1
 518 505 l 1,22,-1
 385 505 l 1,23,-1
 252 505 l 1,24,-1
 253 284 l 1,25,-1
 385 284 l 1,20,-1
385 782 m 1,26,-1
 459 782 l 1,27,-1
 482 759 l 1,28,-1
 482 725 l 1,29,-1
 520 725 l 1,30,-1
 520 759 l 1,31,-1
 543 782 l 1,32,-1
 666 782 l 1,33,-1
 704 744 l 1,34,-1
 704 624 l 1,35,-1
 585 521 l 1,36,-1
 585 254 l 1,37,-1
 723 117 l 1,38,-1
 723 25 l 1,39,-1
 697 -1 l 1,40,-1
 385 -1 l 1,41,-1
 73 -1 l 1,42,-1
 47 25 l 1,43,-1
 47 117 l 1,44,-1
 185 254 l 1,45,-1
 185 521 l 1,46,-1
 66 624 l 1,47,-1
 66 744 l 1,48,-1
 104 782 l 1,49,-1
 227 782 l 1,50,-1
 250 759 l 1,51,-1
 250 725 l 1,52,-1
 288 725 l 1,53,-1
 288 759 l 1,54,-1
 311 782 l 1,55,-1
 385 782 l 1,26,-1
385 98 m 1,56,-1
 154 98 l 1,57,-1
 142 88 l 1,58,-1
 142 62 l 1,59,-1
 385 62 l 1,60,-1
 628 62 l 1,61,-1
 628 88 l 1,62,-1
 616 98 l 1,63,-1
 385 98 l 1,56,-1
385 163 m 1,64,-1
 549 163 l 1,65,-1
 549 187 l 1,66,-1
 517 219 l 1,67,-1
 385 219 l 1,68,-1
 253 219 l 1,69,-1
 221 187 l 1,70,-1
 221 163 l 1,71,-1
 385 163 l 1,64,-1
EndSplineSet
Validated: 1
EndChar

StartChar: FouBlanc
Encoding: 195 8730 116
Width: 922
Flags: W
LayerCount: 2
Fore
SplineSet
475 54 m 1,0,1
 455 34 455 34 429 21 c 128,-1,2
 403 8 403 8 371 0 c 0,3,4
 332 -10 332 -10 252 -17 c 0,5,6
 194 -22 194 -22 167 -29 c 128,-1,7
 140 -36 140 -36 135 -55 c 1,8,9
 113 -45 113 -45 99.5 -30 c 128,-1,10
 86 -15 86 -15 69 13 c 0,11,12
 53 40 53 40 42 54 c 1,13,14
 69 105 69 105 94 122 c 128,-1,15
 119 139 119 139 153 139 c 0,16,17
 163 139 163 139 186 138 c 0,18,19
 216 135 216 135 231 135 c 0,20,21
 260 135 260 135 292 141 c 128,-1,22
 324 147 324 147 360 161 c 1,23,24
 307 167 307 167 286.5 181.5 c 128,-1,25
 266 196 266 196 266 217 c 0,26,27
 266 232 266 232 279 266 c 0,28,29
 293 300 293 300 293 316 c 0,30,31
 293 324 293 324 290 331 c 0,32,33
 249 372 249 372 230.5 411.5 c 128,-1,34
 212 451 212 451 212 489 c 0,35,36
 212 536 212 536 237 578 c 128,-1,37
 262 620 262 620 297.5 650 c 128,-1,38
 333 680 333 680 366 698.5 c 128,-1,39
 399 717 399 717 411 719 c 1,40,41
 382 754 382 754 382 794 c 0,42,43
 382 829 382 829 406 852.5 c 128,-1,44
 430 876 430 876 475 876 c 256,45,46
 520 876 520 876 544 852.5 c 128,-1,47
 568 829 568 829 568 794 c 0,48,49
 568 754 568 754 539 719 c 1,50,51
 551 717 551 717 584 698.5 c 128,-1,52
 617 680 617 680 652.5 649.5 c 128,-1,53
 688 619 688 619 713 577.5 c 128,-1,54
 738 536 738 536 738 489 c 0,55,56
 738 451 738 451 719.5 411.5 c 128,-1,57
 701 372 701 372 660 331 c 0,58,59
 657 324 657 324 657 316 c 0,60,61
 657 300 657 300 671 266 c 256,62,63
 685 232 685 232 685 217 c 0,64,65
 685 196 685 196 663.5 181.5 c 128,-1,66
 642 167 642 167 590 161 c 1,67,68
 626 147 626 147 658 141 c 128,-1,69
 690 135 690 135 719 135 c 0,70,71
 734 135 734 135 764 138 c 0,72,73
 787 139 787 139 797 139 c 0,74,75
 831 139 831 139 856 122 c 128,-1,76
 881 105 881 105 908 54 c 1,77,78
 897 40 897 40 881 13 c 0,79,80
 864 -16 864 -16 851 -30.5 c 128,-1,81
 838 -45 838 -45 815 -55 c 1,82,83
 810 -36 810 -36 782.5 -29 c 128,-1,84
 755 -22 755 -22 698 -17 c 0,85,86
 618 -10 618 -10 565 3.5 c 128,-1,87
 512 17 512 17 475 54 c 1,0,1
475 138 m 1,88,89
 493 113 493 113 524 95 c 128,-1,90
 555 77 555 77 592 67 c 128,-1,91
 629 57 629 57 666.5 52.5 c 128,-1,92
 704 48 704 48 736 48 c 0,93,94
 763 48 763 48 779.5 50.5 c 128,-1,95
 796 53 796 53 796 57 c 2,96,97
 796 57 796 57 796 58 c 0,98,99
 795 59 795 59 795 59 c 2,100,101
 795 63 795 63 784 65 c 128,-1,102
 773 67 773 67 749 68 c 0,103,104
 709 70 709 70 677.5 73.5 c 128,-1,105
 646 77 646 77 609 87.5 c 128,-1,106
 572 98 572 98 536.5 120 c 128,-1,107
 501 142 501 142 475 177 c 1,108,109
 449 142 449 142 413.5 120 c 128,-1,110
 378 98 378 98 341 87.5 c 128,-1,111
 304 77 304 77 272.5 73.5 c 128,-1,112
 241 70 241 70 202 68 c 0,113,114
 175 66 175 66 165 64.5 c 128,-1,115
 155 63 155 63 155 59 c 2,116,117
 155 59 155 59 154 58 c 0,118,119
 154 57 154 57 154 57 c 2,120,121
 154 53 154 53 171 50.5 c 128,-1,122
 188 48 188 48 214 48 c 0,123,124
 246 48 246 48 283.5 52 c 128,-1,125
 321 56 321 56 358 66.5 c 128,-1,126
 395 77 395 77 426 95 c 128,-1,127
 457 113 457 113 475 138 c 1,88,89
475 444 m 1,128,-1
 450 444 l 1,129,-1
 450 505 l 1,130,-1
 405 505 l 1,131,-1
 405 556 l 1,132,-1
 450 556 l 1,133,-1
 450 614 l 1,134,-1
 475 614 l 1,135,-1
 500 614 l 1,136,-1
 500 556 l 1,137,-1
 545 556 l 1,138,-1
 545 505 l 1,139,-1
 500 505 l 1,140,-1
 500 444 l 1,141,-1
 475 444 l 1,128,-1
475 389 m 0,142,143
 515 387 515 387 539 387 c 0,144,145
 575 387 575 387 596.5 392 c 128,-1,146
 618 397 618 397 630.5 409 c 128,-1,147
 643 421 643 421 649 442 c 128,-1,148
 655 463 655 463 657 498 c 0,149,150
 659 504 659 504 659 510 c 0,151,152
 659 533 659 533 638 562.5 c 128,-1,153
 617 592 617 592 585.5 619 c 128,-1,154
 554 646 554 646 523 664 c 128,-1,155
 492 682 492 682 475 684 c 0,156,157
 458 682 458 682 427 664 c 128,-1,158
 396 646 396 646 364.5 619 c 128,-1,159
 333 592 333 592 312 562.5 c 128,-1,160
 291 533 291 533 291 510 c 0,161,162
 291 504 291 504 293 498 c 0,163,164
 296 462 296 462 301.5 441.5 c 128,-1,165
 307 421 307 421 319.5 409 c 128,-1,166
 332 397 332 397 353.5 392 c 128,-1,167
 375 387 375 387 411 387 c 0,168,169
 435 387 435 387 475 389 c 0,142,143
475 251 m 0,170,171
 429 251 429 251 411 246.5 c 128,-1,172
 393 242 393 242 393 226 c 0,173,174
 393 211 393 211 414 206 c 128,-1,175
 435 201 435 201 475 201 c 0,176,177
 519 201 519 201 537.5 205.5 c 128,-1,178
 556 210 556 210 556 226 c 0,179,180
 556 241 556 241 535 246 c 128,-1,181
 514 251 514 251 475 251 c 0,170,171
475 342 m 1,182,-1
 473 342 l 1,183,184
 405 338 405 338 373.5 332 c 128,-1,185
 342 326 342 326 342 308 c 0,186,187
 342 293 342 293 370.5 289 c 128,-1,188
 399 285 399 285 475 285 c 256,189,190
 551 285 551 285 579.5 289 c 128,-1,191
 608 293 608 293 608 308 c 0,192,193
 608 327 608 327 578.5 333 c 128,-1,194
 549 339 549 339 485 342 c 2,195,-1
 475 342 l 1,182,-1
475 821 m 256,196,197
 461 821 461 821 450.5 811.5 c 128,-1,198
 440 802 440 802 440 789 c 256,199,200
 440 776 440 776 450.5 766 c 128,-1,201
 461 756 461 756 475 756 c 256,202,203
 489 756 489 756 499 766 c 128,-1,204
 509 776 509 776 509 789 c 256,205,206
 509 802 509 802 499 811.5 c 128,-1,207
 489 821 489 821 475 821 c 256,196,197
EndSplineSet
Validated: 1
EndChar

StartChar: CavaBlanc
Encoding: 196 402 117
Width: 853
Flags: W
LayerCount: 2
Fore
SplineSet
817 -3 m 1,0,1
 516 -2 l 1,2,-1
 256 -1 l 1,3,4
 260 64 260 64 281 104.5 c 128,-1,5
 302 145 302 145 340 193 c 0,6,7
 371 231 371 231 387 259 c 128,-1,8
 403 287 403 287 407 326 c 1,9,10
 343 299 343 299 310.5 264.5 c 128,-1,11
 278 230 278 230 252 185 c 0,12,13
 240 162 240 162 232 152.5 c 128,-1,14
 224 143 224 143 213 142 c 1,15,16
 183 153 183 153 141 165 c 0,17,18
 115 173 115 173 100 178.5 c 128,-1,19
 85 184 85 184 71.5 192.5 c 128,-1,20
 58 201 58 201 46.5 216.5 c 128,-1,21
 35 232 35 232 23 256 c 1,22,23
 30 298 30 298 49 343 c 128,-1,24
 68 388 68 388 104 461 c 0,25,26
 138 529 138 529 157 573 c 128,-1,27
 176 617 176 617 189 662 c 0,28,29
 191 679 191 679 191 694 c 0,30,31
 191 707 191 707 189.5 723 c 128,-1,32
 188 739 188 739 183 768 c 1,33,-1
 183 769 l 1,34,35
 207 769 207 769 233 763.5 c 128,-1,36
 259 758 259 758 281.5 749.5 c 128,-1,37
 304 741 304 741 318 733.5 c 128,-1,38
 332 726 332 726 332 724 c 1,39,40
 351 756 351 756 368 772 c 128,-1,41
 385 788 385 788 392 788 c 0,42,43
 425 771 425 771 438 750.5 c 128,-1,44
 451 730 451 730 466 679 c 1,45,46
 476 682 476 682 489 682 c 0,47,48
 534 682 534 682 591 648 c 128,-1,49
 648 614 648 614 701 544.5 c 128,-1,50
 754 475 754 475 788 365 c 128,-1,51
 822 255 822 255 822 110 c 0,52,53
 822 55 822 55 817 -3 c 1,0,1
231 543 m 0,54,55
 232 542 232 542 234 542 c 256,56,57
 236 542 236 542 243 549 c 0,58,59
 250 557 250 557 257.5 562 c 128,-1,60
 265 567 265 567 275 567 c 0,61,62
 286 567 286 567 298 561 c 1,63,64
 302 549 302 549 302 537 c 0,65,66
 302 523 302 523 296 506 c 0,67,68
 285 484 285 484 273 474.5 c 128,-1,69
 261 465 261 465 247 465 c 0,70,71
 237 465 237 465 220 471 c 0,72,73
 208 475 208 475 203 475 c 0,74,75
 200 475 200 475 197 473 c 0,76,77
 188 469 188 469 179 454 c 128,-1,78
 170 439 170 439 156 410 c 0,79,80
 137 368 137 368 126 354 c 1,81,82
 170 339 170 339 170 311 c 0,83,84
 170 282 170 282 123 256 c 0,85,86
 123 255 123 255 123 252 c 0,87,88
 122 249 122 249 122 248 c 0,89,90
 122 240 122 240 129 240 c 0,91,92
 135 240 135 240 157 251 c 0,93,94
 175 260 175 260 187 264.5 c 128,-1,95
 199 269 199 269 210 269 c 256,96,97
 221 269 221 269 229 263 c 1,98,99
 247 297 247 297 267 313.5 c 128,-1,100
 287 330 287 330 318 344 c 0,101,102
 351 360 351 360 364 374 c 0,103,104
 376 386 376 386 388 402.5 c 128,-1,105
 400 419 400 419 417 445 c 0,106,107
 442 482 442 482 456 499 c 128,-1,108
 470 516 470 516 481 516 c 0,109,110
 485 516 485 516 489 512 c 1,111,112
 489 438 489 438 481 382.5 c 128,-1,113
 473 327 473 327 459.5 286.5 c 128,-1,114
 446 246 446 246 431 218.5 c 128,-1,115
 416 191 416 191 393 156 c 0,116,117
 374 126 374 126 362.5 104.5 c 128,-1,118
 351 83 351 83 342 57 c 1,119,-1
 749 57 l 1,120,121
 754 100 754 100 754 143 c 0,122,123
 754 257 754 257 724 347 c 128,-1,124
 694 437 694 437 650 497 c 128,-1,125
 606 557 606 557 565 587.5 c 128,-1,126
 524 618 524 618 505 618 c 1,127,128
 494 622 494 622 485 622 c 0,129,130
 475 622 475 622 468.5 618 c 128,-1,131
 462 614 462 614 454 607 c 0,132,133
 444 598 444 598 438 598 c 2,134,135
 438 598 438 598 436 599 c 0,136,137
 434 599 434 599 433 599 c 0,138,139
 420 599 420 599 413 612.5 c 128,-1,140
 406 626 406 626 400 650 c 0,141,142
 396 667 396 667 393 674 c 128,-1,143
 390 681 390 681 385 683 c 0,144,145
 379 683 379 683 361 660 c 0,146,147
 334 626 334 626 303 602 c 128,-1,148
 272 578 272 578 221 572 c 1,149,150
 212 563 212 563 212 554 c 0,151,152
 212 542 212 542 225 542 c 0,153,154
 226 542 226 542 228 543 c 0,155,156
 230 543 230 543 231 543 c 0,54,55
EndSplineSet
Validated: 1
EndChar

StartChar: PionBlanc
Encoding: 197 8776 118
Width: 641
Flags: W
LayerCount: 2
Fore
SplineSet
617 4 m 1,0,1
 46 4 l 1,2,3
 44 39 44 39 44 65 c 0,4,5
 44 113 44 113 51.5 154.5 c 128,-1,6
 59 196 59 196 78.5 233 c 128,-1,7
 98 270 98 270 133.5 303 c 128,-1,8
 169 336 169 336 223 362 c 1,9,10
 189 374 189 374 168 407.5 c 128,-1,11
 147 441 147 441 147 481 c 256,12,13
 147 521 147 521 170 555.5 c 128,-1,14
 193 590 193 590 239 609 c 1,15,16
 216 649 216 649 216 685 c 0,17,18
 216 732 216 732 253 760.5 c 128,-1,19
 290 789 290 789 331 789 c 256,20,21
 372 789 372 789 409 760.5 c 128,-1,22
 446 732 446 732 446 685 c 0,23,24
 446 649 446 649 423 609 c 1,25,26
 469 590 469 590 492 555.5 c 128,-1,27
 515 521 515 521 515 481 c 256,28,29
 515 441 515 441 494 407.5 c 128,-1,30
 473 374 473 374 439 362 c 1,31,32
 494 335 494 335 529.5 302 c 128,-1,33
 565 269 565 269 584.5 231 c 128,-1,34
 604 193 604 193 611.5 151.5 c 128,-1,35
 619 110 619 110 619 61 c 0,36,37
 619 36 619 36 617 4 c 1,0,1
535 75 m 1,38,39
 538 95 538 95 538 113 c 0,40,41
 538 151 538 151 527.5 180 c 128,-1,42
 517 209 517 209 500.5 230 c 128,-1,43
 484 251 484 251 465 265.5 c 128,-1,44
 446 280 446 280 420 297 c 0,45,46
 388 319 388 319 372.5 333.5 c 128,-1,47
 357 348 357 348 355 369 c 0,48,49
 355 382 355 382 363 390.5 c 128,-1,50
 371 399 371 399 388 409 c 0,51,52
 410 423 410 423 422 436.5 c 128,-1,53
 434 450 434 450 434 476 c 0,54,55
 433 507 433 507 420 523 c 128,-1,56
 407 539 407 539 382 555 c 0,57,58
 363 567 363 567 354.5 576 c 128,-1,59
 346 585 346 585 345 601 c 0,60,61
 346 615 346 615 349.5 623.5 c 128,-1,62
 353 632 353 632 360 643 c 0,63,64
 369 657 369 657 369 666 c 0,65,66
 369 672 369 672 367 679 c 0,67,68
 367 681 367 681 367 683 c 2,69,-1
 368 687 l 1,70,71
 368 706 368 706 355 715.5 c 128,-1,72
 342 725 342 725 328 725 c 256,73,74
 314 725 314 725 301 715 c 128,-1,75
 288 705 288 705 288 687 c 1,76,77
 288 687 288 687 289 683 c 0,78,79
 289 681 289 681 289 679 c 0,80,81
 287 673 287 673 287 667 c 0,82,83
 287 658 287 658 296 643 c 0,84,85
 303 633 303 633 307 623.5 c 128,-1,86
 311 614 311 614 311 601 c 0,87,88
 310 585 310 585 301 575.5 c 128,-1,89
 292 566 292 566 274 555 c 0,90,91
 249 539 249 539 236 523 c 128,-1,92
 223 507 223 507 222 476 c 0,93,94
 222 450 222 450 234 436.5 c 128,-1,95
 246 423 246 423 268 409 c 0,96,97
 285 399 285 399 293 390.5 c 128,-1,98
 301 382 301 382 301 369 c 0,99,100
 300 348 300 348 284.5 333.5 c 128,-1,101
 269 319 269 319 236 297 c 0,102,103
 209 279 209 279 191 265 c 128,-1,104
 173 251 173 251 156 230 c 128,-1,105
 139 209 139 209 129 179.5 c 128,-1,106
 119 150 119 150 119 113 c 0,107,108
 119 95 119 95 121 75 c 1,109,-1
 535 75 l 1,38,39
EndSplineSet
Validated: 1
EndChar

StartChar: RoiNoir
Encoding: 198 8710 119
AltUni2: 000394.ffffffff.0
Width: 859
Flags: W
LayerCount: 2
Fore
SplineSet
104 463 m 0,0,1
 104 441 104 441 117 415 c 128,-1,2
 130 389 130 389 149.5 365 c 128,-1,3
 169 341 169 341 190 323.5 c 128,-1,4
 211 306 211 306 225 298 c 0,5,6
 230 297 230 297 237 296 c 0,7,8
 256 292 256 292 267 292 c 0,9,10
 269 292 269 292 276 292 c 0,11,12
 286 293 286 293 293 293 c 0,13,14
 301 294 301 294 310 294 c 0,15,16
 337 295 337 295 349 301 c 128,-1,17
 361 307 361 307 361 328 c 0,18,19
 360 383 360 383 343 423.5 c 128,-1,20
 326 464 326 464 301 489.5 c 128,-1,21
 276 515 276 515 248 527.5 c 128,-1,22
 220 540 220 540 195 540 c 0,23,24
 153 540 153 540 128.5 518 c 128,-1,25
 104 496 104 496 104 463 c 0,0,1
703 89 m 1,26,27
 703 138 703 138 710 176 c 128,-1,28
 717 214 717 214 728.5 241.5 c 128,-1,29
 740 269 740 269 752.5 289.5 c 128,-1,30
 765 310 765 310 784 334 c 0,31,32
 811 370 811 370 823.5 396 c 128,-1,33
 836 422 836 422 836 460 c 0,34,35
 836 496 836 496 822 525.5 c 128,-1,36
 808 555 808 555 784 576.5 c 128,-1,37
 760 598 760 598 730 609.5 c 128,-1,38
 700 621 700 621 670 621 c 0,39,40
 623 620 623 620 592 604.5 c 128,-1,41
 561 589 561 589 539 569 c 1,42,43
 538 580 538 580 537 599 c 0,44,45
 536 635 536 635 527 654 c 0,46,47
 519 668 519 668 504.5 683.5 c 128,-1,48
 490 699 490 699 464 717 c 1,49,-1
 464 748 l 1,50,-1
 518 781 l 1,51,-1
 518 829 l 1,52,-1
 470 829 l 1,53,-1
 452 880 l 1,54,-1
 432 880 l 1,55,-1
 408 880 l 1,56,-1
 391 829 l 1,57,-1
 342 829 l 1,58,-1
 342 781 l 1,59,-1
 396 748 l 1,60,-1
 396 717 l 1,61,62
 348 683 348 683 336 659 c 128,-1,63
 324 635 324 635 324 598 c 0,64,65
 323 578 323 578 322 569 c 1,66,-1
 322 569 l 1,67,68
 298 590 298 590 267.5 605 c 128,-1,69
 237 620 237 620 190 621 c 0,70,71
 160 621 160 621 130.5 609.5 c 128,-1,72
 101 598 101 598 76.5 576.5 c 128,-1,73
 52 555 52 555 38 525 c 128,-1,74
 24 495 24 495 24 460 c 0,75,76
 24 422 24 422 36.5 396 c 128,-1,77
 49 370 49 370 76 335 c 0,78,79
 96 308 96 308 108 289 c 128,-1,80
 120 270 120 270 132 242 c 128,-1,81
 144 214 144 214 151 175.5 c 128,-1,82
 158 137 158 137 158 87 c 1,83,84
 162 41 162 41 228 19 c 128,-1,85
 294 -3 294 -3 430 -3 c 256,86,87
 566 -3 566 -3 632.5 19 c 128,-1,88
 699 41 699 41 703 89 c 1,26,27
431 157 m 256,89,90
 435 157 435 157 445 157 c 0,91,92
 456 158 456 158 463 158 c 0,93,94
 489 158 489 158 517.5 155.5 c 128,-1,95
 546 153 546 153 570.5 149 c 128,-1,96
 595 145 595 145 611 139.5 c 128,-1,97
 627 134 627 134 627 127 c 0,98,99
 627 124 627 124 624 122 c 2,100,101
 624 122 624 122 625 119 c 0,102,103
 625 117 625 117 625 116 c 0,104,105
 625 104 625 104 595 104 c 0,106,107
 579 104 579 104 533 109 c 0,108,109
 465 116 465 116 430 116 c 256,110,111
 395 116 395 116 327 109 c 0,112,113
 281 104 281 104 265 104 c 0,114,115
 235 104 235 104 235 116 c 0,116,117
 235 117 235 117 236 119 c 0,118,119
 236 122 236 122 236 122 c 2,120,121
 233 125 233 125 233 127 c 0,122,123
 233 134 233 134 248.5 139.5 c 128,-1,124
 264 145 264 145 290 149.5 c 128,-1,125
 316 154 316 154 344 156 c 128,-1,126
 372 158 372 158 398 158 c 0,127,128
 405 158 405 158 417 157 c 0,129,130
 427 157 427 157 431 157 c 256,89,90
754 463 m 0,131,132
 754 496 754 496 729.5 518 c 128,-1,133
 705 540 705 540 663 540 c 0,134,135
 638 540 638 540 610 527.5 c 128,-1,136
 582 515 582 515 557 489.5 c 128,-1,137
 532 464 532 464 515 423.5 c 128,-1,138
 498 383 498 383 497 328 c 0,139,140
 497 307 497 307 509 301 c 128,-1,141
 521 295 521 295 548 294 c 0,142,143
 557 294 557 294 565 293 c 0,144,145
 572 293 572 293 582 292 c 0,146,147
 589 292 589 292 591 292 c 0,148,149
 602 292 602 292 621 296 c 0,150,151
 628 297 628 297 633 298 c 0,152,153
 647 305 647 305 668 323 c 128,-1,154
 689 341 689 341 708.5 365 c 128,-1,155
 728 389 728 389 741 415 c 128,-1,156
 754 441 754 441 754 463 c 0,131,132
465 332 m 0,157,158
 465 391 465 391 486 437.5 c 128,-1,159
 507 484 507 484 539 514 c 128,-1,160
 571 544 571 544 605 559 c 128,-1,161
 639 574 639 574 665 574 c 0,162,163
 718 574 718 574 751 545.5 c 128,-1,164
 784 517 784 517 784 462 c 0,165,166
 784 441 784 441 770.5 412.5 c 128,-1,167
 757 384 757 384 737 356 c 128,-1,168
 717 328 717 328 698 306 c 128,-1,169
 679 284 679 284 669 276 c 0,170,171
 656 264 656 264 644.5 261.5 c 128,-1,172
 633 259 633 259 602 259 c 0,173,174
 543 259 543 259 429 279 c 1,175,176
 315 259 315 259 256 259 c 0,177,178
 225 259 225 259 214 261.5 c 128,-1,179
 203 264 203 264 189 276 c 0,180,181
 179 284 179 284 160 306 c 128,-1,182
 141 328 141 328 121 356 c 128,-1,183
 101 384 101 384 87.5 412.5 c 128,-1,184
 74 441 74 441 74 462 c 0,185,186
 74 517 74 517 107 545.5 c 128,-1,187
 140 574 140 574 193 574 c 0,188,189
 219 574 219 574 253 559 c 128,-1,190
 287 544 287 544 319 514 c 128,-1,191
 351 484 351 484 372 437.5 c 128,-1,192
 393 391 393 391 393 332 c 0,193,194
 394 318 394 318 404 313.5 c 128,-1,195
 414 309 414 309 431 309 c 0,196,197
 445 309 445 309 455 315 c 128,-1,198
 465 321 465 321 465 332 c 0,157,158
EndSplineSet
Validated: 5
EndChar

StartChar: DameNoire
Encoding: 199 171 120
Width: 975
Flags: W
LayerCount: 2
Fore
SplineSet
251 308 m 0,0,1
 251 307 251 307 251 304 c 0,2,3
 250 299 250 299 250 297 c 0,4,5
 250 289 250 289 257 283.5 c 128,-1,6
 264 278 264 278 283 278 c 0,7,8
 298 278 298 278 318 281 c 0,9,10
 395 285 395 285 429.5 286 c 128,-1,11
 464 287 464 287 493 287 c 0,12,13
 523 287 523 287 556.5 286 c 128,-1,14
 590 285 590 285 664 281 c 0,15,16
 684 278 684 278 698 278 c 0,17,18
 717 278 717 278 724 283.5 c 128,-1,19
 731 289 731 289 731 298 c 0,20,21
 731 300 731 300 730 305 c 0,22,23
 730 307 730 307 730 308 c 0,24,25
 730 316 730 316 710 322.5 c 128,-1,26
 690 329 690 329 656.5 333 c 128,-1,27
 623 337 623 337 580.5 339 c 128,-1,28
 538 341 538 341 491 341 c 0,29,30
 443 341 443 341 401 339 c 128,-1,31
 359 337 359 337 325 332.5 c 128,-1,32
 291 328 291 328 271 322 c 128,-1,33
 251 316 251 316 251 308 c 0,0,1
491 821 m 256,34,35
 478 821 478 821 468 811 c 128,-1,36
 458 801 458 801 458 788 c 0,37,38
 458 774 458 774 468 764 c 128,-1,39
 478 754 478 754 491 754 c 256,40,41
 504 754 504 754 513.5 764 c 128,-1,42
 523 774 523 774 523 788 c 0,43,44
 523 801 523 801 513.5 811 c 128,-1,45
 504 821 504 821 491 821 c 256,34,35
491 860 m 0,46,47
 520 860 520 860 542 838 c 128,-1,48
 564 816 564 816 564 785 c 0,49,50
 564 775 564 775 556 757 c 0,51,52
 546 737 546 737 540.5 715 c 128,-1,53
 535 693 535 693 535 656 c 0,54,55
 535 621 535 621 542 573.5 c 128,-1,56
 549 526 549 526 564 462 c 1,57,58
 605 547 605 547 620.5 602 c 128,-1,59
 636 657 636 657 636 691 c 0,60,61
 636 710 636 710 631 733 c 0,62,63
 628 744 628 744 628 749 c 0,64,65
 628 780 628 780 650 802 c 128,-1,66
 672 824 672 824 703 824 c 256,67,68
 734 824 734 824 756 802 c 128,-1,69
 778 780 778 780 778 749 c 0,70,71
 778 725 778 725 772.5 715 c 128,-1,72
 767 705 767 705 754 695 c 0,73,74
 736 681 736 681 726.5 658.5 c 128,-1,75
 717 636 717 636 717 577 c 0,76,77
 717 532 717 532 724 464 c 1,78,79
 773 513 773 513 791.5 548 c 128,-1,80
 810 583 810 583 810 610 c 0,81,82
 810 621 810 621 806 640 c 0,83,84
 803 655 803 655 803 662 c 0,85,86
 803 693 803 693 825 715 c 128,-1,87
 847 737 847 737 878 737 c 256,88,89
 909 737 909 737 931 715 c 128,-1,90
 953 693 953 693 953 662 c 0,91,92
 952 637 952 637 936.5 615.5 c 128,-1,93
 921 594 921 594 891 580 c 1,94,95
 889 535 889 535 880 491.5 c 128,-1,96
 871 448 871 448 853 376 c 0,97,98
 849 364 849 364 843 338 c 0,99,100
 842 324 842 324 831.5 310 c 128,-1,101
 821 296 821 296 801 274 c 0,102,103
 779 251 779 251 766.5 234.5 c 128,-1,104
 754 218 754 218 747 199 c 0,105,106
 745 191 745 191 745 184 c 0,107,108
 745 169 745 169 759 141 c 0,109,110
 769 121 769 121 774.5 105 c 128,-1,111
 780 89 780 89 780 69 c 0,112,113
 780 67 780 67 780 60 c 0,114,115
 779 54 779 54 779 50 c 0,116,117
 779 49 779 49 779 48 c 0,118,119
 780 46 780 46 780 46 c 1,120,121
 780 28 780 28 738.5 17 c 128,-1,122
 697 6 697 6 643.5 1 c 128,-1,123
 590 -4 590 -4 549 -5 c 128,-1,124
 508 -6 508 -6 490 -6 c 256,125,126
 472 -6 472 -6 432 -5 c 128,-1,127
 392 -4 392 -4 337 1 c 128,-1,128
 282 6 282 6 241.5 17 c 128,-1,129
 201 28 201 28 201 46 c 2,130,131
 201 46 201 46 201 48 c 0,132,133
 201 49 201 49 201 50 c 0,134,135
 201 54 201 54 200 60 c 0,136,137
 200 67 200 67 200 69 c 0,138,139
 200 89 200 89 205.5 104.5 c 128,-1,140
 211 120 211 120 221 141 c 0,141,142
 236 169 236 169 236 184 c 0,143,144
 236 191 236 191 233 199 c 0,145,146
 226 218 226 218 214 234 c 128,-1,147
 202 250 202 250 180 274 c 0,148,149
 159 296 159 296 148.5 310 c 128,-1,150
 138 324 138 324 137 338 c 0,151,152
 131 364 131 364 127 376 c 0,153,154
 109 448 109 448 100 492 c 128,-1,155
 91 536 91 536 89 580 c 1,156,157
 59 594 59 594 43.5 615.5 c 128,-1,158
 28 637 28 637 27 662 c 0,159,160
 27 693 27 693 49 715 c 128,-1,161
 71 737 71 737 102 737 c 256,162,163
 133 737 133 737 155 715 c 128,-1,164
 177 693 177 693 177 662 c 0,165,166
 177 655 177 655 174 640 c 0,167,168
 171 621 171 621 171 610 c 0,169,170
 171 583 171 583 189 548 c 128,-1,171
 207 513 207 513 256 464 c 1,172,173
 263 532 263 532 263 577 c 0,174,175
 263 637 263 637 253.5 659.5 c 128,-1,176
 244 682 244 682 226 696 c 0,177,178
 213 705 213 705 207.5 715 c 128,-1,179
 202 725 202 725 202 749 c 0,180,181
 202 780 202 780 224 802 c 128,-1,182
 246 824 246 824 277 824 c 256,183,184
 308 824 308 824 330 802 c 128,-1,185
 352 780 352 780 352 749 c 0,186,187
 352 744 352 744 349 733 c 0,188,189
 344 710 344 710 344 691 c 0,190,191
 344 657 344 657 360 602 c 128,-1,192
 376 547 376 547 416 462 c 1,193,194
 431 526 431 526 438 573.5 c 128,-1,195
 445 621 445 621 445 657 c 0,196,197
 445 694 445 694 439.5 715.5 c 128,-1,198
 434 737 434 737 424 758 c 0,199,200
 416 776 416 776 416 785 c 0,201,202
 416 816 416 816 438 838 c 128,-1,203
 460 860 460 860 491 860 c 0,46,47
878 695 m 256,204,205
 865 695 865 695 855.5 685 c 128,-1,206
 846 675 846 675 846 662 c 0,207,208
 846 648 846 648 855.5 638 c 128,-1,209
 865 628 865 628 878 628 c 0,210,211
 892 628 892 628 901.5 638 c 128,-1,212
 911 648 911 648 911 662 c 0,213,214
 911 675 911 675 901 685 c 128,-1,215
 891 695 891 695 878 695 c 256,204,205
703 780 m 256,216,217
 690 780 690 780 680.5 770 c 128,-1,218
 671 760 671 760 671 747 c 0,219,220
 671 733 671 733 680.5 723 c 128,-1,221
 690 713 690 713 703 713 c 0,222,223
 717 713 717 713 726.5 723 c 128,-1,224
 736 733 736 733 736 747 c 0,225,226
 736 760 736 760 726 770 c 128,-1,227
 716 780 716 780 703 780 c 256,216,217
277 780 m 256,228,229
 264 780 264 780 254 770 c 128,-1,230
 244 760 244 760 244 747 c 0,231,232
 244 733 244 733 254 723 c 128,-1,233
 264 713 264 713 277 713 c 256,234,235
 290 713 290 713 299.5 723 c 128,-1,236
 309 733 309 733 309 747 c 0,237,238
 309 760 309 760 299.5 770 c 128,-1,239
 290 780 290 780 277 780 c 256,228,229
102 695 m 256,240,241
 89 695 89 695 79 685 c 128,-1,242
 69 675 69 675 69 662 c 0,243,244
 69 648 69 648 79 638 c 128,-1,245
 89 628 89 628 102 628 c 256,246,247
 115 628 115 628 124.5 638 c 128,-1,248
 134 648 134 648 134 662 c 0,249,250
 134 675 134 675 124.5 685 c 128,-1,251
 115 695 115 695 102 695 c 256,240,241
271 145 m 0,252,253
 271 144 271 144 271 141 c 0,254,255
 270 137 270 137 270 134 c 0,256,257
 270 125 270 125 276.5 120 c 128,-1,258
 283 115 283 115 300 115 c 0,259,260
 314 115 314 115 332 118 c 2,261,-1
 333 118 l 1,262,263
 403 122 403 122 434.5 123 c 128,-1,264
 466 124 466 124 493 124 c 0,265,266
 521 124 521 124 551.5 123 c 128,-1,267
 582 122 582 122 650 118 c 0,268,269
 668 115 668 115 681 115 c 0,270,271
 698 115 698 115 704.5 120.5 c 128,-1,272
 711 126 711 126 711 135 c 0,273,274
 711 137 711 137 710 141 c 0,275,276
 710 144 710 144 710 145 c 0,277,278
 710 153 710 153 691.5 159.5 c 128,-1,279
 673 166 673 166 642.5 170 c 128,-1,280
 612 174 612 174 573 176 c 128,-1,281
 534 178 534 178 491 178 c 0,282,283
 447 178 447 178 409 176 c 128,-1,284
 371 174 371 174 339 169.5 c 128,-1,285
 307 165 307 165 289 159 c 128,-1,286
 271 153 271 153 271 145 c 0,252,253
EndSplineSet
Validated: 1
EndChar

StartChar: TourNoire
Encoding: 200 187 121
Width: 779
Flags: W
LayerCount: 2
Fore
SplineSet
392 784 m 1,0,-1
 466 784 l 1,1,-1
 489 761 l 1,2,-1
 489 727 l 1,3,-1
 527 727 l 1,4,-1
 527 761 l 1,5,-1
 550 784 l 1,6,-1
 673 784 l 1,7,-1
 711 746 l 1,8,-1
 711 626 l 1,9,-1
 592 523 l 1,10,-1
 592 256 l 1,11,-1
 730 119 l 1,12,-1
 730 27 l 1,13,-1
 704 1 l 1,14,-1
 392 1 l 1,15,-1
 80 1 l 1,16,-1
 54 27 l 1,17,-1
 54 119 l 1,18,-1
 192 256 l 1,19,-1
 192 523 l 1,20,-1
 73 626 l 1,21,-1
 73 746 l 1,22,-1
 111 784 l 1,23,-1
 234 784 l 1,24,-1
 257 761 l 1,25,-1
 257 727 l 1,26,-1
 295 727 l 1,27,-1
 295 761 l 1,28,-1
 318 784 l 1,29,-1
 392 784 l 1,0,-1
240 528 m 1,30,-1
 240 483 l 1,31,-1
 544 483 l 1,32,-1
 544 528 l 1,33,-1
 240 528 l 1,30,-1
240 287 m 1,34,-1
 240 242 l 1,35,-1
 544 242 l 1,36,-1
 544 287 l 1,37,-1
 240 287 l 1,34,-1
EndSplineSet
Validated: 1
EndChar

StartChar: FouNoir
Encoding: 201 8230 122
Width: 949
Flags: W
LayerCount: 2
Fore
SplineSet
496 821 m 256,0,1
 482 821 482 821 471.5 811.5 c 128,-1,2
 461 802 461 802 461 789 c 256,3,4
 461 776 461 776 471.5 766 c 128,-1,5
 482 756 482 756 496 756 c 256,6,7
 510 756 510 756 520 766 c 128,-1,8
 530 776 530 776 530 789 c 256,9,10
 530 802 530 802 520 811.5 c 128,-1,11
 510 821 510 821 496 821 c 256,0,1
496 444 m 1,12,-1
 521 444 l 1,13,-1
 521 505 l 1,14,-1
 566 505 l 1,15,-1
 566 556 l 1,16,-1
 521 556 l 1,17,-1
 521 614 l 1,18,-1
 496 614 l 1,19,-1
 471 614 l 1,20,-1
 471 556 l 1,21,-1
 426 556 l 1,22,-1
 426 505 l 1,23,-1
 471 505 l 1,24,-1
 471 444 l 1,25,-1
 496 444 l 1,12,-1
496 54 m 1,26,27
 476 34 476 34 450 21 c 128,-1,28
 424 8 424 8 392 0 c 0,29,30
 353 -10 353 -10 273 -17 c 0,31,32
 215 -22 215 -22 188 -29 c 128,-1,33
 161 -36 161 -36 156 -55 c 1,34,35
 134 -45 134 -45 120.5 -30 c 128,-1,36
 107 -15 107 -15 90 13 c 0,37,38
 74 40 74 40 63 54 c 1,39,40
 90 104 90 104 115 121.5 c 128,-1,41
 140 139 140 139 173 139 c 0,42,43
 184 139 184 139 206 137 c 0,44,45
 235 135 235 135 252 135 c 0,46,47
 282 135 282 135 313.5 141 c 128,-1,48
 345 147 345 147 381 161 c 1,49,50
 329 167 329 167 308 181.5 c 128,-1,51
 287 196 287 196 287 217 c 0,52,53
 287 232 287 232 300 264 c 0,54,55
 314 298 314 298 314 314 c 0,56,57
 314 323 314 323 311 331 c 0,58,59
 270 372 270 372 251.5 411.5 c 128,-1,60
 233 451 233 451 233 489 c 0,61,62
 233 536 233 536 258 577.5 c 128,-1,63
 283 619 283 619 319 649.5 c 128,-1,64
 355 680 355 680 387.5 698.5 c 128,-1,65
 420 717 420 717 432 719 c 1,66,67
 403 754 403 754 403 794 c 0,68,69
 403 829 403 829 427 852.5 c 128,-1,70
 451 876 451 876 496 876 c 256,71,72
 541 876 541 876 565 852.5 c 128,-1,73
 589 829 589 829 589 794 c 0,74,75
 589 754 589 754 560 719 c 1,76,77
 572 717 572 717 604.5 698.5 c 128,-1,78
 637 680 637 680 672.5 649.5 c 128,-1,79
 708 619 708 619 733.5 577.5 c 128,-1,80
 759 536 759 536 759 489 c 0,81,82
 759 451 759 451 740.5 411.5 c 128,-1,83
 722 372 722 372 681 331 c 0,84,85
 678 326 678 326 678 318 c 0,86,87
 678 305 678 305 691 268 c 0,88,89
 705 231 705 231 705 217 c 0,90,91
 705 196 705 196 684 181.5 c 128,-1,92
 663 167 663 167 611 161 c 1,93,94
 647 147 647 147 678.5 141 c 128,-1,95
 710 135 710 135 740 135 c 0,96,97
 757 135 757 135 786 137 c 0,98,99
 808 139 808 139 819 139 c 0,100,101
 853 139 853 139 877.5 122 c 128,-1,102
 902 105 902 105 929 54 c 1,103,104
 918 40 918 40 902 13 c 0,105,106
 885 -16 885 -16 872 -30.5 c 128,-1,107
 859 -45 859 -45 836 -55 c 1,108,109
 831 -36 831 -36 803.5 -29 c 128,-1,110
 776 -22 776 -22 719 -17 c 0,111,112
 639 -10 639 -10 586 3.5 c 128,-1,113
 533 17 533 17 496 54 c 1,26,27
431 377 m 2,114,115
 396 377 396 377 379 373 c 128,-1,116
 362 369 362 369 362 356 c 0,117,118
 362 342 362 342 389.5 338 c 128,-1,119
 417 334 417 334 496 334 c 256,120,121
 575 334 575 334 602.5 338 c 128,-1,122
 630 342 630 342 630 356 c 0,123,124
 630 369 630 369 613 373 c 128,-1,125
 596 377 596 377 561 377 c 2,126,-1
 431 377 l 2,114,115
431 293 m 2,127,128
 396 293 396 293 379 289 c 128,-1,129
 362 285 362 285 362 272 c 0,130,131
 362 258 362 258 389.5 254 c 128,-1,132
 417 250 417 250 496 250 c 256,133,134
 575 250 575 250 602.5 254 c 128,-1,135
 630 258 630 258 630 272 c 0,136,137
 630 285 630 285 613 289 c 128,-1,138
 596 293 596 293 561 293 c 2,139,-1
 431 293 l 2,127,128
EndSplineSet
Validated: 1
EndChar

StartChar: CavaNoir
Encoding: 202 160 123
Width: 917
Flags: W
LayerCount: 2
Fore
SplineSet
875 -3 m 1,0,1
 574 -2 l 1,2,-1
 314 -1 l 1,3,4
 318 64 318 64 339 104.5 c 128,-1,5
 360 145 360 145 398 193 c 0,6,7
 429 231 429 231 445 259 c 128,-1,8
 461 287 461 287 465 326 c 1,9,10
 401 299 401 299 368.5 264.5 c 128,-1,11
 336 230 336 230 310 185 c 0,12,13
 298 162 298 162 290 152.5 c 128,-1,14
 282 143 282 143 271 142 c 0,15,16
 256 142 256 142 246 151.5 c 128,-1,17
 236 161 236 161 236 183 c 1,18,19
 223 166 223 166 205 166 c 0,20,21
 196 166 196 166 179 172 c 0,22,23
 145 180 145 180 124 195.5 c 128,-1,24
 103 211 103 211 81 256 c 1,25,26
 88 298 88 298 107 343 c 128,-1,27
 126 388 126 388 162 461 c 0,28,29
 196 529 196 529 215 573 c 128,-1,30
 234 617 234 617 247 662 c 0,31,32
 249 679 249 679 249 694 c 0,33,34
 249 707 249 707 247.5 723 c 128,-1,35
 246 739 246 739 241 768 c 1,36,-1
 241 769 l 1,37,38
 265 769 265 769 291 763.5 c 128,-1,39
 317 758 317 758 339.5 749.5 c 128,-1,40
 362 741 362 741 376 733.5 c 128,-1,41
 390 726 390 726 390 724 c 1,42,43
 409 756 409 756 426 772 c 128,-1,44
 443 788 443 788 450 788 c 0,45,46
 483 771 483 771 496 750.5 c 128,-1,47
 509 730 509 730 524 679 c 1,48,49
 534 682 534 682 547 682 c 0,50,51
 592 682 592 682 649 648 c 128,-1,52
 706 614 706 614 759 544.5 c 128,-1,53
 812 475 812 475 846 365 c 128,-1,54
 880 255 880 255 880 110 c 0,55,56
 880 55 880 55 875 -3 c 1,0,1
257 477 m 0,57,58
 258 477 258 477 261 477 c 0,59,60
 263 476 263 476 265 476 c 0,61,62
 278 476 278 476 293.5 483.5 c 128,-1,63
 309 491 309 491 322.5 502.5 c 128,-1,64
 336 514 336 514 345 526.5 c 128,-1,65
 354 539 354 539 354 549 c 0,66,67
 354 556 354 556 350 560 c 0,68,69
 338 567 338 567 324 567 c 0,70,71
 296 567 296 567 271.5 544.5 c 128,-1,72
 247 522 247 522 247 499 c 0,73,74
 247 486 247 486 257 477 c 0,57,58
814 92 m 0,75,76
 816 117 816 117 816 142 c 0,77,78
 816 257 816 257 784 348.5 c 128,-1,79
 752 440 752 440 705 500 c 128,-1,80
 658 560 658 560 610 590.5 c 128,-1,81
 562 621 562 621 531 621 c 0,82,83
 524 621 524 621 518 619 c 0,84,85
 517 619 517 619 514 620 c 0,86,87
 512 620 512 620 511 620 c 0,88,89
 493 620 493 620 493 606 c 0,90,91
 493 598 493 598 501 592 c 1,92,93
 526 590 526 590 569 566 c 128,-1,94
 612 542 612 542 657.5 489 c 128,-1,95
 703 436 703 436 734.5 344.5 c 128,-1,96
 766 253 766 253 766 125 c 0,97,98
 766 116 766 116 765 107 c 0,99,100
 765 95 765 95 765 88 c 0,101,102
 767 74 767 74 774.5 65.5 c 128,-1,103
 782 57 782 57 792 57 c 0,104,105
 801 57 801 57 807.5 66 c 128,-1,106
 814 75 814 75 814 92 c 0,75,76
162 299 m 1,107,108
 141 299 141 299 129.5 286.5 c 128,-1,109
 118 274 118 274 118 258 c 0,110,111
 118 250 118 250 121 244 c 1,112,113
 140 244 140 244 153 255.5 c 128,-1,114
 166 267 166 267 166 283 c 0,115,116
 166 291 166 291 162 299 c 1,107,108
EndSplineSet
Validated: 1
EndChar

StartChar: PionNoir
Encoding: 203 192 124
Width: 631
Flags: W
LayerCount: 2
Fore
SplineSet
604 1 m 1,0,1
 33 1 l 1,2,3
 31 36 31 36 31 62 c 0,4,5
 31 110 31 110 38.5 151.5 c 128,-1,6
 46 193 46 193 65.5 230 c 128,-1,7
 85 267 85 267 120.5 300 c 128,-1,8
 156 333 156 333 210 359 c 1,9,10
 176 371 176 371 155 404.5 c 128,-1,11
 134 438 134 438 134 478 c 256,12,13
 134 518 134 518 157 552.5 c 128,-1,14
 180 587 180 587 226 606 c 1,15,16
 203 646 203 646 203 682 c 0,17,18
 203 729 203 729 240 757.5 c 128,-1,19
 277 786 277 786 318 786 c 256,20,21
 359 786 359 786 396 757.5 c 128,-1,22
 433 729 433 729 433 682 c 0,23,24
 433 646 433 646 410 606 c 1,25,26
 456 587 456 587 479 552.5 c 128,-1,27
 502 518 502 518 502 478 c 256,28,29
 502 438 502 438 481 404.5 c 128,-1,30
 460 371 460 371 426 359 c 1,31,32
 481 332 481 332 516.5 299 c 128,-1,33
 552 266 552 266 571.5 228 c 128,-1,34
 591 190 591 190 598.5 148.5 c 128,-1,35
 606 107 606 107 606 58 c 0,36,37
 606 33 606 33 604 1 c 1,0,1
EndSplineSet
Validated: 1
EndChar

StartChar: agrave
Encoding: 224 8225 125
Width: 556
Flags: W
LayerCount: 2
Fore
SplineSet
256 593 m 1,0,-1
 323 593 l 1,1,-1
 234 734 l 1,2,-1
 126 734 l 1,3,-1
 256 593 l 1,0,-1
143 364 m 1,4,5
 146 384 146 384 151.5 400 c 128,-1,6
 157 416 157 416 169.5 431 c 128,-1,7
 182 446 182 446 205 455.5 c 128,-1,8
 228 465 228 465 263 465 c 0,9,10
 386 465 386 465 386 380 c 0,11,12
 386 345 386 345 373.5 332.5 c 128,-1,13
 361 320 361 320 340 318 c 2,14,-1
 195 300 l 2,15,16
 144 294 144 294 111.5 274.5 c 128,-1,17
 79 255 79 255 62.5 230 c 128,-1,18
 46 205 46 205 41 181.5 c 128,-1,19
 36 158 36 158 36 136 c 0,20,21
 36 69 36 69 82 27 c 128,-1,22
 128 -15 128 -15 200 -15 c 0,23,24
 268 -15 268 -15 311.5 9 c 128,-1,25
 355 33 355 33 389 70 c 1,26,27
 392 33 392 33 410.5 11.5 c 128,-1,28
 429 -10 429 -10 482 -10 c 0,29,30
 497 -10 497 -10 519 -3 c 0,31,32
 526 -1 526 -1 530 0 c 1,33,-1
 530 64 l 1,34,35
 510 60 510 60 501 60 c 0,36,37
 472 60 472 60 472 91 c 2,38,-1
 472 392 l 2,39,40
 472 439 472 439 449.5 469 c 128,-1,41
 427 499 427 499 394.5 513.5 c 128,-1,42
 362 528 362 528 331.5 533 c 128,-1,43
 301 538 301 538 278 538 c 0,44,45
 177 538 177 538 121 496.5 c 128,-1,46
 65 455 65 455 62 364 c 1,47,-1
 143 364 l 1,4,5
384 181 m 2,48,49
 384 155 384 155 370.5 132.5 c 128,-1,50
 357 110 357 110 334 93.5 c 128,-1,51
 311 77 311 77 281.5 67.5 c 128,-1,52
 252 58 252 58 222 58 c 0,53,54
 174 58 174 58 150.5 81.5 c 128,-1,55
 127 105 127 105 127 149 c 0,56,57
 127 172 127 172 137.5 188 c 128,-1,58
 148 204 148 204 165 213 c 128,-1,59
 182 222 182 222 200.5 226.5 c 128,-1,60
 219 231 219 231 239 234 c 0,61,62
 315 244 315 244 343.5 251 c 128,-1,63
 372 258 372 258 384 267 c 1,64,-1
 384 181 l 2,48,49
EndSplineSet
Validated: 9
EndChar

StartChar: aacute
Encoding: 225 183 126
Width: 556
Flags: W
LayerCount: 2
Fore
SplineSet
431 734 m 1,0,-1
 323 734 l 1,1,-1
 234 593 l 1,2,-1
 301 593 l 1,3,-1
 431 734 l 1,0,-1
143 364 m 1,4,5
 146 384 146 384 151.5 400 c 128,-1,6
 157 416 157 416 169.5 431 c 128,-1,7
 182 446 182 446 205 455.5 c 128,-1,8
 228 465 228 465 263 465 c 0,9,10
 386 465 386 465 386 380 c 0,11,12
 386 345 386 345 373.5 332.5 c 128,-1,13
 361 320 361 320 340 318 c 2,14,-1
 195 300 l 2,15,16
 144 294 144 294 111.5 274.5 c 128,-1,17
 79 255 79 255 62.5 230 c 128,-1,18
 46 205 46 205 41 181.5 c 128,-1,19
 36 158 36 158 36 136 c 0,20,21
 36 69 36 69 82 27 c 128,-1,22
 128 -15 128 -15 200 -15 c 0,23,24
 268 -15 268 -15 311.5 9 c 128,-1,25
 355 33 355 33 389 70 c 1,26,27
 392 33 392 33 410.5 11.5 c 128,-1,28
 429 -10 429 -10 482 -10 c 0,29,30
 497 -10 497 -10 519 -3 c 0,31,32
 526 -1 526 -1 530 0 c 1,33,-1
 530 64 l 1,34,35
 510 60 510 60 501 60 c 0,36,37
 472 60 472 60 472 91 c 2,38,-1
 472 392 l 2,39,40
 472 439 472 439 449.5 469 c 128,-1,41
 427 499 427 499 394.5 513.5 c 128,-1,42
 362 528 362 528 331.5 533 c 128,-1,43
 301 538 301 538 278 538 c 0,44,45
 177 538 177 538 121 496.5 c 128,-1,46
 65 455 65 455 62 364 c 1,47,-1
 143 364 l 1,4,5
384 181 m 2,48,49
 384 155 384 155 370.5 132.5 c 128,-1,50
 357 110 357 110 334 93.5 c 128,-1,51
 311 77 311 77 281.5 67.5 c 128,-1,52
 252 58 252 58 222 58 c 0,53,54
 174 58 174 58 150.5 81.5 c 128,-1,55
 127 105 127 105 127 149 c 0,56,57
 127 172 127 172 137.5 188 c 128,-1,58
 148 204 148 204 165 213 c 128,-1,59
 182 222 182 222 200.5 226.5 c 128,-1,60
 219 231 219 231 239 234 c 0,61,62
 315 244 315 244 343.5 251 c 128,-1,63
 372 258 372 258 384 267 c 1,64,-1
 384 181 l 2,48,49
EndSplineSet
Validated: 9
EndChar

StartChar: acircumflex
Encoding: 226 8218 127
Width: 556
Flags: W
LayerCount: 2
Fore
SplineSet
278 686 m 1,0,-1
 344 593 l 1,1,-1
 424 593 l 1,2,-1
 325 734 l 1,3,-1
 232 734 l 1,4,-1
 133 593 l 1,5,-1
 212 593 l 1,6,-1
 278 686 l 1,0,-1
143 364 m 1,7,8
 146 384 146 384 151.5 400 c 128,-1,9
 157 416 157 416 169.5 431 c 128,-1,10
 182 446 182 446 205 455.5 c 128,-1,11
 228 465 228 465 263 465 c 0,12,13
 386 465 386 465 386 380 c 0,14,15
 386 345 386 345 373.5 332.5 c 128,-1,16
 361 320 361 320 340 318 c 2,17,-1
 195 300 l 2,18,19
 144 294 144 294 111.5 274.5 c 128,-1,20
 79 255 79 255 62.5 230 c 128,-1,21
 46 205 46 205 41 181.5 c 128,-1,22
 36 158 36 158 36 136 c 0,23,24
 36 69 36 69 82 27 c 128,-1,25
 128 -15 128 -15 200 -15 c 0,26,27
 268 -15 268 -15 311.5 9 c 128,-1,28
 355 33 355 33 389 70 c 1,29,30
 392 33 392 33 410.5 11.5 c 128,-1,31
 429 -10 429 -10 482 -10 c 0,32,33
 497 -10 497 -10 519 -3 c 0,34,35
 526 -1 526 -1 530 0 c 1,36,-1
 530 64 l 1,37,38
 510 60 510 60 501 60 c 0,39,40
 472 60 472 60 472 91 c 2,41,-1
 472 392 l 2,42,43
 472 439 472 439 449.5 469 c 128,-1,44
 427 499 427 499 394.5 513.5 c 128,-1,45
 362 528 362 528 331.5 533 c 128,-1,46
 301 538 301 538 278 538 c 0,47,48
 177 538 177 538 121 496.5 c 128,-1,49
 65 455 65 455 62 364 c 1,50,-1
 143 364 l 1,7,8
384 181 m 2,51,52
 384 155 384 155 370.5 132.5 c 128,-1,53
 357 110 357 110 334 93.5 c 128,-1,54
 311 77 311 77 281.5 67.5 c 128,-1,55
 252 58 252 58 222 58 c 0,56,57
 174 58 174 58 150.5 81.5 c 128,-1,58
 127 105 127 105 127 149 c 0,59,60
 127 172 127 172 137.5 188 c 128,-1,61
 148 204 148 204 165 213 c 128,-1,62
 182 222 182 222 200.5 226.5 c 128,-1,63
 219 231 219 231 239 234 c 0,64,65
 315 244 315 244 343.5 251 c 128,-1,66
 372 258 372 258 384 267 c 1,67,-1
 384 181 l 2,51,52
EndSplineSet
Validated: 9
EndChar

StartChar: atilde
Encoding: 227 8222 128
Width: 556
Flags: W
LayerCount: 2
Fore
SplineSet
389 722 m 1,0,1
 385 701 385 701 375 688.5 c 128,-1,2
 365 676 365 676 339 676 c 0,3,4
 332 676 332 676 318.5 679.5 c 128,-1,5
 305 683 305 683 292 689 c 2,6,-1
 270 698 l 2,7,8
 231 713 231 713 202 713 c 0,9,10
 155 713 155 713 130 683.5 c 128,-1,11
 105 654 105 654 98 606 c 1,12,-1
 146 606 l 1,13,14
 153 628 153 628 163.5 639 c 128,-1,15
 174 650 174 650 193 650 c 0,16,17
 202 650 202 650 215 647 c 128,-1,18
 228 644 228 644 254 635 c 2,19,-1
 280 626 l 2,20,21
 303 619 303 619 314.5 616 c 128,-1,22
 326 613 326 613 339 613 c 0,23,24
 380 613 380 613 407 644 c 128,-1,25
 434 675 434 675 439 722 c 1,26,-1
 389 722 l 1,0,1
143 364 m 1,27,28
 146 384 146 384 151.5 400 c 128,-1,29
 157 416 157 416 169.5 431 c 128,-1,30
 182 446 182 446 205 455.5 c 128,-1,31
 228 465 228 465 263 465 c 0,32,33
 386 465 386 465 386 380 c 0,34,35
 386 345 386 345 373.5 332.5 c 128,-1,36
 361 320 361 320 340 318 c 2,37,-1
 195 300 l 2,38,39
 144 294 144 294 111.5 274.5 c 128,-1,40
 79 255 79 255 62.5 230 c 128,-1,41
 46 205 46 205 41 181.5 c 128,-1,42
 36 158 36 158 36 136 c 0,43,44
 36 69 36 69 82 27 c 128,-1,45
 128 -15 128 -15 200 -15 c 0,46,47
 268 -15 268 -15 311.5 9 c 128,-1,48
 355 33 355 33 389 70 c 1,49,50
 392 33 392 33 410.5 11.5 c 128,-1,51
 429 -10 429 -10 482 -10 c 0,52,53
 497 -10 497 -10 519 -3 c 0,54,55
 526 -1 526 -1 530 0 c 1,56,-1
 530 64 l 1,57,58
 510 60 510 60 501 60 c 0,59,60
 472 60 472 60 472 91 c 2,61,-1
 472 392 l 2,62,63
 472 439 472 439 449.5 469 c 128,-1,64
 427 499 427 499 394.5 513.5 c 128,-1,65
 362 528 362 528 331.5 533 c 128,-1,66
 301 538 301 538 278 538 c 0,67,68
 177 538 177 538 121 496.5 c 128,-1,69
 65 455 65 455 62 364 c 1,70,-1
 143 364 l 1,27,28
384 181 m 2,71,72
 384 155 384 155 370.5 132.5 c 128,-1,73
 357 110 357 110 334 93.5 c 128,-1,74
 311 77 311 77 281.5 67.5 c 128,-1,75
 252 58 252 58 222 58 c 0,76,77
 174 58 174 58 150.5 81.5 c 128,-1,78
 127 105 127 105 127 149 c 0,79,80
 127 172 127 172 137.5 188 c 128,-1,81
 148 204 148 204 165 213 c 128,-1,82
 182 222 182 222 200.5 226.5 c 128,-1,83
 219 231 219 231 239 234 c 0,84,85
 315 244 315 244 343.5 251 c 128,-1,86
 372 258 372 258 384 267 c 1,87,-1
 384 181 l 2,71,72
EndSplineSet
Validated: 9
EndChar

StartChar: adieresis
Encoding: 228 8240 129
Width: 556
Flags: W
LayerCount: 2
Fore
SplineSet
243 706 m 1,0,-1
 152 706 l 1,1,-1
 152 604 l 1,2,-1
 243 604 l 1,3,-1
 243 706 l 1,0,-1
405 706 m 1,4,-1
 314 706 l 1,5,-1
 314 604 l 1,6,-1
 405 604 l 1,7,-1
 405 706 l 1,4,-1
143 364 m 1,8,9
 146 384 146 384 151.5 400 c 128,-1,10
 157 416 157 416 169.5 431 c 128,-1,11
 182 446 182 446 205 455.5 c 128,-1,12
 228 465 228 465 263 465 c 0,13,14
 386 465 386 465 386 380 c 0,15,16
 386 345 386 345 373.5 332.5 c 128,-1,17
 361 320 361 320 340 318 c 2,18,-1
 195 300 l 2,19,20
 144 294 144 294 111.5 274.5 c 128,-1,21
 79 255 79 255 62.5 230 c 128,-1,22
 46 205 46 205 41 181.5 c 128,-1,23
 36 158 36 158 36 136 c 0,24,25
 36 69 36 69 82 27 c 128,-1,26
 128 -15 128 -15 200 -15 c 0,27,28
 268 -15 268 -15 311.5 9 c 128,-1,29
 355 33 355 33 389 70 c 1,30,31
 392 33 392 33 410.5 11.5 c 128,-1,32
 429 -10 429 -10 482 -10 c 0,33,34
 497 -10 497 -10 519 -3 c 0,35,36
 526 -1 526 -1 530 0 c 1,37,-1
 530 64 l 1,38,39
 510 60 510 60 501 60 c 0,40,41
 472 60 472 60 472 91 c 2,42,-1
 472 392 l 2,43,44
 472 439 472 439 449.5 469 c 128,-1,45
 427 499 427 499 394.5 513.5 c 128,-1,46
 362 528 362 528 331.5 533 c 128,-1,47
 301 538 301 538 278 538 c 0,48,49
 177 538 177 538 121 496.5 c 128,-1,50
 65 455 65 455 62 364 c 1,51,-1
 143 364 l 1,8,9
384 181 m 2,52,53
 384 155 384 155 370.5 132.5 c 128,-1,54
 357 110 357 110 334 93.5 c 128,-1,55
 311 77 311 77 281.5 67.5 c 128,-1,56
 252 58 252 58 222 58 c 0,57,58
 174 58 174 58 150.5 81.5 c 128,-1,59
 127 105 127 105 127 149 c 0,60,61
 127 172 127 172 137.5 188 c 128,-1,62
 148 204 148 204 165 213 c 128,-1,63
 182 222 182 222 200.5 226.5 c 128,-1,64
 219 231 219 231 239 234 c 0,65,66
 315 244 315 244 343.5 251 c 128,-1,67
 372 258 372 258 384 267 c 1,68,-1
 384 181 l 2,52,53
EndSplineSet
Validated: 9
EndChar

StartChar: ccedilla
Encoding: 231 193 130
Width: 500
Flags: W
LayerCount: 2
Fore
SplineSet
163 -86 m 1,0,-1
 180 -105 l 1,1,2
 196 -100 196 -100 204.5 -98.5 c 128,-1,3
 213 -97 213 -97 219 -97 c 0,4,5
 235 -97 235 -97 251 -106.5 c 128,-1,6
 267 -116 267 -116 267 -136 c 0,7,8
 267 -160 267 -160 249.5 -169 c 128,-1,9
 232 -178 232 -178 211 -178 c 0,10,11
 194 -178 194 -178 180.5 -174.5 c 128,-1,12
 167 -171 167 -171 146 -163 c 1,13,-1
 129 -203 l 1,14,15
 152 -213 152 -213 176 -219 c 128,-1,16
 200 -225 200 -225 225 -225 c 0,17,18
 279 -225 279 -225 311 -199 c 128,-1,19
 343 -173 343 -173 343 -133 c 0,20,21
 343 -104 343 -104 323 -81 c 128,-1,22
 303 -58 303 -58 259 -58 c 0,23,24
 249 -58 249 -58 234 -61 c 0,25,26
 231 -62 231 -62 228 -62 c 2,27,-1
 274 0 l 1,28,-1
 227 0 l 1,29,-1
 163 -86 l 1,0,-1
477 347 m 1,30,31
 474 383 474 383 462 417 c 128,-1,32
 450 451 450 451 426.5 478.5 c 128,-1,33
 403 506 403 506 366.5 522 c 128,-1,34
 330 538 330 538 281 538 c 0,35,36
 218 538 218 538 170.5 516 c 128,-1,37
 123 494 123 494 91.5 454 c 128,-1,38
 60 414 60 414 45 361.5 c 128,-1,39
 30 309 30 309 30 247 c 0,40,41
 30 131 30 131 93 58 c 128,-1,42
 156 -15 156 -15 264 -15 c 0,43,44
 319 -15 319 -15 358.5 3.5 c 128,-1,45
 398 22 398 22 423 52 c 128,-1,46
 448 82 448 82 460.5 116 c 128,-1,47
 473 150 473 150 477 185 c 1,48,-1
 392 185 l 1,49,50
 381 126 381 126 347 93.5 c 128,-1,51
 313 61 313 61 267 61 c 0,52,53
 224 61 224 61 195.5 78.5 c 128,-1,54
 167 96 167 96 151.5 125.5 c 128,-1,55
 136 155 136 155 130 189.5 c 128,-1,56
 124 224 124 224 124 262 c 0,57,58
 124 299 124 299 131.5 334 c 128,-1,59
 139 369 139 369 156 397 c 128,-1,60
 173 425 173 425 201 442 c 128,-1,61
 229 459 229 459 268 459 c 0,62,63
 322 459 322 459 353 430 c 128,-1,64
 384 401 384 401 392 347 c 1,65,-1
 477 347 l 1,30,31
EndSplineSet
Validated: 5
EndChar

StartChar: egrave
Encoding: 232 203 131
Width: 556
Flags: W
LayerCount: 2
Fore
SplineSet
256 593 m 1,0,-1
 323 593 l 1,1,-1
 234 734 l 1,2,-1
 126 734 l 1,3,-1
 256 593 l 1,0,-1
421 164 m 1,4,5
 418 130 418 130 384 98 c 0,6,7
 365 81 365 81 340.5 71 c 128,-1,8
 316 61 316 61 286 61 c 0,9,10
 211 61 211 61 172.5 105.5 c 128,-1,11
 134 150 134 150 134 233 c 1,12,-1
 516 233 l 1,13,14
 516 376 516 376 459 457 c 128,-1,15
 402 538 402 538 291 538 c 0,16,17
 228 538 228 538 180.5 516 c 128,-1,18
 133 494 133 494 101.5 454 c 128,-1,19
 70 414 70 414 55 361.5 c 128,-1,20
 40 309 40 309 40 247 c 0,21,22
 40 131 40 131 103 58 c 128,-1,23
 166 -15 166 -15 274 -15 c 0,24,25
 330 -15 330 -15 360.5 -5 c 128,-1,26
 391 5 391 5 416 21 c 0,27,28
 439 36 439 36 456.5 56.5 c 128,-1,29
 474 77 474 77 486 100 c 0,30,31
 506 136 506 136 509 164 c 1,32,-1
 421 164 l 1,4,5
134 303 m 1,33,34
 134 333 134 333 145 361.5 c 128,-1,35
 156 390 156 390 176 412 c 128,-1,36
 196 434 196 434 223 446.5 c 128,-1,37
 250 459 250 459 279 459 c 0,38,39
 318 459 318 459 345.5 446.5 c 128,-1,40
 373 434 373 434 389.5 412.5 c 128,-1,41
 406 391 406 391 414.5 363.5 c 128,-1,42
 423 336 423 336 425 303 c 1,43,-1
 134 303 l 1,33,34
EndSplineSet
Validated: 9
EndChar

StartChar: eacute
Encoding: 233 200 132
Width: 556
Flags: W
LayerCount: 2
Fore
SplineSet
431 734 m 1,0,-1
 323 734 l 1,1,-1
 234 593 l 1,2,-1
 301 593 l 1,3,-1
 431 734 l 1,0,-1
421 164 m 1,4,5
 418 130 418 130 384 98 c 0,6,7
 365 81 365 81 340.5 71 c 128,-1,8
 316 61 316 61 286 61 c 0,9,10
 211 61 211 61 172.5 105.5 c 128,-1,11
 134 150 134 150 134 233 c 1,12,-1
 516 233 l 1,13,14
 516 376 516 376 459 457 c 128,-1,15
 402 538 402 538 291 538 c 0,16,17
 228 538 228 538 180.5 516 c 128,-1,18
 133 494 133 494 101.5 454 c 128,-1,19
 70 414 70 414 55 361.5 c 128,-1,20
 40 309 40 309 40 247 c 0,21,22
 40 131 40 131 103 58 c 128,-1,23
 166 -15 166 -15 274 -15 c 0,24,25
 330 -15 330 -15 360.5 -5 c 128,-1,26
 391 5 391 5 416 21 c 0,27,28
 439 36 439 36 456.5 56.5 c 128,-1,29
 474 77 474 77 486 100 c 0,30,31
 506 136 506 136 509 164 c 1,32,-1
 421 164 l 1,4,5
134 303 m 1,33,34
 134 333 134 333 145 361.5 c 128,-1,35
 156 390 156 390 176 412 c 128,-1,36
 196 434 196 434 223 446.5 c 128,-1,37
 250 459 250 459 279 459 c 0,38,39
 318 459 318 459 345.5 446.5 c 128,-1,40
 373 434 373 434 389.5 412.5 c 128,-1,41
 406 391 406 391 414.5 363.5 c 128,-1,42
 423 336 423 336 425 303 c 1,43,-1
 134 303 l 1,33,34
EndSplineSet
Validated: 9
EndChar

StartChar: ecircumflex
Encoding: 234 205 133
Width: 556
Flags: W
LayerCount: 2
Fore
SplineSet
278 686 m 1,0,-1
 344 593 l 1,1,-1
 424 593 l 1,2,-1
 325 734 l 1,3,-1
 232 734 l 1,4,-1
 133 593 l 1,5,-1
 212 593 l 1,6,-1
 278 686 l 1,0,-1
421 164 m 1,7,8
 418 130 418 130 384 98 c 0,9,10
 365 81 365 81 340.5 71 c 128,-1,11
 316 61 316 61 286 61 c 0,12,13
 211 61 211 61 172.5 105.5 c 128,-1,14
 134 150 134 150 134 233 c 1,15,-1
 516 233 l 1,16,17
 516 376 516 376 459 457 c 128,-1,18
 402 538 402 538 291 538 c 0,19,20
 228 538 228 538 180.5 516 c 128,-1,21
 133 494 133 494 101.5 454 c 128,-1,22
 70 414 70 414 55 361.5 c 128,-1,23
 40 309 40 309 40 247 c 0,24,25
 40 131 40 131 103 58 c 128,-1,26
 166 -15 166 -15 274 -15 c 0,27,28
 330 -15 330 -15 360.5 -5 c 128,-1,29
 391 5 391 5 416 21 c 0,30,31
 439 36 439 36 456.5 56.5 c 128,-1,32
 474 77 474 77 486 100 c 0,33,34
 506 136 506 136 509 164 c 1,35,-1
 421 164 l 1,7,8
134 303 m 1,36,37
 134 333 134 333 145 361.5 c 128,-1,38
 156 390 156 390 176 412 c 128,-1,39
 196 434 196 434 223 446.5 c 128,-1,40
 250 459 250 459 279 459 c 0,41,42
 318 459 318 459 345.5 446.5 c 128,-1,43
 373 434 373 434 389.5 412.5 c 128,-1,44
 406 391 406 391 414.5 363.5 c 128,-1,45
 423 336 423 336 425 303 c 1,46,-1
 134 303 l 1,36,37
EndSplineSet
Validated: 9
EndChar

StartChar: edieresis
Encoding: 235 206 134
Width: 556
Flags: W
LayerCount: 2
Fore
SplineSet
243 706 m 1,0,-1
 152 706 l 1,1,-1
 152 604 l 1,2,-1
 243 604 l 1,3,-1
 243 706 l 1,0,-1
405 706 m 1,4,-1
 314 706 l 1,5,-1
 314 604 l 1,6,-1
 405 604 l 1,7,-1
 405 706 l 1,4,-1
421 164 m 1,8,9
 418 130 418 130 384 98 c 0,10,11
 365 81 365 81 340.5 71 c 128,-1,12
 316 61 316 61 286 61 c 0,13,14
 211 61 211 61 172.5 105.5 c 128,-1,15
 134 150 134 150 134 233 c 1,16,-1
 516 233 l 1,17,18
 516 376 516 376 459 457 c 128,-1,19
 402 538 402 538 291 538 c 0,20,21
 228 538 228 538 180.5 516 c 128,-1,22
 133 494 133 494 101.5 454 c 128,-1,23
 70 414 70 414 55 361.5 c 128,-1,24
 40 309 40 309 40 247 c 0,25,26
 40 131 40 131 103 58 c 128,-1,27
 166 -15 166 -15 274 -15 c 0,28,29
 330 -15 330 -15 360.5 -5 c 128,-1,30
 391 5 391 5 416 21 c 0,31,32
 439 36 439 36 456.5 56.5 c 128,-1,33
 474 77 474 77 486 100 c 0,34,35
 506 136 506 136 509 164 c 1,36,-1
 421 164 l 1,8,9
134 303 m 1,37,38
 134 333 134 333 145 361.5 c 128,-1,39
 156 390 156 390 176 412 c 128,-1,40
 196 434 196 434 223 446.5 c 128,-1,41
 250 459 250 459 279 459 c 0,42,43
 318 459 318 459 345.5 446.5 c 128,-1,44
 373 434 373 434 389.5 412.5 c 128,-1,45
 406 391 406 391 414.5 363.5 c 128,-1,46
 423 336 423 336 425 303 c 1,47,-1
 134 303 l 1,37,38
EndSplineSet
Validated: 9
EndChar

StartChar: igrave
Encoding: 236 207 135
Width: 278
Flags: W
LayerCount: 2
Fore
SplineSet
117 593 m 1,0,-1
 184 593 l 1,1,-1
 95 734 l 1,2,-1
 -13 734 l 1,3,-1
 117 593 l 1,0,-1
183 523 m 1,4,-1
 95 523 l 1,5,-1
 95 0 l 1,6,-1
 183 0 l 1,7,-1
 183 523 l 1,4,-1
EndSplineSet
Validated: 9
EndChar

StartChar: iacute
Encoding: 237 204 136
Width: 278
Flags: W
LayerCount: 2
Fore
SplineSet
292 734 m 1,0,-1
 184 734 l 1,1,-1
 95 593 l 1,2,-1
 162 593 l 1,3,-1
 292 734 l 1,0,-1
183 523 m 1,4,-1
 95 523 l 1,5,-1
 95 0 l 1,6,-1
 183 0 l 1,7,-1
 183 523 l 1,4,-1
EndSplineSet
Validated: 9
EndChar

StartChar: icircumflex
Encoding: 238 211 137
Width: 278
Flags: W
LayerCount: 2
Fore
SplineSet
139 686 m 1,0,-1
 205 593 l 1,1,-1
 285 593 l 1,2,-1
 186 734 l 1,3,-1
 93 734 l 1,4,-1
 -6 593 l 1,5,-1
 73 593 l 1,6,-1
 139 686 l 1,0,-1
183 523 m 1,7,-1
 95 523 l 1,8,-1
 95 0 l 1,9,-1
 183 0 l 1,10,-1
 183 523 l 1,7,-1
EndSplineSet
Validated: 9
EndChar

StartChar: idieresis
Encoding: 239 212 138
Width: 278
Flags: W
LayerCount: 2
Fore
SplineSet
104 706 m 1,0,-1
 13 706 l 1,1,-1
 13 604 l 1,2,-1
 104 604 l 1,3,-1
 104 706 l 1,0,-1
266 706 m 1,4,-1
 175 706 l 1,5,-1
 175 604 l 1,6,-1
 266 604 l 1,7,-1
 266 706 l 1,4,-1
183 523 m 1,8,-1
 95 523 l 1,9,-1
 95 0 l 1,10,-1
 183 0 l 1,11,-1
 183 523 l 1,8,-1
EndSplineSet
Validated: 9
EndChar

StartChar: ntilde
Encoding: 241 210 139
Width: 556
Flags: W
LayerCount: 2
Fore
SplineSet
389 722 m 1,0,1
 385 701 385 701 375 688.5 c 128,-1,2
 365 676 365 676 339 676 c 0,3,4
 332 676 332 676 318.5 679.5 c 128,-1,5
 305 683 305 683 292 689 c 2,6,-1
 270 698 l 2,7,8
 231 713 231 713 202 713 c 0,9,10
 155 713 155 713 130 683.5 c 128,-1,11
 105 654 105 654 98 606 c 1,12,-1
 146 606 l 1,13,14
 153 628 153 628 163.5 639 c 128,-1,15
 174 650 174 650 193 650 c 0,16,17
 202 650 202 650 215 647 c 128,-1,18
 228 644 228 644 254 635 c 2,19,-1
 280 626 l 2,20,21
 303 619 303 619 314.5 616 c 128,-1,22
 326 613 326 613 339 613 c 0,23,24
 380 613 380 613 407 644 c 128,-1,25
 434 675 434 675 439 722 c 1,26,-1
 389 722 l 1,0,1
491 356 m 2,27,28
 491 409 491 409 475 445 c 128,-1,29
 459 481 459 481 432 501.5 c 128,-1,30
 405 522 405 522 373.5 530 c 128,-1,31
 342 538 342 538 308 538 c 0,32,33
 276 538 276 538 250 528.5 c 128,-1,34
 224 519 224 519 204.5 505 c 128,-1,35
 185 491 185 491 172.5 477 c 128,-1,36
 160 463 160 463 150 449 c 1,37,-1
 148 449 l 1,38,-1
 148 523 l 1,39,-1
 65 523 l 1,40,-1
 65 0 l 1,41,-1
 153 0 l 1,42,-1
 153 285 l 2,43,44
 153 335 153 335 166.5 369.5 c 128,-1,45
 180 404 180 404 201.5 423.5 c 128,-1,46
 223 443 223 443 246.5 451 c 128,-1,47
 270 459 270 459 291 459 c 0,48,49
 353 459 353 459 378 426 c 128,-1,50
 403 393 403 393 403 322 c 2,51,-1
 403 0 l 1,52,-1
 491 0 l 1,53,-1
 491 356 l 2,27,28
EndSplineSet
Validated: 9
EndChar

StartChar: ograve
Encoding: 242 218 140
Width: 556
Flags: W
LayerCount: 2
Fore
SplineSet
256 593 m 1,0,-1
 323 593 l 1,1,-1
 234 734 l 1,2,-1
 126 734 l 1,3,-1
 256 593 l 1,0,-1
35 262 m 256,4,5
 35 210 35 210 50 161 c 128,-1,6
 65 112 65 112 95 72 c 128,-1,7
 125 32 125 32 171.5 9 c 128,-1,8
 218 -14 218 -14 278 -14 c 256,9,10
 338 -14 338 -14 384.5 9 c 128,-1,11
 431 32 431 32 461 72 c 128,-1,12
 491 112 491 112 506 161 c 128,-1,13
 521 210 521 210 521 262 c 256,14,15
 521 314 521 314 506 363.5 c 128,-1,16
 491 413 491 413 461 452.5 c 128,-1,17
 431 492 431 492 384.5 515 c 128,-1,18
 338 538 338 538 278 538 c 256,19,20
 218 538 218 538 171.5 515 c 128,-1,21
 125 492 125 492 95 452 c 128,-1,22
 65 412 65 412 50 363 c 128,-1,23
 35 314 35 314 35 262 c 256,4,5
126 262 m 256,24,25
 126 292 126 292 133 326 c 128,-1,26
 140 360 140 360 156.5 391 c 128,-1,27
 173 422 173 422 203 442 c 128,-1,28
 233 462 233 462 278 462 c 256,29,30
 323 462 323 462 353 442 c 128,-1,31
 383 422 383 422 400 391 c 128,-1,32
 417 360 417 360 423.5 326 c 128,-1,33
 430 292 430 292 430 262 c 256,34,35
 430 232 430 232 423.5 198 c 128,-1,36
 417 164 417 164 400 133 c 128,-1,37
 383 102 383 102 353 82 c 128,-1,38
 323 62 323 62 278 62 c 256,39,40
 233 62 233 62 203 82 c 128,-1,41
 173 102 173 102 156.5 133 c 128,-1,42
 140 164 140 164 133 198 c 128,-1,43
 126 232 126 232 126 262 c 256,24,25
EndSplineSet
Validated: 9
EndChar

StartChar: oacute
Encoding: 243 219 141
Width: 556
Flags: W
LayerCount: 2
Fore
SplineSet
431 734 m 1,0,-1
 323 734 l 1,1,-1
 234 593 l 1,2,-1
 301 593 l 1,3,-1
 431 734 l 1,0,-1
35 262 m 256,4,5
 35 210 35 210 50 161 c 128,-1,6
 65 112 65 112 95 72 c 128,-1,7
 125 32 125 32 171.5 9 c 128,-1,8
 218 -14 218 -14 278 -14 c 256,9,10
 338 -14 338 -14 384.5 9 c 128,-1,11
 431 32 431 32 461 72 c 128,-1,12
 491 112 491 112 506 161 c 128,-1,13
 521 210 521 210 521 262 c 256,14,15
 521 314 521 314 506 363.5 c 128,-1,16
 491 413 491 413 461 452.5 c 128,-1,17
 431 492 431 492 384.5 515 c 128,-1,18
 338 538 338 538 278 538 c 256,19,20
 218 538 218 538 171.5 515 c 128,-1,21
 125 492 125 492 95 452 c 128,-1,22
 65 412 65 412 50 363 c 128,-1,23
 35 314 35 314 35 262 c 256,4,5
126 262 m 256,24,25
 126 292 126 292 133 326 c 128,-1,26
 140 360 140 360 156.5 391 c 128,-1,27
 173 422 173 422 203 442 c 128,-1,28
 233 462 233 462 278 462 c 256,29,30
 323 462 323 462 353 442 c 128,-1,31
 383 422 383 422 400 391 c 128,-1,32
 417 360 417 360 423.5 326 c 128,-1,33
 430 292 430 292 430 262 c 256,34,35
 430 232 430 232 423.5 198 c 128,-1,36
 417 164 417 164 400 133 c 128,-1,37
 383 102 383 102 353 82 c 128,-1,38
 323 62 323 62 278 62 c 256,39,40
 233 62 233 62 203 82 c 128,-1,41
 173 102 173 102 156.5 133 c 128,-1,42
 140 164 140 164 133 198 c 128,-1,43
 126 232 126 232 126 262 c 256,24,25
EndSplineSet
Validated: 9
EndChar

StartChar: ocircumflex
Encoding: 244 217 142
Width: 556
Flags: W
LayerCount: 2
Fore
SplineSet
278 686 m 1,0,-1
 344 593 l 1,1,-1
 424 593 l 1,2,-1
 325 734 l 1,3,-1
 232 734 l 1,4,-1
 133 593 l 1,5,-1
 212 593 l 1,6,-1
 278 686 l 1,0,-1
35 262 m 256,7,8
 35 210 35 210 50 161 c 128,-1,9
 65 112 65 112 95 72 c 128,-1,10
 125 32 125 32 171.5 9 c 128,-1,11
 218 -14 218 -14 278 -14 c 256,12,13
 338 -14 338 -14 384.5 9 c 128,-1,14
 431 32 431 32 461 72 c 128,-1,15
 491 112 491 112 506 161 c 128,-1,16
 521 210 521 210 521 262 c 256,17,18
 521 314 521 314 506 363.5 c 128,-1,19
 491 413 491 413 461 452.5 c 128,-1,20
 431 492 431 492 384.5 515 c 128,-1,21
 338 538 338 538 278 538 c 256,22,23
 218 538 218 538 171.5 515 c 128,-1,24
 125 492 125 492 95 452 c 128,-1,25
 65 412 65 412 50 363 c 128,-1,26
 35 314 35 314 35 262 c 256,7,8
126 262 m 256,27,28
 126 292 126 292 133 326 c 128,-1,29
 140 360 140 360 156.5 391 c 128,-1,30
 173 422 173 422 203 442 c 128,-1,31
 233 462 233 462 278 462 c 256,32,33
 323 462 323 462 353 442 c 128,-1,34
 383 422 383 422 400 391 c 128,-1,35
 417 360 417 360 423.5 326 c 128,-1,36
 430 292 430 292 430 262 c 256,37,38
 430 232 430 232 423.5 198 c 128,-1,39
 417 164 417 164 400 133 c 128,-1,40
 383 102 383 102 353 82 c 128,-1,41
 323 62 323 62 278 62 c 256,42,43
 233 62 233 62 203 82 c 128,-1,44
 173 102 173 102 156.5 133 c 128,-1,45
 140 164 140 164 133 198 c 128,-1,46
 126 232 126 232 126 262 c 256,27,28
EndSplineSet
Validated: 9
EndChar

StartChar: dotlessi
Encoding: 245 305 143
Width: 278
Flags: W
LayerCount: 2
Fore
SplineSet
183 523 m 1,0,-1
 95 523 l 1,1,-1
 95 0 l 1,2,-1
 183 0 l 1,3,-1
 183 523 l 1,0,-1
EndSplineSet
Validated: 9
EndChar

StartChar: odieresis
Encoding: 246 710 144
Width: 556
Flags: W
LayerCount: 2
Fore
SplineSet
243 706 m 1,0,-1
 152 706 l 1,1,-1
 152 604 l 1,2,-1
 243 604 l 1,3,-1
 243 706 l 1,0,-1
405 706 m 1,4,-1
 314 706 l 1,5,-1
 314 604 l 1,6,-1
 405 604 l 1,7,-1
 405 706 l 1,4,-1
35 262 m 256,8,9
 35 210 35 210 50 161 c 128,-1,10
 65 112 65 112 95 72 c 128,-1,11
 125 32 125 32 171.5 9 c 128,-1,12
 218 -14 218 -14 278 -14 c 256,13,14
 338 -14 338 -14 384.5 9 c 128,-1,15
 431 32 431 32 461 72 c 128,-1,16
 491 112 491 112 506 161 c 128,-1,17
 521 210 521 210 521 262 c 256,18,19
 521 314 521 314 506 363.5 c 128,-1,20
 491 413 491 413 461 452.5 c 128,-1,21
 431 492 431 492 384.5 515 c 128,-1,22
 338 538 338 538 278 538 c 256,23,24
 218 538 218 538 171.5 515 c 128,-1,25
 125 492 125 492 95 452 c 128,-1,26
 65 412 65 412 50 363 c 128,-1,27
 35 314 35 314 35 262 c 256,8,9
126 262 m 256,28,29
 126 292 126 292 133 326 c 128,-1,30
 140 360 140 360 156.5 391 c 128,-1,31
 173 422 173 422 203 442 c 128,-1,32
 233 462 233 462 278 462 c 256,33,34
 323 462 323 462 353 442 c 128,-1,35
 383 422 383 422 400 391 c 128,-1,36
 417 360 417 360 423.5 326 c 128,-1,37
 430 292 430 292 430 262 c 256,38,39
 430 232 430 232 423.5 198 c 128,-1,40
 417 164 417 164 400 133 c 128,-1,41
 383 102 383 102 353 82 c 128,-1,42
 323 62 323 62 278 62 c 256,43,44
 233 62 233 62 203 82 c 128,-1,45
 173 102 173 102 156.5 133 c 128,-1,46
 140 164 140 164 133 198 c 128,-1,47
 126 232 126 232 126 262 c 256,28,29
EndSplineSet
Validated: 9
EndChar

StartChar: lslash
Encoding: 248 175 145
Width: 222
Flags: W
LayerCount: 2
Fore
SplineSet
242 435 m 1,0,-1
 242 493 l 1,1,-1
 155 443 l 1,2,-1
 155 718 l 1,3,-1
 67 718 l 1,4,-1
 67 397 l 1,5,-1
 -20 347 l 1,6,-1
 -20 289 l 1,7,-1
 67 339 l 1,8,-1
 67 0 l 1,9,-1
 155 0 l 1,10,-1
 155 385 l 1,11,-1
 242 435 l 1,0,-1
EndSplineSet
Validated: 9
EndChar

StartChar: ugrave
Encoding: 249 728 146
Width: 556
Flags: W
LayerCount: 2
Fore
SplineSet
256 593 m 1,0,-1
 323 593 l 1,1,-1
 234 734 l 1,2,-1
 126 734 l 1,3,-1
 256 593 l 1,0,-1
489 0 m 1,4,-1
 489 523 l 1,5,-1
 401 523 l 1,6,-1
 401 235 l 2,7,8
 401 204 401 204 393.5 174 c 128,-1,9
 386 144 386 144 369.5 118 c 128,-1,10
 353 92 353 92 325 76.5 c 128,-1,11
 297 61 297 61 257 61 c 0,12,13
 210 61 210 61 183 88 c 128,-1,14
 156 115 156 115 156 176 c 2,15,-1
 156 523 l 1,16,-1
 68 523 l 1,17,-1
 68 147 l 2,18,19
 68 102 68 102 83 70.5 c 128,-1,20
 98 39 98 39 123 20 c 128,-1,21
 148 1 148 1 177.5 -7 c 128,-1,22
 207 -15 207 -15 238 -15 c 0,23,24
 299 -15 299 -15 337 7.5 c 128,-1,25
 375 30 375 30 404 78 c 1,26,-1
 406 76 l 1,27,-1
 406 0 l 1,28,-1
 489 0 l 1,4,-1
EndSplineSet
Validated: 9
EndChar

StartChar: uacute
Encoding: 250 729 147
Width: 556
Flags: W
LayerCount: 2
Fore
SplineSet
431 734 m 1,0,-1
 323 734 l 1,1,-1
 234 593 l 1,2,-1
 301 593 l 1,3,-1
 431 734 l 1,0,-1
489 0 m 1,4,-1
 489 523 l 1,5,-1
 401 523 l 1,6,-1
 401 235 l 2,7,8
 401 204 401 204 393.5 174 c 128,-1,9
 386 144 386 144 369.5 118 c 128,-1,10
 353 92 353 92 325 76.5 c 128,-1,11
 297 61 297 61 257 61 c 0,12,13
 210 61 210 61 183 88 c 128,-1,14
 156 115 156 115 156 176 c 2,15,-1
 156 523 l 1,16,-1
 68 523 l 1,17,-1
 68 147 l 2,18,19
 68 102 68 102 83 70.5 c 128,-1,20
 98 39 98 39 123 20 c 128,-1,21
 148 1 148 1 177.5 -7 c 128,-1,22
 207 -15 207 -15 238 -15 c 0,23,24
 299 -15 299 -15 337 7.5 c 128,-1,25
 375 30 375 30 404 78 c 1,26,-1
 406 76 l 1,27,-1
 406 0 l 1,28,-1
 489 0 l 1,4,-1
EndSplineSet
Validated: 9
EndChar

StartChar: ucircumflex
Encoding: 251 730 148
Width: 556
Flags: W
LayerCount: 2
Fore
SplineSet
278 686 m 1,0,-1
 344 593 l 1,1,-1
 424 593 l 1,2,-1
 325 734 l 1,3,-1
 232 734 l 1,4,-1
 133 593 l 1,5,-1
 212 593 l 1,6,-1
 278 686 l 1,0,-1
489 0 m 1,7,-1
 489 523 l 1,8,-1
 401 523 l 1,9,-1
 401 235 l 2,10,11
 401 204 401 204 393.5 174 c 128,-1,12
 386 144 386 144 369.5 118 c 128,-1,13
 353 92 353 92 325 76.5 c 128,-1,14
 297 61 297 61 257 61 c 0,15,16
 210 61 210 61 183 88 c 128,-1,17
 156 115 156 115 156 176 c 2,18,-1
 156 523 l 1,19,-1
 68 523 l 1,20,-1
 68 147 l 2,21,22
 68 102 68 102 83 70.5 c 128,-1,23
 98 39 98 39 123 20 c 128,-1,24
 148 1 148 1 177.5 -7 c 128,-1,25
 207 -15 207 -15 238 -15 c 0,26,27
 299 -15 299 -15 337 7.5 c 128,-1,28
 375 30 375 30 404 78 c 1,29,-1
 406 76 l 1,30,-1
 406 0 l 1,31,-1
 489 0 l 1,7,-1
EndSplineSet
Validated: 9
EndChar

StartChar: udieresis
Encoding: 252 184 149
Width: 556
Flags: W
LayerCount: 2
Fore
SplineSet
243 706 m 1,0,-1
 152 706 l 1,1,-1
 152 604 l 1,2,-1
 243 604 l 1,3,-1
 243 706 l 1,0,-1
405 706 m 1,4,-1
 314 706 l 1,5,-1
 314 604 l 1,6,-1
 405 604 l 1,7,-1
 405 706 l 1,4,-1
489 0 m 1,8,-1
 489 523 l 1,9,-1
 401 523 l 1,10,-1
 401 235 l 2,11,12
 401 204 401 204 393.5 174 c 128,-1,13
 386 144 386 144 369.5 118 c 128,-1,14
 353 92 353 92 325 76.5 c 128,-1,15
 297 61 297 61 257 61 c 0,16,17
 210 61 210 61 183 88 c 128,-1,18
 156 115 156 115 156 176 c 2,19,-1
 156 523 l 1,20,-1
 68 523 l 1,21,-1
 68 147 l 2,22,23
 68 102 68 102 83 70.5 c 128,-1,24
 98 39 98 39 123 20 c 128,-1,25
 148 1 148 1 177.5 -7 c 128,-1,26
 207 -15 207 -15 238 -15 c 0,27,28
 299 -15 299 -15 337 7.5 c 128,-1,29
 375 30 375 30 404 78 c 1,30,-1
 406 76 l 1,31,-1
 406 0 l 1,32,-1
 489 0 l 1,8,-1
EndSplineSet
Validated: 9
EndChar

StartChar: yacute
Encoding: 253 733 150
Width: 500
Flags: W
LayerCount: 2
Fore
SplineSet
403 734 m 1,0,-1
 295 734 l 1,1,-1
 206 593 l 1,2,-1
 273 593 l 1,3,-1
 403 734 l 1,0,-1
252 97 m 1,4,-1
 250 97 l 1,5,-1
 111 523 l 1,6,-1
 11 523 l 1,7,-1
 205 -14 l 1,8,-1
 205 -14 l 1,9,10
 187 -61 187 -61 177.5 -82.5 c 128,-1,11
 168 -104 168 -104 159.5 -115.5 c 128,-1,12
 151 -127 151 -127 140.5 -131 c 128,-1,13
 130 -135 130 -135 112 -135 c 0,14,15
 84 -135 84 -135 59 -126 c 1,16,-1
 59 -206 l 1,17,18
 66 -208 66 -208 67 -208 c 0,19,20
 86 -214 86 -214 96 -214 c 0,21,22
 143 -214 143 -214 167 -208 c 128,-1,23
 191 -202 191 -202 209.5 -181.5 c 128,-1,24
 228 -161 228 -161 246.5 -121.5 c 128,-1,25
 265 -82 265 -82 301 10 c 0,26,27
 359 159 359 159 466 459 c 2,28,-1
 489 523 l 1,29,-1
 392 523 l 1,30,-1
 252 97 l 1,4,-1
EndSplineSet
Validated: 5
EndChar

StartChar: ydieresis
Encoding: 255 711 151
Width: 500
Flags: W
LayerCount: 2
Fore
SplineSet
215 706 m 1,0,-1
 124 706 l 1,1,-1
 124 604 l 1,2,-1
 215 604 l 1,3,-1
 215 706 l 1,0,-1
377 706 m 1,4,-1
 286 706 l 1,5,-1
 286 604 l 1,6,-1
 377 604 l 1,7,-1
 377 706 l 1,4,-1
252 97 m 1,8,-1
 250 97 l 1,9,-1
 111 523 l 1,10,-1
 11 523 l 1,11,-1
 205 -14 l 1,12,-1
 205 -14 l 1,13,14
 187 -61 187 -61 177.5 -82.5 c 128,-1,15
 168 -104 168 -104 159.5 -115.5 c 128,-1,16
 151 -127 151 -127 140.5 -131 c 128,-1,17
 130 -135 130 -135 112 -135 c 0,18,19
 84 -135 84 -135 59 -126 c 1,20,-1
 59 -206 l 1,21,22
 66 -208 66 -208 67 -208 c 0,23,24
 86 -214 86 -214 96 -214 c 0,25,26
 143 -214 143 -214 167 -208 c 128,-1,27
 191 -202 191 -202 209.5 -181.5 c 128,-1,28
 228 -161 228 -161 246.5 -121.5 c 128,-1,29
 265 -82 265 -82 301 10 c 0,30,31
 359 159 359 159 466 459 c 2,32,-1
 489 523 l 1,33,-1
 392 523 l 1,34,-1
 252 97 l 1,8,-1
EndSplineSet
Validated: 5
EndChar
